<svg width="516" height="515" viewBox="0 0 516 515" fill="none" xmlns="http://www.w3.org/2000/svg">
<g clip-path="url(#clip0_435_12324)">
<path d="M452.32 441.325C441.814 452.376 431.875 459.501 424.02 465.131C331.7 531.314 222.462 512.022 199.244 507.312C164.961 500.354 98.6912 486.907 50.7795 430.613C-21.7067 345.455 -10.42 211.27 45.809 122.699C56.0942 106.496 110.425 16.572 220.834 2.15563C287.66 -6.57178 365.551 11.0302 421.96 58.2538C540.364 157.36 531.927 357.585 452.32 441.325Z" fill="#232323" fill-opacity="0.9"/>
<path d="M9.09224 174.287C8.83931 174.171 8.62447 173.986 8.47264 173.753C8.3208 173.519 8.23819 173.248 8.23438 172.97C8.23438 171.057 8.25831 169.108 8.33194 167.187C8.34013 166.999 8.38586 166.814 8.46646 166.644C8.54707 166.473 8.66092 166.321 8.80135 166.195C8.94177 166.069 9.10595 165.972 9.28424 165.91C9.46253 165.849 9.65137 165.823 9.83966 165.835C11.7873 165.929 11.1283 167.831 11.1449 173.009C11.1449 173.197 11.1072 173.384 11.0338 173.558C10.9605 173.732 10.853 173.889 10.7178 174.021C10.5826 174.152 10.4224 174.256 10.2466 174.324C10.0708 174.393 9.88296 174.426 9.69422 174.421C9.48629 174.42 9.28106 174.374 9.09224 174.287Z" fill="#91B3FA"/>
<path d="M10.1826 149.284C10.7956 145.658 11.5651 142.015 12.469 138.452C12.5172 138.27 12.6012 138.098 12.7161 137.948C12.831 137.798 12.9745 137.673 13.1383 137.578C13.3021 137.484 13.483 137.423 13.6705 137.399C13.858 137.375 14.0484 137.389 14.2307 137.439C16.3552 138.007 14.8658 139.12 13.0525 149.802C13.0196 149.988 12.95 150.166 12.8477 150.325C12.7454 150.483 12.6125 150.62 12.4568 150.727C12.301 150.834 12.1256 150.909 11.9406 150.948C11.7555 150.986 11.5647 150.988 11.3792 150.952C11.0015 150.884 10.6652 150.672 10.4417 150.361C10.2182 150.049 10.1252 149.663 10.1826 149.284ZM17.9844 121.358C19.3411 117.924 20.8599 114.481 22.4486 111.242C23.3009 109.5 25.8929 110.854 25.0756 112.529C23.4942 115.759 22.0289 119.081 20.7016 122.443C20.5583 122.803 20.2777 123.091 19.9216 123.245C19.5655 123.398 19.163 123.404 18.8026 123.261C18.4423 123.117 18.1537 122.837 18.0002 122.481C17.8468 122.125 17.8411 121.723 17.9844 121.363V121.358ZM31.3826 95.6593C33.4076 92.5987 35.5891 89.5805 37.8589 86.6873C39.0316 85.1974 41.3401 86.9797 40.1748 88.464C37.9491 91.2983 35.8155 94.2559 33.8273 97.2521C32.7761 98.8302 30.3314 97.2301 31.3826 95.6593ZM49.8856 75.3058C49.7501 75.1748 49.6421 75.018 49.5679 74.8448C49.4937 74.6716 49.4549 74.4853 49.4537 74.2969C49.4525 74.1084 49.4889 73.9217 49.5609 73.7475C49.6329 73.5733 49.7389 73.4153 49.8727 73.2825C52.5034 70.7075 55.274 68.2006 58.109 65.8353C59.5652 64.6213 61.4687 66.8193 60.0125 68.0424C57.2364 70.3599 54.521 72.8135 51.9419 75.337C51.6628 75.6008 51.2916 75.7452 50.9074 75.7394C50.5232 75.7335 50.1566 75.5779 49.8856 75.3058ZM72.2877 57.1557C72.1819 56.9999 72.1084 56.8245 72.0716 56.6399C72.0349 56.4552 72.0356 56.2651 72.0737 56.0807C72.1118 55.8964 72.1865 55.7215 72.2935 55.5665C72.4005 55.4115 72.5375 55.2796 72.6964 55.1785C75.826 53.1902 79.0549 51.3031 82.3244 49.565C84.007 48.6747 85.4227 51.1964 83.7419 52.0921C80.5387 53.7953 77.3631 55.6438 74.3072 57.5916C73.98 57.7959 73.586 57.8646 73.2089 57.7832C72.8318 57.7018 72.5013 57.4767 72.2877 57.1557ZM98.797 44.7148C98.4548 44.5586 98.1854 44.2776 98.044 43.9294C97.9723 43.7553 97.9364 43.5686 97.9383 43.3804C97.9402 43.1922 97.9799 43.0063 98.0551 42.8337C98.1303 42.6611 98.2395 42.5054 98.3761 42.3757C98.5127 42.2461 98.674 42.1452 98.8503 42.0791C102.328 40.7621 105.899 39.5666 109.465 38.5219C109.835 38.4143 110.233 38.4551 110.574 38.6358C110.914 38.8164 111.171 39.1226 111.289 39.4893C111.347 39.6685 111.368 39.8574 111.351 40.0448C111.334 40.2322 111.28 40.4144 111.192 40.5804C111.103 40.7465 110.982 40.893 110.836 41.0115C110.689 41.1299 110.52 41.2177 110.34 41.2698C106.842 42.2924 103.344 43.4659 99.9365 44.7644C99.7525 44.8325 99.5568 44.8632 99.3608 44.8547C99.1648 44.8461 98.9725 44.7986 98.7951 44.7148H98.797ZM126.902 37.2252C126.687 37.1275 126.499 36.9796 126.353 36.7939C126.207 36.6083 126.108 36.3903 126.065 36.1584C126.031 35.9731 126.035 35.7829 126.076 35.5992C126.117 35.4154 126.195 35.2417 126.304 35.0884C126.414 34.9351 126.553 34.8053 126.713 34.7066C126.874 34.608 127.053 34.5425 127.239 34.5141C130.921 33.9255 134.676 33.4712 138.401 33.1677C138.785 33.1342 139.167 33.2526 139.465 33.4975C139.762 33.7424 139.952 34.0942 139.993 34.4773C140.012 34.6647 139.993 34.8539 139.937 35.0339C139.882 35.2138 139.791 35.3807 139.669 35.5248C139.548 35.6689 139.399 35.7872 139.231 35.8726C139.063 35.9581 138.879 36.009 138.691 36.0223C135.043 36.3203 131.363 36.758 127.756 37.3429C127.466 37.3909 127.167 37.3498 126.9 37.2252H126.902ZM155.208 34.194C155.215 34.0054 155.258 33.82 155.338 33.6486C155.417 33.4772 155.529 33.3233 155.669 33.196C155.808 33.0687 155.972 32.9705 156.15 32.9072C156.327 32.8439 156.516 32.8168 156.705 32.8274C160.442 32.993 164.227 33.3075 167.953 33.7618C169.871 34.0028 169.553 36.8389 167.644 36.6053C163.993 36.1602 160.28 35.8531 156.624 35.6857C156.239 35.6713 155.876 35.5072 155.611 35.2284C155.346 34.9497 155.201 34.5784 155.206 34.194H155.208ZM246.124 71.7872C237.887 64.5294 235.923 64.4981 237.245 62.7747C237.484 62.4759 237.831 62.282 238.211 62.2343C238.591 62.1865 238.975 62.2887 239.281 62.519C242.28 64.7758 245.227 67.178 248.044 69.6591C249.489 70.9393 247.574 73.0637 246.124 71.7872ZM184.247 38.154C184.294 37.971 184.376 37.799 184.49 37.648C184.603 37.4969 184.745 37.3698 184.908 37.2739C185.071 37.178 185.251 37.1152 185.439 37.0892C185.626 37.0632 185.816 37.0744 185.999 37.1222C189.637 38.0418 193.289 39.1031 196.861 40.2931C198.702 40.9056 197.8 43.6167 195.97 43.0061C192.472 41.84 188.893 40.7989 185.331 39.8977C184.957 39.8084 184.633 39.5752 184.43 39.2487C184.227 38.9222 184.161 38.5288 184.247 38.154ZM222.507 54.8915C212.993 49.4362 211.04 49.7893 211.975 47.8305C212.569 46.589 214.084 47.1757 213.91 47.172C217.312 48.7906 220.686 50.5582 223.939 52.4214C224.105 52.5133 224.25 52.6371 224.368 52.7857C224.485 52.9342 224.572 53.1045 224.624 53.2868C224.675 53.4691 224.69 53.6597 224.667 53.8477C224.644 54.0356 224.584 54.2173 224.491 54.382C224.294 54.7105 223.974 54.9477 223.602 55.0418C223.231 55.1359 222.837 55.0792 222.507 54.8842V54.8915Z" fill="#91B3FA"/>
<path d="M262.601 88.9404C259.514 85.1423 257.529 83.7905 259.013 82.5287C259.309 82.2821 259.69 82.1611 260.074 82.1917C260.458 82.2223 260.814 82.402 261.067 82.6924C264.416 86.4905 266.123 88.0263 264.648 89.1851C264.206 89.5309 263.105 89.5603 262.601 88.9404Z" fill="#91B3FA"/>
<path d="M294.105 195.726C293.823 195.598 293.59 195.384 293.438 195.115C293.286 194.846 293.224 194.535 293.26 194.229C293.494 192.362 293.691 190.467 293.845 188.6C293.862 188.412 293.916 188.229 294.004 188.062C294.093 187.895 294.213 187.747 294.36 187.627C294.506 187.507 294.675 187.417 294.856 187.363C295.037 187.309 295.228 187.292 295.416 187.313C295.799 187.349 296.152 187.533 296.401 187.826C296.65 188.12 296.774 188.498 296.747 188.882C296.588 190.787 296.388 192.719 296.148 194.626C296.124 194.813 296.062 194.993 295.967 195.156C295.871 195.319 295.744 195.462 295.593 195.575C295.442 195.689 295.27 195.771 295.087 195.817C294.904 195.864 294.713 195.873 294.527 195.845C294.381 195.826 294.239 195.786 294.105 195.726Z" fill="#91B3FA"/>
<path d="M89.6027 301.735C85.9706 299.943 82.3734 297.979 78.907 295.897C78.7434 295.801 78.6003 295.675 78.486 295.524C78.3718 295.373 78.2885 295.2 78.2411 295.017C78.1937 294.834 78.1831 294.643 78.2098 294.456C78.2366 294.268 78.3002 294.088 78.397 293.925C79.5531 292.029 80.2472 293.925 90.8711 299.178C91.0421 299.26 91.1952 299.375 91.3218 299.516C91.4483 299.658 91.5457 299.822 91.6084 300.001C91.6712 300.18 91.698 300.369 91.6875 300.559C91.6769 300.748 91.629 300.933 91.5467 301.104C90.9337 302.338 89.426 301.729 89.6027 301.735ZM106.955 307.488C107.658 305.386 108.813 307.111 120.237 309.973C120.611 310.062 120.934 310.295 121.137 310.622C121.339 310.948 121.404 311.341 121.318 311.715C121.272 311.898 121.19 312.071 121.076 312.222C120.963 312.374 120.821 312.501 120.658 312.597C120.495 312.694 120.314 312.756 120.127 312.782C119.939 312.808 119.749 312.797 119.565 312.748C115.657 311.77 111.727 310.613 107.887 309.311C107.522 309.191 107.22 308.933 107.045 308.591C106.871 308.25 106.838 307.853 106.955 307.488ZM62.6774 284.598C59.5276 282.073 56.4423 279.384 53.5097 276.605C53.3714 276.477 53.2601 276.322 53.1822 276.15C53.1044 275.979 53.0615 275.793 53.0562 275.605C53.0509 275.417 53.0832 275.229 53.1513 275.053C53.2193 274.878 53.3218 274.717 53.4526 274.581C55.0082 272.989 55.2567 274.99 64.4981 282.391C64.6479 282.508 64.773 282.653 64.866 282.818C64.959 282.983 65.018 283.166 65.0396 283.354C65.0612 283.542 65.0449 283.733 64.9918 283.915C64.9386 284.097 64.8497 284.267 64.7301 284.414C64.48 284.707 64.125 284.89 63.7413 284.925C63.3576 284.959 62.9757 284.842 62.6774 284.598ZM138.556 316.131C138.281 316.006 138.051 315.798 137.899 315.537C137.746 315.276 137.679 314.974 137.706 314.672C137.725 314.485 137.782 314.303 137.873 314.137C137.964 313.971 138.087 313.826 138.235 313.708C138.383 313.591 138.553 313.504 138.735 313.453C138.917 313.402 139.107 313.387 139.295 313.411C143.23 313.848 147.225 314.128 151.167 314.238C151.551 314.247 151.918 314.406 152.187 314.681C152.456 314.956 152.606 315.325 152.606 315.71C152.604 315.899 152.563 316.085 152.487 316.258C152.411 316.431 152.302 316.587 152.164 316.717C152.027 316.847 151.865 316.948 151.688 317.014C151.511 317.08 151.322 317.11 151.134 317.102C147.109 316.99 143.033 316.705 139.013 316.258C138.854 316.24 138.698 316.197 138.553 316.131H138.556ZM170.023 316.193C169.797 316.09 169.6 315.931 169.452 315.732C169.303 315.532 169.208 315.298 169.175 315.051C169.151 314.864 169.165 314.675 169.216 314.493C169.267 314.312 169.354 314.143 169.472 313.996C169.589 313.848 169.735 313.726 169.9 313.636C170.066 313.546 170.248 313.49 170.436 313.471C174.349 313.05 178.294 312.458 182.159 311.711C182.537 311.639 182.929 311.717 183.252 311.928C183.574 312.14 183.801 312.468 183.885 312.844C183.925 313.028 183.928 313.218 183.893 313.403C183.858 313.587 183.786 313.763 183.682 313.92C183.578 314.076 183.443 314.211 183.286 314.314C183.129 314.418 182.953 314.489 182.768 314.523C178.823 315.287 174.797 315.89 170.802 316.32C170.534 316.35 170.264 316.306 170.019 316.193H170.023ZM200.623 309.456C200.446 309.375 200.286 309.26 200.154 309.118C200.021 308.975 199.919 308.807 199.852 308.625C199.786 308.448 199.758 308.26 199.767 308.072C199.776 307.884 199.822 307.7 199.904 307.53C199.986 307.36 200.101 307.209 200.242 307.084C200.384 306.96 200.549 306.865 200.728 306.806C204.441 305.55 208.145 304.122 211.737 302.563C212.091 302.411 212.49 302.403 212.85 302.541C213.21 302.678 213.502 302.95 213.666 303.298C213.746 303.469 213.791 303.653 213.799 303.842C213.806 304.03 213.775 304.217 213.708 304.394C213.642 304.57 213.54 304.73 213.41 304.867C213.279 305.003 213.123 305.111 212.95 305.185C209.284 306.776 205.505 308.233 201.72 309.515C201.359 309.639 200.965 309.617 200.619 309.456H200.623ZM228.89 296.289C228.632 296.169 228.413 295.977 228.261 295.737C228.158 295.579 228.088 295.402 228.055 295.217C228.021 295.031 228.026 294.841 228.068 294.657C228.11 294.473 228.188 294.3 228.298 294.147C228.409 293.994 228.549 293.865 228.71 293.767C232.044 291.744 235.337 289.548 238.467 287.25C238.779 287.025 239.168 286.932 239.549 286.989C239.93 287.047 240.273 287.252 240.505 287.559C240.621 287.708 240.706 287.878 240.755 288.06C240.804 288.242 240.815 288.432 240.789 288.619C240.764 288.805 240.7 288.985 240.604 289.147C240.507 289.309 240.379 289.449 240.227 289.561C237.016 291.908 233.664 294.144 230.26 296.213C230.054 296.337 229.822 296.408 229.583 296.421C229.343 296.434 229.104 296.389 228.887 296.289H228.89ZM253.028 277.017C251.429 275.416 253.455 275.262 261.064 266.496C262.303 265.067 264.532 266.95 263.291 268.379C260.696 271.37 257.934 274.287 255.086 277.048C254.807 277.312 254.436 277.457 254.051 277.451C253.666 277.445 253.299 277.289 253.028 277.017ZM272.91 253.31C270.996 252.093 272.921 251.515 278.357 241.27C279.239 239.615 281.831 240.961 280.935 242.631C279.079 246.126 277.05 249.58 274.908 252.896C274.695 253.213 274.367 253.434 273.994 253.511C273.62 253.588 273.231 253.516 272.91 253.31ZM286.828 225.759C286.497 225.61 286.233 225.343 286.09 225.009C285.947 224.676 285.934 224.301 286.054 223.959C287.387 220.304 288.575 216.561 289.582 212.838C289.633 212.656 289.72 212.486 289.838 212.338C289.955 212.19 290.101 212.066 290.267 211.974C290.432 211.882 290.615 211.824 290.803 211.803C290.991 211.782 291.182 211.798 291.364 211.851C291.734 211.951 292.05 212.193 292.243 212.524C292.436 212.855 292.491 213.249 292.396 213.62C291.367 217.42 290.156 221.239 288.797 224.969C288.731 225.146 288.629 225.308 288.5 225.446C288.37 225.584 288.214 225.695 288.042 225.773C287.869 225.85 287.682 225.893 287.493 225.899C287.304 225.905 287.115 225.873 286.938 225.805C286.901 225.791 286.87 225.776 286.835 225.759H286.828Z" fill="#91B3FA"/>
<path d="M40.0807 262.032C36.9052 258.081 35.2778 256.47 36.8057 255.387C38.3963 254.261 39.1014 256.233 42.3506 260.279C42.4704 260.425 42.5598 260.593 42.6135 260.773C42.6672 260.954 42.6841 261.144 42.6631 261.331C42.6422 261.518 42.5839 261.699 42.4916 261.864C42.3993 262.028 42.275 262.172 42.126 262.288C41.8194 262.521 41.4335 262.625 41.0511 262.577C40.6688 262.529 40.3204 262.334 40.0807 262.032Z" fill="#91B3FA"/>
<path d="M58.5287 227.073L79.3661 225.969C85.2313 233.945 92.3384 240.93 100.417 246.657C99.8131 266.614 98.3551 267.971 100.434 268.83L123.677 278.437C124.004 278.575 124.367 278.608 124.714 278.532C125.062 278.455 125.376 278.273 125.615 278.01L139.297 262.727C149.05 264.371 159.003 264.44 168.778 262.93L182.781 278.426C183.021 278.691 183.335 278.876 183.683 278.957C184.031 279.038 184.395 279.011 184.727 278.88L207.781 269.61C208.108 269.48 208.384 269.249 208.571 268.951C208.757 268.654 208.844 268.305 208.819 267.954L207.347 247.421C215.308 241.82 222.284 234.94 227.993 227.06L248.843 228.456C249.195 228.482 249.547 228.397 249.848 228.212C250.15 228.028 250.385 227.753 250.522 227.428L259.87 204.712C260.003 204.385 260.029 204.023 259.945 203.68C259.861 203.336 259.671 203.028 259.402 202.798L243.64 189.06C245.141 179.436 245.038 169.63 243.335 160.04C258.191 146.517 260.135 146.643 259.262 144.614C249.237 122.358 250.025 120.585 247.742 120.703L226.905 121.807C221.04 113.834 213.934 106.853 205.857 101.128C206.461 81.1823 207.921 79.8139 205.841 78.955C182.583 69.8064 182.13 68.1308 180.659 69.7732L166.977 85.0577C157.225 83.413 147.271 83.3441 137.497 84.8536C123.671 70.1742 123.625 68.0682 121.545 68.9033C98.8927 78.4712 97.2874 77.6049 97.4512 79.8249L98.924 100.359C90.9628 105.958 83.9867 112.838 78.2799 120.72C58.3502 119.8 56.605 118.275 55.7508 120.352C46.8996 142.992 45.1563 143.497 46.8628 144.985L62.6284 158.721C61.1277 168.345 61.231 178.151 62.934 187.741C48.1294 201.216 46.1301 201.128 47.0064 203.167C57.0339 225.414 56.246 227.192 58.5287 227.073Z" fill="#91B3FA"/>
<path d="M128.925 170.228C130.744 157.121 143.084 148.099 156.432 150.119C169.781 152.138 179.16 164.443 177.341 177.55C175.522 190.657 163.185 199.676 149.834 197.659C136.484 195.641 127.11 183.331 128.925 170.228ZM155.837 154.368C145.004 152.727 134.763 159.955 133.248 170.882C131.753 181.646 139.457 191.757 150.421 193.41C161.386 195.064 171.518 187.66 173.011 176.895C174.504 166.13 166.785 156.019 155.841 154.368H155.837Z" fill="#BDD0FB"/>
<path d="M127.855 229.418C124.571 227.907 121.42 226.123 118.435 224.084C118.012 223.801 117.702 223.377 117.561 222.888C117.421 222.399 117.458 221.876 117.666 221.411C117.718 221.299 117.78 221.192 117.85 221.089C118.185 220.622 118.691 220.305 119.259 220.207C119.826 220.109 120.409 220.239 120.882 220.567C124.322 222.912 127.995 224.895 131.843 226.486C160.911 238.498 193.975 225.793 206.729 198.139C207.055 197.434 207.368 196.717 207.666 195.992C219.739 166.68 205.126 133.12 175.366 120.812C145.646 108.527 111.596 122.073 99.54 151.305C92.3752 168.707 96.6885 181.03 95.8582 182.814C94.969 184.743 92.0494 184.304 91.7106 182.2C89.8038 170.357 91.4701 158.214 96.497 147.321C118.835 98.891 189.925 100.872 211.234 150.47C217.793 165.736 217.964 182.496 211.715 197.666C211.393 198.451 211.055 199.227 210.7 199.995C204.224 214.039 192.751 224.921 178.153 230.792C162.759 236.983 145.732 236.861 130.21 230.444C129.42 230.12 128.632 229.776 127.855 229.418Z" fill="#BDD0FB"/>
<path d="M309.296 138.401C312.866 142.608 317.098 146.207 321.826 149.054L322.061 160.691C322.085 161.978 323.192 161.482 336.032 165.87C337.221 166.253 337.089 165.135 344.088 156.227C349.59 156.676 355.128 156.226 360.485 154.895L368.893 162.964C369.828 163.86 370.253 162.725 382.438 156.757C382.616 156.666 382.76 156.522 382.852 156.345C382.944 156.168 382.978 155.966 382.95 155.769L381.308 144.239C385.519 140.671 389.12 136.443 391.97 131.719C403.095 131.264 404.12 132.031 404.511 130.823C408.528 117.58 409.472 117.212 408.465 116.476L399.148 109.487C399.598 103.99 399.149 98.4556 397.817 93.1027L405.893 84.7045C406.788 83.772 405.654 83.3453 399.678 71.1711C399.113 70.0675 398.467 70.9301 387.151 72.3004C383.581 68.0925 379.348 64.4942 374.62 61.6472L374.386 50.0101C374.36 48.7226 373.256 49.2192 360.413 44.8306C359.231 44.4499 359.392 45.5112 352.359 54.474C346.857 54.0239 341.318 54.4737 335.96 55.8057L327.553 47.7367C327.409 47.5974 327.225 47.5069 327.027 47.4778C326.829 47.4488 326.626 47.4827 326.448 47.5749L314.002 53.9443C313.825 54.0356 313.68 54.1797 313.589 54.3567C313.498 54.5338 313.464 54.7348 313.492 54.932L315.134 66.4625C310.922 70.0286 307.32 74.2575 304.471 78.9825C293.345 79.4368 292.321 78.6698 291.931 79.8782C287.914 93.1211 286.97 93.4779 287.977 94.2247L297.292 101.214C296.841 106.711 297.292 112.246 298.625 117.598C291.077 125.779 289.805 125.962 290.387 127.096L296.762 139.53C297.338 140.643 298.037 139.764 309.296 138.401Z" fill="#91B3FA"/>
<path d="M333.661 104.403C333.848 101.526 334.884 98.7691 336.639 96.4804C338.394 94.1917 340.788 92.4743 343.52 91.5452C346.252 90.6162 349.198 90.5172 351.986 91.2609C354.774 92.0046 357.278 93.5575 359.183 95.7233C361.088 97.8891 362.307 100.571 362.686 103.429C363.066 106.287 362.589 109.193 361.315 111.78C360.041 114.367 358.029 116.519 355.531 117.963C353.034 119.407 350.164 120.079 347.284 119.894C343.423 119.64 339.82 117.867 337.266 114.963C334.713 112.059 333.416 108.261 333.661 104.403ZM338 104.683C337.829 107.39 338.738 110.056 340.53 112.094C342.322 114.133 344.849 115.379 347.558 115.559C356.608 116.142 361.917 105.426 355.918 98.593C349.94 91.7932 338.593 95.584 338.002 104.683H338Z" fill="#BDD0FB"/>
<path d="M274.989 127.153C274.437 125.279 273.934 123.355 273.516 121.435C273.435 121.061 273.506 120.67 273.713 120.347C273.92 120.025 274.246 119.798 274.621 119.715C276.59 119.292 276.311 121.488 277.75 126.326C277.805 126.508 277.823 126.699 277.803 126.888C277.783 127.077 277.727 127.261 277.636 127.428C277.546 127.595 277.423 127.743 277.276 127.863C277.128 127.983 276.958 128.073 276.775 128.127C276.593 128.182 276.402 128.2 276.212 128.18C276.023 128.16 275.839 128.104 275.672 128.013C275.505 127.923 275.357 127.801 275.237 127.653C275.117 127.505 275.027 127.336 274.972 127.153H274.989Z" fill="#91B3FA"/>
<path d="M271.889 102.143C272.057 98.1639 272.532 94.2037 273.31 90.2979C273.678 88.4145 276.528 88.992 276.154 90.8644C274.08 101.236 275.7 103.756 273.275 103.651C273.085 103.643 272.898 103.598 272.726 103.518C272.553 103.437 272.398 103.324 272.269 103.184C272.141 103.044 272.041 102.88 271.976 102.701C271.91 102.523 271.881 102.333 271.889 102.143ZM280.173 73.8823C279.828 73.7142 279.563 73.4159 279.438 73.0531C279.313 72.6902 279.337 72.2925 279.505 71.9473C281.251 68.3651 283.275 64.925 285.558 61.6584C286.662 60.0895 289.032 61.7467 287.934 63.3137C285.738 66.4551 283.791 69.7637 282.112 73.2091C281.488 74.4764 279.989 73.8786 280.164 73.8823H280.173ZM298.904 49.7398C298.684 49.6379 298.492 49.4823 298.347 49.2871C298.203 49.0919 298.109 48.8635 298.076 48.6229C298.043 48.3822 298.07 48.1371 298.156 47.9099C298.243 47.6828 298.385 47.481 298.569 47.323C301.599 44.7352 304.825 42.3861 308.218 40.2969C308.38 40.1972 308.56 40.1303 308.748 40.1C308.935 40.0698 309.127 40.0768 309.313 40.1207C309.498 40.1646 309.672 40.2445 309.827 40.3558C309.981 40.4672 310.112 40.6078 310.211 40.7696C310.311 40.9314 310.378 41.1113 310.408 41.299C310.439 41.4867 310.432 41.6785 310.388 41.8635C310.344 42.0484 310.264 42.223 310.152 42.3771C310.041 42.5311 309.9 42.6618 309.738 42.7615C306.474 44.7729 303.37 47.034 300.455 49.5246C300.243 49.7062 299.983 49.823 299.707 49.8612C299.43 49.8993 299.148 49.8572 298.895 49.7398H298.904ZM325.682 35.0255C325.415 34.9028 325.192 34.7019 325.042 34.4495C324.892 34.197 324.822 33.905 324.842 33.612C324.862 33.3191 324.971 33.0392 325.154 32.8094C325.337 32.5796 325.585 32.4108 325.867 32.3254C329.679 31.1601 333.577 30.2954 337.525 29.7394C337.716 29.7067 337.912 29.7127 338.101 29.7571C338.29 29.8015 338.469 29.8833 338.625 29.9978C338.782 30.1122 338.914 30.2569 339.014 30.4233C339.114 30.5897 339.179 30.7745 339.206 30.9665C339.233 31.1586 339.221 31.3542 339.171 31.5416C339.121 31.729 339.034 31.9045 338.915 32.0576C338.796 32.2108 338.647 32.3385 338.477 32.4331C338.308 32.5278 338.121 32.5875 337.928 32.6087C334.131 33.1427 330.382 33.9742 326.715 35.0954C326.37 35.2002 325.999 35.1727 325.673 35.0182L325.682 35.0255ZM355.288 30.7657C355.309 30.5759 355.366 30.392 355.458 30.2244C355.55 30.0569 355.673 29.9091 355.822 29.7895C355.971 29.6699 356.142 29.5808 356.326 29.5274C356.509 29.474 356.702 29.4573 356.892 29.4782C360.854 29.9268 364.775 30.6825 368.62 31.7387C370.461 32.2372 369.702 35.0494 367.849 34.5326C364.151 33.5153 360.379 32.7884 356.568 32.3586C356.378 32.3382 356.194 32.2806 356.026 32.1891C355.859 32.0976 355.711 31.974 355.591 31.8254C355.471 31.6768 355.382 31.506 355.329 31.3229C355.275 31.1399 355.258 30.948 355.279 30.7584L355.288 30.7657Z" fill="#91B3FA"/>
<path d="M389.891 44.8069C385.512 41.7923 383.583 41.4815 384.564 39.7893C384.658 39.6235 384.785 39.478 384.936 39.3615C385.087 39.2451 385.26 39.1598 385.445 39.1109C385.629 39.0619 385.822 39.0501 386.011 39.0763C386.2 39.1025 386.382 39.1661 386.546 39.2633C388.235 40.2418 389.914 41.3049 391.537 42.4214C391.855 42.6394 392.072 42.9745 392.142 43.3529C392.212 43.7313 392.129 44.122 391.911 44.439C391.693 44.7561 391.357 44.9736 390.979 45.0436C390.6 45.1136 390.209 45.0305 389.891 44.8124V44.8069Z" fill="#91B3FA"/>
<path d="M421.159 95.9667C420.482 90.6769 419.429 89.0491 421.344 88.6536C421.53 88.6149 421.722 88.6132 421.909 88.6487C422.096 88.6843 422.274 88.7563 422.434 88.8606C422.593 88.965 422.73 89.0997 422.837 89.257C422.944 89.4143 423.019 89.5912 423.057 89.7775C423.455 91.6885 423.783 93.64 424.031 95.6006C424.059 95.7908 424.049 95.9847 424.001 96.1708C423.953 96.3569 423.868 96.5317 423.752 96.6848C423.635 96.8379 423.49 96.9663 423.323 97.0626C423.157 97.1588 422.973 97.221 422.782 97.2454C422.591 97.2698 422.397 97.256 422.212 97.2048C422.026 97.1536 421.853 97.0661 421.702 96.9472C421.551 96.8283 421.425 96.6806 421.331 96.5125C421.238 96.3445 421.179 96.1595 421.158 95.9685L421.159 95.9667Z" fill="#91B3FA"/>
<path d="M323.234 175.977C323.99 173.693 325.704 176.045 336.034 177.769C337.921 178.08 337.453 180.942 335.557 180.627C331.689 179.98 327.877 179.037 324.154 177.807C323.974 177.748 323.806 177.653 323.662 177.529C323.518 177.404 323.4 177.253 323.314 177.083C323.229 176.913 323.178 176.728 323.164 176.538C323.15 176.348 323.174 176.158 323.234 175.977ZM353.027 180.097C352.996 179.714 353.119 179.335 353.367 179.042C353.616 178.749 353.971 178.567 354.355 178.536C364.881 177.671 366.689 175.466 367.256 177.813C367.3 177.998 367.308 178.189 367.279 178.377C367.249 178.565 367.183 178.745 367.084 178.908C366.985 179.07 366.855 179.211 366.701 179.323C366.547 179.435 366.373 179.516 366.188 179.56C362.376 180.479 358.498 181.102 354.59 181.423C354.207 181.454 353.827 181.332 353.534 181.084C353.241 180.835 353.059 180.48 353.027 180.097ZM382.038 172.209C380.908 170.079 383.769 170.487 392.184 164.21C393.721 163.066 395.457 165.385 393.918 166.531C390.776 168.874 387.461 170.973 383.999 172.81C383.659 172.99 383.262 173.028 382.894 172.915C382.526 172.802 382.218 172.548 382.038 172.209ZM405.615 153.555C403.735 152.032 406.535 151.29 411.817 142.225C412.78 140.569 415.289 142.024 414.324 143.681C412.352 147.067 410.122 150.296 407.655 153.341C407.412 153.639 407.061 153.829 406.679 153.869C406.297 153.909 405.914 153.796 405.615 153.555ZM418.974 125.364C421.843 115.217 420.408 112.739 422.813 113.041C423.002 113.064 423.184 113.124 423.35 113.217C423.516 113.311 423.661 113.436 423.779 113.586C423.896 113.736 423.983 113.907 424.034 114.09C424.084 114.273 424.099 114.465 424.076 114.654C423.601 118.543 422.828 122.39 421.763 126.16C421.659 126.53 421.412 126.843 421.076 127.03C420.741 127.218 420.345 127.264 419.975 127.16C419.605 127.056 419.292 126.809 419.104 126.474C418.917 126.138 418.87 125.743 418.974 125.373V125.364Z" fill="#91B3FA"/>
<path d="M306.897 169.56C305.241 168.497 303.621 167.353 302.06 166.174C301.755 165.942 301.555 165.598 301.504 165.219C301.452 164.84 301.552 164.456 301.783 164.151C303.002 162.549 304.215 164.393 308.47 167.132C308.783 167.345 309 167.672 309.075 168.042C309.151 168.413 309.078 168.798 308.873 169.116C308.668 169.434 308.346 169.659 307.977 169.743C307.608 169.828 307.221 169.765 306.897 169.567V169.56Z" fill="#91B3FA"/>
<path d="M330.531 136.291C330.273 136.157 330.045 135.973 329.86 135.75C329.674 135.527 329.535 135.269 329.451 134.991C329.367 134.713 329.34 134.422 329.37 134.133C329.401 133.845 329.489 133.565 329.629 133.311C329.769 133.057 329.959 132.834 330.187 132.654C330.415 132.475 330.677 132.342 330.957 132.265C331.237 132.189 331.53 132.168 331.818 132.206C332.105 132.244 332.383 132.339 332.633 132.485C337.206 135.128 342.368 136.583 347.648 136.72C352.928 136.856 358.159 135.668 362.861 133.265C387.784 120.506 384.838 83.7628 358.165 75.1733C342.819 70.2293 326.396 77.6913 319.811 91.9715C313.184 106.355 320.677 113.839 316.087 114.898C315.809 114.963 315.521 114.972 315.24 114.925C314.958 114.879 314.688 114.777 314.446 114.626C314.204 114.476 313.994 114.278 313.828 114.046C313.662 113.814 313.543 113.552 313.479 113.274C312.013 106.95 312.295 100.347 314.294 94.1713C320.358 75.372 340.619 64.9524 359.5 71.0331C379.813 77.5773 390.177 100.521 381.068 120.271C373.723 136.201 355.247 145.072 337.451 139.337C335.044 138.566 332.725 137.545 330.531 136.291Z" fill="#BDD0FB"/>
<path d="M324.593 188.231C324.537 187.552 323.843 186.963 322.669 186.493C323.945 185.79 324.651 185.036 324.593 184.296C324.408 182.058 317.319 180.802 308.75 181.493C300.18 182.185 293.38 184.558 293.56 186.796C293.615 187.475 294.309 188.062 295.484 188.532C294.208 189.237 293.501 189.991 293.56 190.74C293.615 191.418 294.309 192.005 295.484 192.476C294.208 193.18 293.501 193.934 293.56 194.674C293.615 195.352 294.309 195.939 295.484 196.41C294.208 197.114 293.501 197.869 293.56 198.617C293.641 199.607 295.075 200.403 297.387 200.925C297.358 201.732 297.378 202.54 297.446 203.344C297.781 207.468 302.417 210.701 308.564 210.701C314.71 210.701 320.018 206.287 320.079 202.158C320.097 201.256 320.057 200.354 319.959 199.458C322.904 198.477 324.685 197.28 324.593 196.119C324.537 195.441 323.843 194.852 322.669 194.381C323.945 193.679 324.651 192.925 324.593 192.185C324.537 191.506 323.843 190.918 322.669 190.447C323.945 189.724 324.651 188.97 324.593 188.231Z" fill="url(#paint0_linear_435_12324)"/>
<path d="M304.785 201.797C302.507 201.822 300.232 201.638 297.988 201.245C297.961 201.24 297.936 201.23 297.914 201.215C297.891 201.201 297.872 201.181 297.857 201.159C297.842 201.137 297.831 201.112 297.826 201.085C297.82 201.059 297.82 201.032 297.825 201.005C297.83 200.979 297.84 200.954 297.855 200.931C297.87 200.909 297.889 200.889 297.911 200.874C297.934 200.859 297.959 200.849 297.985 200.843C298.012 200.838 298.039 200.838 298.065 200.843C301.075 201.418 305.096 201.545 309.387 201.199C312.897 200.916 316.182 200.352 318.882 199.563C318.908 199.555 318.936 199.552 318.962 199.555C318.989 199.558 319.015 199.566 319.039 199.579C319.063 199.592 319.084 199.61 319.101 199.631C319.118 199.652 319.131 199.676 319.138 199.702C319.146 199.728 319.148 199.755 319.145 199.782C319.142 199.809 319.134 199.835 319.121 199.859C319.108 199.883 319.091 199.904 319.07 199.921C319.048 199.938 319.024 199.95 318.998 199.958C316.27 200.753 312.958 201.325 309.426 201.613C307.826 201.735 306.268 201.797 304.785 201.797Z" fill="url(#paint1_linear_435_12324)"/>
<path d="M304.827 197.859C301.513 197.859 298.568 197.548 296.482 196.956C296.454 196.95 296.428 196.939 296.405 196.923C296.382 196.906 296.363 196.885 296.348 196.861C296.333 196.837 296.324 196.81 296.32 196.782C296.316 196.754 296.318 196.726 296.326 196.698C296.334 196.671 296.347 196.646 296.365 196.624C296.383 196.602 296.405 196.584 296.43 196.571C296.455 196.559 296.483 196.551 296.511 196.549C296.539 196.547 296.568 196.551 296.594 196.561C299.564 197.405 304.346 197.664 309.387 197.261C314.372 196.861 319.022 195.849 321.826 194.558C321.85 194.54 321.879 194.529 321.908 194.524C321.938 194.518 321.968 194.52 321.997 194.528C322.027 194.535 322.054 194.549 322.077 194.569C322.1 194.588 322.118 194.612 322.131 194.64C322.144 194.667 322.15 194.697 322.15 194.727C322.15 194.757 322.143 194.787 322.131 194.814C322.118 194.841 322.099 194.865 322.076 194.885C322.053 194.904 322.026 194.918 321.997 194.926C319.153 196.235 314.449 197.26 309.42 197.666C307.85 197.799 306.303 197.859 304.827 197.859Z" fill="url(#paint2_linear_435_12324)"/>
<path d="M304.785 193.929C301.215 193.929 298.091 193.561 295.989 192.871C295.937 192.854 295.894 192.817 295.869 192.768C295.844 192.72 295.84 192.663 295.857 192.611C295.874 192.559 295.911 192.516 295.96 192.491C296.009 192.467 296.065 192.462 296.117 192.479C299.043 193.443 304.004 193.767 309.387 193.327C314.372 192.926 319.022 191.915 321.826 190.624C321.851 190.606 321.879 190.595 321.908 190.59C321.938 190.584 321.969 190.586 321.998 190.593C322.027 190.601 322.054 190.615 322.077 190.635C322.1 190.654 322.118 190.678 322.131 190.706C322.144 190.733 322.15 190.763 322.15 190.793C322.15 190.823 322.144 190.853 322.131 190.88C322.118 190.907 322.099 190.931 322.076 190.95C322.053 190.97 322.026 190.984 321.997 190.992C319.153 192.301 314.449 193.326 309.42 193.732C307.826 193.861 306.266 193.929 304.785 193.929Z" fill="url(#paint3_linear_435_12324)"/>
<path d="M304.812 189.998C301.981 189.998 299.405 189.768 297.402 189.325C297.349 189.313 297.302 189.281 297.273 189.235C297.243 189.189 297.233 189.133 297.245 189.079C297.257 189.026 297.289 188.979 297.335 188.95C297.381 188.92 297.437 188.91 297.491 188.922C300.503 189.592 304.838 189.765 309.387 189.399C314.328 188.999 318.96 188.001 321.761 186.724C321.808 186.712 321.858 186.716 321.902 186.737C321.946 186.757 321.981 186.793 322.001 186.836C322.022 186.88 322.026 186.93 322.014 186.977C322.001 187.023 321.972 187.064 321.933 187.092C319.083 188.38 314.407 189.4 309.414 189.803C307.844 189.93 306.294 189.998 304.812 189.998Z" fill="url(#paint4_linear_435_12324)"/>
<path d="M287.809 168.37C286.766 164.688 285.002 161.25 282.62 158.254C277.518 151.831 269.198 138.758 268.172 120.939C266.683 95.0047 289.711 82.0212 310.71 83.7851C331.71 85.549 352.438 101.161 350.174 125.294C348.779 140.139 340.461 151.399 334.27 157.864C330.352 161.979 327.516 166.999 326.016 172.477C324.158 179.18 319.736 187.534 309.225 188.043C295.624 188.711 289.976 176.034 287.809 168.37Z" fill="url(#paint5_linear_435_12324)"/>
<path d="M312.698 182.871L320.049 135.107C320.2 134.121 320.686 133.451 321.135 133.635C321.584 133.819 321.822 134.739 321.671 135.728C321.671 135.754 321.66 135.787 321.656 135.813L313.283 183.132C313.221 183.487 313.04 183.713 312.88 183.634C312.72 183.555 312.646 183.215 312.698 182.871Z" fill="url(#paint6_linear_435_12324)"/>
<path d="M305.07 183.25L297.719 135.487C297.568 134.499 297.082 133.832 296.633 134.007C296.184 134.181 295.946 135.11 296.097 136.1C296.097 136.125 296.108 136.159 296.112 136.184L304.484 183.504C304.547 183.86 304.727 184.085 304.888 184.006C305.048 183.927 305.127 183.594 305.07 183.25Z" fill="url(#paint7_linear_435_12324)"/>
<path d="M319.995 131.007C319.89 130.858 319.736 130.751 319.559 130.705C319.382 130.659 319.195 130.677 319.031 130.757L314.938 132.666L313.517 128.62C313.474 128.506 313.408 128.403 313.322 128.316C313.236 128.23 313.134 128.163 313.02 128.119C312.799 128.023 312.55 128.009 312.32 128.079C312.089 128.15 311.891 128.301 311.763 128.505V128.518L308.396 134.651L305.266 125.921V125.907C305.179 125.677 305.011 125.488 304.793 125.375C304.541 125.236 304.248 125.191 303.966 125.246C303.683 125.302 303.429 125.455 303.249 125.679L298.543 132.151C298.497 132.214 298.465 132.287 298.448 132.363C298.432 132.44 298.431 132.519 298.447 132.596C298.462 132.672 298.494 132.745 298.539 132.809C298.584 132.873 298.642 132.927 298.709 132.968C298.862 133.069 299.046 133.113 299.228 133.093C299.411 133.074 299.581 132.991 299.708 132.859L303.852 128.242L307.582 136.545C307.648 136.689 307.765 136.804 307.91 136.867C308.076 136.947 308.265 136.966 308.444 136.92C308.623 136.874 308.779 136.766 308.885 136.615L312.486 130.843L313.841 133.762L313.852 133.79C313.863 133.81 313.874 133.83 313.887 133.85C313.992 134 314.146 134.107 314.323 134.152C314.499 134.198 314.686 134.18 314.85 134.101L319.708 131.833C319.786 131.802 319.855 131.756 319.913 131.696C319.971 131.636 320.015 131.564 320.042 131.486C320.069 131.407 320.079 131.324 320.071 131.241C320.063 131.159 320.037 131.079 319.995 131.007Z" fill="white"/>
<path d="M334.43 151.708C334.257 151.708 334.088 151.66 333.941 151.569C333.793 151.478 333.674 151.349 333.597 151.194C333.519 151.04 333.486 150.867 333.501 150.695C333.515 150.523 333.578 150.359 333.681 150.22C334.915 148.561 336.053 146.833 337.09 145.044C337.216 144.834 337.419 144.682 337.657 144.621C337.894 144.559 338.145 144.593 338.358 144.716C338.57 144.838 338.725 145.039 338.79 145.275C338.856 145.511 338.825 145.763 338.706 145.977C337.634 147.828 336.457 149.615 335.179 151.331C335.093 151.449 334.98 151.544 334.85 151.61C334.72 151.675 334.576 151.709 334.43 151.708Z" fill="white"/>
<path d="M340.473 141.34C340.346 141.339 340.221 141.313 340.104 141.263C339.877 141.164 339.699 140.98 339.608 140.749C339.517 140.519 339.522 140.263 339.62 140.036C347.387 122.165 340.688 107.164 340.62 107.015C340.563 106.903 340.529 106.781 340.52 106.655C340.511 106.53 340.528 106.404 340.569 106.285C340.611 106.166 340.676 106.057 340.76 105.964C340.845 105.871 340.948 105.796 341.062 105.743C341.177 105.691 341.301 105.662 341.426 105.659C341.552 105.655 341.678 105.678 341.795 105.724C341.912 105.77 342.018 105.84 342.108 105.928C342.197 106.017 342.268 106.123 342.315 106.239C342.61 106.879 349.427 122.151 341.332 140.779C341.259 140.946 341.139 141.088 340.986 141.188C340.834 141.288 340.655 141.34 340.473 141.34Z" fill="white"/>
<path d="M185.099 481.118C185.099 481.118 183.886 487.615 183.258 494.05C183.202 494.647 183.267 495.249 183.45 495.82C183.633 496.391 183.929 496.919 184.322 497.372C184.715 497.825 185.196 498.194 185.735 498.457C186.274 498.719 186.862 498.869 187.461 498.899C196.041 499.338 214.399 500.208 220.991 499.977C221.221 499.967 221.446 499.903 221.646 499.79C221.846 499.677 222.016 499.517 222.142 499.325C222.268 499.133 222.346 498.913 222.37 498.684C222.394 498.456 222.363 498.225 222.28 498.01C221.98 497.236 221.394 496.607 220.641 496.254L190.45 482.036L185.099 481.118Z" fill="url(#paint8_linear_435_12324)"/>
<path d="M184.188 477.295L185.038 485.086C185.038 485.086 190.327 487.607 193.983 484.86L191.864 476.165L184.188 477.295Z" fill="url(#paint9_linear_435_12324)"/>
<path d="M186.279 330.974C185.861 332.997 183.168 432.377 193.376 477.013C193.46 477.365 193.415 477.735 193.249 478.056C193.083 478.378 192.808 478.629 192.472 478.764C189.695 479.807 186.762 480.373 183.796 480.44C183.217 480.455 182.649 480.277 182.183 479.935C181.716 479.592 181.377 479.104 181.219 478.547C178.273 468.183 164.207 416.267 162.778 366.789C161.184 311.5 162.796 364.907 162.796 364.907L164.369 330.755L186.279 330.974Z" fill="url(#paint10_linear_435_12324)"/>
<path d="M150.167 484.181C150.167 484.181 148.304 487.449 146.448 496.16C146.368 496.531 146.366 496.914 146.444 497.286C146.521 497.657 146.676 498.008 146.897 498.316C147.119 498.623 147.403 498.881 147.731 499.072C148.059 499.263 148.424 499.384 148.801 499.425C151.634 499.73 155.993 500.131 159.491 500.14C159.872 500.143 160.248 500.064 160.596 499.911C160.944 499.758 161.256 499.533 161.511 499.251C161.766 498.969 161.959 498.636 162.077 498.275C162.194 497.914 162.234 497.531 162.194 497.153C161.836 493.964 160.68 488.726 156.993 484.617L150.167 484.181Z" fill="url(#paint11_linear_435_12324)"/>
<path d="M148.648 474.155L150.696 485.947C150.696 485.947 152.816 487.552 157.05 486.443L156.141 473.769L148.648 474.155Z" fill="url(#paint12_linear_435_12324)"/>
<path d="M144.162 333.622C134.957 385.98 144.81 463.25 148.236 478.387C148.337 478.841 148.57 479.254 148.906 479.576C149.242 479.898 149.665 480.113 150.123 480.195C151.713 480.473 154.333 480.714 156.934 479.987C157.37 479.865 157.756 479.608 158.039 479.255C158.321 478.901 158.484 478.467 158.506 478.016C159.103 465.808 158.956 390.833 167.343 361.287C167.768 359.791 168.698 358.488 169.975 357.599L185.807 346.578L187.186 328.531L144.162 333.622Z" fill="url(#paint13_linear_435_12324)"/>
<path d="M200.528 234.787C174.47 234.108 145.643 241.101 145.643 241.101C137.441 286.318 143.353 338.62 143.353 338.62C163.479 344.097 186.321 335.797 186.321 335.797C189.856 316.898 206.019 263.77 206.019 263.77C218.768 262.313 229.294 258.742 237.979 253.97C231.463 246.277 228.449 236.536 227.155 230.784C217.904 233.556 208.565 234.996 200.528 234.787Z" fill="url(#paint14_linear_435_12324)"/>
<path d="M277.881 197.171C275.35 194.057 272.095 195.488 272.095 195.488C268.106 211.637 247.871 224.571 227.149 230.79C228.438 236.541 231.457 246.282 237.974 253.976C272.443 235.037 277.881 197.171 277.881 197.171Z" fill="url(#paint15_linear_435_12324)"/>
<path d="M277.25 197.946C277.509 198.799 274.394 200.065 272.601 196.568C272.553 194.898 271.607 187.74 272.618 186.395C277.999 179.209 288.387 170.235 288.387 170.235C290.11 171.968 288.661 173.64 288.661 173.64L283.614 178.79C284.641 180.686 285.9 182.284 286.476 184.58C286.9 186.328 286.632 188.173 285.729 189.73C284.836 191.3 283.621 193.34 282.474 194.935C280.304 197.951 277.25 197.946 277.25 197.946Z" fill="url(#paint16_linear_435_12324)"/>
<path d="M281.395 182.146L276.806 185.961L275.333 189.787L279.35 194.324C279.35 194.324 280.788 186.719 281.819 185.08C282.849 183.441 282.336 182.641 281.395 182.146Z" fill="url(#paint17_linear_435_12324)"/>
<path d="M155.398 266.411L145.641 241.101C145.641 241.101 121.138 257.395 116.934 278.311C121.536 278.694 129.89 279.967 138.043 284.181C139.94 274.304 155.398 266.411 155.398 266.411Z" fill="url(#paint18_linear_435_12324)"/>
<path d="M176.446 290.34C176.446 290.34 148.967 305.513 139.871 292.246C137.982 289.487 137.549 286.769 138.046 284.181C129.893 279.969 121.533 278.694 116.937 278.312C115.67 284.617 116.244 291.341 119.895 298.167C135.767 327.845 179.999 297.107 179.999 297.107L176.446 290.34Z" fill="url(#paint19_linear_435_12324)"/>
<path d="M174.329 213.396L165.808 237.277C165.738 237.468 165.739 237.678 165.809 237.869C165.879 238.06 166.015 238.22 166.192 238.32C168.44 239.591 176.549 243.286 186.424 237.154C186.934 236.842 187.368 236.422 187.697 235.923C188.026 235.424 188.24 234.859 188.326 234.268L191.209 213.556L174.329 213.396Z" fill="url(#paint20_linear_435_12324)"/>
<path d="M192.585 191.378C192.585 191.378 201.529 208.592 200.295 215.5C199.062 222.408 187.777 221.801 177.978 216.088L171.268 197.539L192.585 191.378Z" fill="url(#paint21_linear_435_12324)"/>
<path d="M178.501 207.011C178.596 206.971 178.68 206.911 178.749 206.835C178.818 206.759 178.869 206.668 178.9 206.57C178.93 206.472 178.938 206.369 178.925 206.267C178.911 206.165 178.875 206.068 178.82 205.981C178.1 204.861 176.754 202.575 176.338 200.583C176.338 200.583 174.711 199.52 180.528 198.192C186.345 196.864 195.02 194.788 196.887 189.869C198.705 185.074 194.16 172.928 186.635 182.499C186.568 182.585 186.484 182.654 186.387 182.702C186.29 182.749 186.183 182.774 186.075 182.774C185.967 182.774 185.86 182.749 185.763 182.702C185.666 182.654 185.581 182.585 185.515 182.499C184.311 180.903 181.138 177.583 176.679 179.534C172.498 181.361 172.001 184.405 172.043 185.941C172.047 186.046 172.026 186.151 171.983 186.248C171.94 186.345 171.876 186.43 171.796 186.499C171.715 186.567 171.62 186.617 171.517 186.643C171.415 186.67 171.308 186.673 171.204 186.652C169.103 186.231 164.056 185.838 161.648 190.993C159.665 195.238 160.911 197.664 162.044 198.856C162.128 198.943 162.188 199.051 162.219 199.169C162.249 199.286 162.249 199.41 162.217 199.527C162.186 199.644 162.124 199.751 162.039 199.838C161.954 199.924 161.847 199.987 161.731 200.02C160.343 200.431 158.546 201.586 158.693 204.826C158.897 209.305 163.91 208.957 165.339 208.768C165.454 208.752 165.571 208.764 165.68 208.804C165.789 208.844 165.887 208.91 165.965 208.996C167.174 210.359 172.629 216.153 178.586 216.905C178.705 216.919 178.825 216.902 178.936 216.857C179.047 216.811 179.145 216.739 179.22 216.646C179.296 216.553 179.346 216.443 179.368 216.325C179.389 216.207 179.381 216.086 179.343 215.972L176.833 208.452C176.777 208.283 176.787 208.1 176.859 207.938C176.932 207.776 177.062 207.647 177.226 207.576L178.501 207.011Z" fill="url(#paint22_linear_435_12324)"/>
<path d="M179.528 208.086C179.528 208.086 173.085 203.58 172.577 207.317C172.069 211.054 178.365 212.794 181.505 211.43L179.528 208.086Z" fill="url(#paint23_linear_435_12324)"/>
<path d="M170.83 314.319L185.798 262.083C185.879 261.793 186.045 261.532 186.275 261.336C186.504 261.139 186.787 261.015 187.087 260.98C189.801 260.665 197.659 259.777 206.733 259.01C217.663 258.09 230.356 257.338 237.941 257.975C238.191 257.994 238.432 258.074 238.643 258.209C238.855 258.343 239.03 258.528 239.154 258.746C239.277 258.964 239.345 259.209 239.351 259.459C239.358 259.709 239.303 259.958 239.191 260.182C234.877 268.904 217.131 304.367 208.252 315.989C208.107 316.179 207.92 316.332 207.706 316.437C207.491 316.542 207.256 316.596 207.017 316.594L172.286 316.271C172.05 316.269 171.818 316.213 171.607 316.106C171.397 315.999 171.214 315.846 171.072 315.657C170.931 315.468 170.836 315.248 170.794 315.016C170.752 314.784 170.764 314.546 170.83 314.319Z" fill="url(#paint24_linear_435_12324)"/>
<path d="M174.445 301.7C174.445 301.7 172.36 293.132 173.201 290.094C174.042 287.055 175.673 283.147 181.104 284.024C186.535 284.902 192.945 287.179 192.945 287.179C192.945 287.179 192.621 291.139 188.493 289.86L191.052 291.839C191.052 291.839 190.684 295.01 187.199 293.311L189.581 295.936C189.581 295.936 188.083 298.538 185.517 296.87C182.95 295.202 181.723 302.732 174.445 301.7Z" fill="url(#paint25_linear_435_12324)"/>
<path d="M205.735 274.605C205.735 275.474 205.993 276.323 206.476 277.045C206.959 277.767 207.645 278.329 208.448 278.662C209.251 278.994 210.135 279.081 210.987 278.911C211.839 278.742 212.622 278.324 213.237 277.71C213.851 277.096 214.27 276.314 214.439 275.462C214.609 274.61 214.522 273.728 214.189 272.925C213.857 272.123 213.294 271.437 212.571 270.955C211.848 270.473 210.999 270.215 210.13 270.215C208.964 270.215 207.846 270.678 207.022 271.501C206.198 272.324 205.735 273.441 205.735 274.605Z" fill="#91B3FA"/>
<path d="M187.492 277.508L186.373 277.177L189.42 266.847C189.657 266.028 190.112 265.289 190.737 264.708C191.361 264.127 192.132 263.727 192.967 263.55C202.627 261.526 228.07 261.125 229.149 261.107L229.167 262.275C228.904 262.275 202.757 262.702 193.205 264.692C192.577 264.826 191.997 265.128 191.528 265.566C191.059 266.004 190.718 266.562 190.541 267.178L187.492 277.508Z" fill="#91B3FA"/>
<path d="M10.3314 423.676C8.73535 426.036 2.39339 479.448 1.40114 499.177C1.38592 499.493 1.43514 499.808 1.54583 500.105C1.65651 500.401 1.82634 500.672 2.045 500.901C2.26366 501.13 2.52659 501.312 2.81781 501.436C3.10903 501.56 3.42248 501.623 3.7391 501.623C4.29719 501.623 4.83693 501.424 5.26092 501.061C5.68491 500.699 5.96523 500.197 6.05129 499.646L17.6491 425.375L10.3314 423.676Z" fill="#7D97F4"/>
<path d="M61.3207 423.676C62.9168 426.036 69.2587 479.448 70.251 499.177C70.2665 499.493 70.2174 499.809 70.1068 500.105C69.9962 500.402 69.8264 500.672 69.6077 500.901C69.389 501.13 69.126 501.312 68.8346 501.436C68.5433 501.56 68.2297 501.624 67.913 501.623C67.3551 501.623 66.8156 501.424 66.392 501.061C65.9683 500.698 65.6883 500.196 65.6027 499.646L54.0049 425.375L61.3207 423.676Z" fill="#7D97F4"/>
<path d="M0.738589 419.508V420.089C0.699929 424.281 4.31365 427.718 8.83863 427.794L62.4553 428.714C66.9141 428.789 70.6309 425.57 70.8481 421.445L70.8757 420.911C71.1021 416.609 67.4442 412.984 62.7941 412.901L9.15342 411.939C4.55665 411.851 0.777248 415.255 0.738589 419.508Z" fill="#7D97F4"/>
<path d="M113.686 497.236C104.153 497.236 99.9377 496.419 98.0508 495.675C98.2354 496.47 98.6842 497.179 99.3241 497.687C99.9639 498.195 100.757 498.472 101.574 498.472H135.293C135.545 498.472 135.793 498.414 136.019 498.302C136.245 498.19 136.442 498.028 136.595 497.828C136.748 497.628 136.853 497.395 136.901 497.148C136.949 496.901 136.94 496.646 136.874 496.403C133.03 496.712 124.866 497.236 113.686 497.236Z" fill="#91B3FA"/>
<path d="M136.867 496.403C136.813 496.196 136.719 496.002 136.59 495.831C134.013 492.553 128.859 487.409 121.843 487.508C111.561 487.652 107.977 488.766 99.9856 487.571L98.1005 493.811C97.9178 494.417 97.8981 495.059 98.0434 495.675C99.9304 496.42 104.146 497.236 113.678 497.236C124.866 497.236 133.03 496.712 136.867 496.403Z" fill="url(#paint26_linear_435_12324)"/>
<path d="M102.307 480.843L99.9932 488.698C99.9932 488.698 105.12 491.029 109.629 489.158L110.514 482.353L102.307 480.843Z" fill="url(#paint27_linear_435_12324)"/>
<path d="M172.194 492.285C164.764 498.25 160.964 500.254 159.031 500.858C159.674 501.359 160.467 501.629 161.283 501.623C162.098 501.617 162.888 501.336 163.523 500.825L189.808 479.723C190.004 479.566 190.162 479.366 190.268 479.139C190.374 478.911 190.427 478.663 190.421 478.412C190.416 478.161 190.352 477.915 190.236 477.692C190.12 477.47 189.954 477.277 189.751 477.129C186.94 479.774 180.909 485.288 172.194 492.285Z" fill="#91B3FA"/>
<path d="M189.751 477.129C189.58 477 189.384 476.908 189.176 476.857C185.126 475.923 177.897 475.159 172.488 479.627C164.572 486.175 162.464 489.281 155.489 493.353L157.914 499.377C158.149 499.961 158.534 500.471 159.031 500.858C160.966 500.255 164.764 498.25 172.194 492.285C180.909 485.288 186.939 479.774 189.751 477.129Z" fill="url(#paint28_linear_435_12324)"/>
<path d="M52.8118 391.266C52.8118 391.266 109.88 395.921 121.581 401.428C133.282 406.935 112.029 484.1 112.029 484.1C112.029 484.1 108.842 485.632 101.751 483.43C101.751 483.43 109.022 426.484 103.61 414.135L41.8252 404.038L52.8118 391.266Z" fill="url(#paint29_linear_435_12324)"/>
<path d="M149.819 482.514C150.35 482.996 155.489 493.353 155.489 493.353C155.489 493.353 161.211 492.117 162.378 488.499L157.224 479.15L149.819 482.514Z" fill="url(#paint30_linear_435_12324)"/>
<path d="M18.4423 390.789C18.4423 390.789 16.583 395.261 16.6585 401.202C16.7634 409.418 23.3742 416.085 31.5883 416.493L99.0469 419.567C99.7397 419.599 100.404 419.852 100.942 420.289C101.48 420.727 101.863 421.325 102.035 421.996C103.62 428.123 111.368 446.935 149.243 484.475C149.734 484.96 150.374 485.264 151.06 485.339C151.746 485.414 152.437 485.255 153.021 484.887L158.413 481.485C158.685 481.313 158.881 481.041 158.957 480.728C159.033 480.415 158.985 480.085 158.822 479.807L119.544 412.795C117.481 409.393 114.165 406.935 110.308 405.951L52.8123 391.266L18.4423 390.789Z" fill="url(#paint31_linear_435_12324)"/>
<path d="M84.9229 286.108C84.9229 286.108 77.6955 298.875 70.3281 305.053L85.5562 313.543C85.5562 313.543 88.9877 300.028 96.8281 296.07L84.9229 286.108Z" fill="url(#paint32_linear_435_12324)"/>
<path d="M17.2158 391.266C17.2158 391.266 35.428 395.7 52.8118 391.266C52.8118 391.266 77.134 358.598 86.5448 349.698C86.5448 349.698 101.556 373.364 134.961 376.717L136.826 372.556C136.826 372.556 110.226 360.307 102.032 341.484C93.8385 322.66 90.5653 314.641 83.1115 309.736C78.4724 306.677 75.6944 304.586 74.2585 303.447C73.877 303.142 73.411 302.96 72.9233 302.928C72.4355 302.895 71.9494 303.012 71.5303 303.263C63.629 308.08 26.4296 333.536 17.2158 391.266Z" fill="url(#paint33_linear_435_12324)"/>
<path d="M85.5586 349.246C85.3805 349.245 85.205 349.203 85.0455 349.124C84.886 349.045 84.7466 348.931 84.6381 348.789C78.8392 341.234 75.6176 332.905 75.474 332.556C75.3743 332.269 75.3901 331.955 75.5179 331.68C75.6458 331.405 75.8757 331.191 76.1591 331.082C76.4425 330.973 76.7571 330.979 77.0364 331.098C77.3157 331.217 77.5377 331.44 77.6555 331.719C77.6868 331.802 80.9047 340.09 86.4919 347.368C86.6241 347.54 86.7055 347.746 86.727 347.962C86.7485 348.178 86.7092 348.396 86.6136 348.591C86.5179 348.786 86.3698 348.951 86.1857 349.067C86.0016 349.182 85.7889 349.244 85.5714 349.246H85.5586Z" fill="url(#paint34_linear_435_12324)"/>
<path d="M132.957 370.392L136.718 369.389L148.132 366.748C148.812 366.591 149.517 366.569 150.206 366.686C150.895 366.802 151.554 367.053 152.145 367.425L161.963 373.596L134.851 373.55L132.957 370.392Z" fill="url(#paint35_linear_435_12324)"/>
<path d="M96.396 266.967C96.396 266.967 103.419 278.63 104.638 285.076C105.856 291.523 107.813 295.56 100.47 297.85C93.1265 300.14 86.2949 297.241 82.0166 291.229C82.0166 291.229 75.3285 281.968 75.9949 277.727C76.6613 273.485 96.396 266.967 96.396 266.967Z" fill="url(#paint36_linear_435_12324)"/>
<path d="M83.9734 286.233L84.9233 286.108C84.9233 286.108 79.9528 278.6 83.2039 276.739C86.4549 274.878 99.7169 270.301 102.02 265.089C104.24 260.058 100.915 254.375 96.9169 253.191C96.7929 253.157 96.6609 253.172 96.5473 253.232C96.4337 253.291 96.3467 253.392 96.3038 253.512L96.0682 254.145C96.0329 254.242 95.9695 254.325 95.8862 254.385C95.8028 254.445 95.7034 254.479 95.6008 254.482C95.4981 254.485 95.3969 254.457 95.3103 254.402C95.2236 254.347 95.1555 254.267 95.1146 254.173C95.076 254.082 95.0119 254.005 94.9302 253.949C94.8484 253.894 94.7525 253.864 94.6539 253.862C94.5553 253.86 94.4582 253.887 94.3744 253.938C94.2905 253.99 94.2235 254.065 94.1813 254.154C93.4707 255.716 91.3444 258.385 84.9767 260.452C75.9286 263.382 70.2917 267.94 70.9857 274.363C70.9962 274.454 70.9819 274.547 70.9443 274.631C70.9068 274.715 70.8472 274.788 70.772 274.841C70.6968 274.895 70.6086 274.927 70.5167 274.934C70.4247 274.942 70.3324 274.925 70.2493 274.885C69.513 274.559 68.3882 274.517 67.0867 275.93C64.8223 278.405 66.597 283.817 72.7806 287.648C72.8502 287.688 72.9091 287.745 72.9527 287.812C72.9963 287.88 73.0232 287.957 73.0313 288.037C73.0393 288.117 73.0283 288.198 72.9992 288.273C72.97 288.348 72.9235 288.415 72.8635 288.468C71.943 289.259 70.6378 291.025 74.8222 292.597C79.1023 294.207 81.4366 293.662 82.3 293.316C82.4123 293.272 82.5056 293.19 82.5634 293.084C82.6213 292.978 82.6401 292.855 82.6166 292.737L81.5121 287.109C81.4987 287.04 81.4995 286.969 81.5146 286.9C81.5296 286.832 81.5585 286.767 81.5996 286.71C81.6406 286.653 81.6929 286.605 81.7532 286.569C81.8135 286.533 81.8805 286.509 81.9502 286.5L83.9734 286.233Z" fill="url(#paint37_linear_435_12324)"/>
<path d="M84.3617 287.39C84.3617 287.39 81.2708 279.755 78.0087 282.441C74.7466 285.126 81.0167 291.054 83.8996 290.975L84.3617 287.39Z" fill="url(#paint38_linear_435_12324)"/>
<path d="M122.482 378.909H122.616L180.535 378.851C180.881 378.86 181.225 378.8 181.547 378.674C181.869 378.548 182.162 378.359 182.41 378.118C182.657 377.877 182.854 377.589 182.989 377.271C183.123 376.953 183.192 376.611 183.192 376.266C183.192 375.92 183.123 375.578 182.989 375.26C182.854 374.942 182.657 374.654 182.41 374.413C182.162 374.172 181.869 373.983 181.547 373.857C181.225 373.731 180.881 373.671 180.535 373.68L122.614 373.739C121.933 373.73 121.275 373.989 120.784 374.461C120.294 374.933 120.009 375.579 119.992 376.26C119.975 376.94 120.228 377.6 120.695 378.095C121.162 378.591 121.806 378.882 122.487 378.906L122.482 378.909Z" fill="url(#paint39_linear_435_12324)"/>
<path d="M202.967 322.243C202.945 322.283 202.927 322.322 202.908 322.362L178.538 374.846C178.385 375.156 178.295 375.493 178.273 375.837C178.252 376.182 178.3 376.527 178.415 376.853C178.53 377.179 178.708 377.478 178.941 377.734C179.173 377.989 179.454 378.196 179.768 378.341C180.081 378.487 180.421 378.568 180.766 378.58C181.111 378.592 181.456 378.535 181.778 378.412C182.101 378.289 182.396 378.103 182.646 377.864C182.896 377.625 183.095 377.339 183.232 377.022L207.602 324.525C207.879 323.915 207.908 323.221 207.683 322.589C207.457 321.958 206.995 321.439 206.394 321.141C205.793 320.843 205.1 320.791 204.46 320.994C203.821 321.197 203.286 321.64 202.967 322.23V322.243Z" fill="url(#paint40_linear_435_12324)"/>
<path d="M354.636 431.667H348.522V497.718H354.636V431.667Z" fill="#7D97F4"/>
<path d="M378.349 498.998H324.808C324.808 498.476 324.911 497.959 325.11 497.477C325.31 496.995 325.603 496.557 325.973 496.188C326.342 495.819 326.781 495.526 327.263 495.326C327.746 495.126 328.263 495.023 328.786 495.023H374.371C374.893 495.023 375.411 495.126 375.893 495.326C376.376 495.525 376.815 495.818 377.184 496.187C377.554 496.556 377.847 496.994 378.047 497.477C378.246 497.959 378.349 498.476 378.349 498.998Z" fill="#7D97F4"/>
<path d="M379.722 416.869H325.551C321.921 416.869 318.978 419.809 318.978 423.437V429.376C318.978 433.003 321.921 435.944 325.551 435.944H379.722C383.353 435.944 386.296 433.003 386.296 429.376V423.437C386.296 419.809 383.353 416.869 379.722 416.869Z" fill="#7D97F4"/>
<path d="M306.449 387.628C306.449 387.628 297.366 389.035 287.152 395.855C286.362 396.377 285.734 397.108 285.337 397.967C284.94 398.826 284.79 399.779 284.905 400.718C286.129 410.396 291.164 441.721 307.732 472.318C308.599 473.936 308.86 475.81 308.468 477.604L305.587 490.997L300.249 496.002H314.009L323.177 471.225L319.258 469.987C317.777 469.519 316.48 468.598 315.551 467.354C314.622 466.109 314.108 464.605 314.081 463.053L313.623 436.481C314.015 424.641 306.357 416.473 306.357 416.473L328.332 415.406L306.449 387.628Z" fill="url(#paint41_linear_435_12324)"/>
<path d="M294.88 498.419C293.628 500.058 308.368 502.219 315.815 498.636C315.815 498.636 326.138 480.69 326.138 471.449C326.138 471.449 325.319 469.566 319.257 469.993C319.257 469.993 315.791 491.242 312.131 493.622C308.471 496.002 301.892 493.863 301.892 493.863C301.892 493.863 296.73 496 294.88 498.419Z" fill="url(#paint42_linear_435_12324)"/>
<path d="M325.561 416.869C325.443 416.666 301.901 414.04 301.901 414.04C301.901 414.04 302.671 421.193 300.263 431.037C297.855 440.881 263.288 483.537 263.288 483.537L266.913 495.018C255.707 498.917 244.684 499.541 233.837 497.004L256.296 483.537C256.296 483.537 277.318 411.965 290.195 399.195L313.779 391.032L325.561 416.869Z" fill="url(#paint43_linear_435_12324)"/>
<path d="M378.349 375.214C378.349 375.214 391.915 395.373 393.026 404.568C394.138 413.762 389.312 417.498 375.079 418.114C360.847 418.73 322.853 418.721 322.853 418.721L290.425 391.032C290.425 391.032 314.057 382.608 320.2 380.226C326.343 377.845 378.349 375.214 378.349 375.214Z" fill="url(#paint44_linear_435_12324)"/>
<path d="M265.534 491.152C265.534 491.152 269.437 494.928 266.801 499.129C266.801 499.129 235.89 504.603 227.497 502.119C227.497 502.119 229.24 498.145 238.69 493.622L237.994 494.157C237.802 494.303 237.661 494.507 237.594 494.739C237.526 494.971 237.535 495.218 237.618 495.444C237.702 495.671 237.856 495.864 238.057 495.997C238.259 496.13 238.498 496.194 238.74 496.18C244.966 495.825 257.854 494.685 265.534 491.152Z" fill="url(#paint45_linear_435_12324)"/>
<path d="M319.594 247.384C347.322 242.674 360.376 265.267 359.42 270.007C359.393 270.152 359.404 270.302 359.451 270.442C359.498 270.582 359.579 270.708 359.689 270.808C359.798 270.907 359.93 270.978 360.074 271.012C360.218 271.047 360.368 271.044 360.51 271.004C363.693 270.147 370.725 269.067 375.085 274.526C378.932 279.343 376.057 283.892 373.711 286.388C373.587 286.518 373.505 286.683 373.479 286.862C373.452 287.04 373.48 287.222 373.561 287.383C373.642 287.544 373.77 287.676 373.929 287.761C374.088 287.847 374.269 287.881 374.448 287.859C380.3 287.124 393.017 286.94 395.097 298.847C397.038 309.947 389.306 313.076 384.72 313.959C384.549 313.993 384.392 314.078 384.27 314.202C384.148 314.326 384.065 314.484 384.034 314.656C384.003 314.827 384.024 315.004 384.094 315.163C384.165 315.323 384.281 315.457 384.429 315.55C386.718 316.999 389.368 319.997 388.295 325.91C386.616 335.179 368.428 334.421 366.304 334.299C366.17 334.292 366.04 334.253 365.924 334.185L336.79 317.604C336.678 317.54 336.581 317.453 336.507 317.347C336.433 317.241 336.383 317.121 336.361 316.994L330.477 283.066C330.454 282.931 330.463 282.792 330.503 282.66C330.543 282.529 330.614 282.409 330.709 282.31L311.717 255.523C304.822 254.509 319.266 247.445 319.594 247.384Z" fill="url(#paint46_linear_435_12324)"/>
<path d="M341.667 372.555C341.667 372.555 325.872 357.526 318.104 347.574C316.034 344.92 314.628 341.811 314.004 338.505C313.38 335.2 313.555 331.793 314.516 328.568C318.065 316.613 324.374 304.244 324.95 302.318C325.832 299.364 343.543 299.487 343.543 299.487C343.543 299.487 378.396 322.087 392.088 360.368L376.711 365.15C376.711 365.15 367.611 349.897 358.62 340.198C358.62 340.198 374.178 360.732 374.725 369.139L341.667 372.555Z" fill="url(#paint47_linear_435_12324)"/>
<path d="M322.809 285.825C322.993 286.438 327.617 301.75 327.978 302.066C328.339 302.382 338.116 302.91 342.718 299.769L331.304 277.462L322.809 285.825Z" fill="url(#paint48_linear_435_12324)"/>
<path d="M304.278 266.145C304.278 266.145 302.043 274.916 308.225 286.713C314.407 298.511 321.403 298.498 325.228 294.722C329.053 290.946 333.768 284.538 332.649 273.134C331.529 261.73 307.504 254.986 304.278 266.145Z" fill="url(#paint49_linear_435_12324)"/>
<path d="M324.099 273.75C324.099 273.75 313.844 258.087 304.227 270.416L304.053 274.898C304.053 274.898 292.791 273.563 294.761 263.244C296.73 252.926 306.467 246.477 319.002 250.947C331.537 255.416 338.72 260 339.528 268.972C340.336 277.944 333.19 275.979 333.19 275.979C333.19 275.979 330.859 269.66 327.545 269.003C324.232 268.346 325.091 273.274 325.091 273.274L324.099 273.75Z" fill="url(#paint50_linear_435_12324)"/>
<path d="M326.724 273.54C326.724 273.54 321.406 265.519 326.855 264.324C332.304 263.128 331.457 272.139 330.872 275.472L326.724 273.54Z" fill="url(#paint51_linear_435_12324)"/>
<path d="M309.487 373.669L321.085 362.494L337.14 369.27C337.14 369.27 353.121 371.744 362.266 369.27L371.412 366.796L392.08 360.368L395.327 369.533C395.727 370.666 395.745 371.898 395.379 373.042C395.014 374.186 394.285 375.18 393.302 375.873C391.515 377.144 389.418 378.538 388.083 379.123C385.361 380.313 320.988 378.299 320.988 378.299L309.487 373.669Z" fill="url(#paint52_linear_435_12324)"/>
<path d="M353.407 378.939H353.252L285.932 378.865C285.132 378.865 284.366 378.548 283.801 377.983C283.235 377.419 282.918 376.653 282.918 375.854C282.918 375.056 283.235 374.29 283.801 373.725C284.366 373.161 285.132 372.844 285.932 372.844L353.252 372.917C354.038 372.917 354.794 373.224 355.357 373.773C355.919 374.321 356.245 375.068 356.265 375.853C356.284 376.639 355.996 377.401 355.461 377.977C354.926 378.552 354.187 378.896 353.401 378.935L353.407 378.939Z" fill="url(#paint53_linear_435_12324)"/>
<path d="M225.415 317.871H281.48C283.506 317.871 285.49 318.447 287.202 319.53C288.913 320.614 290.28 322.161 291.145 323.992L317.063 378.902H247.388C246.086 378.902 244.813 378.511 243.736 377.779C242.659 377.048 241.827 376.009 241.348 374.799L221.249 323.988C220.981 323.31 220.882 322.576 220.963 321.851C221.043 321.125 221.3 320.431 221.711 319.828C222.122 319.224 222.674 318.731 223.32 318.39C223.965 318.049 224.685 317.87 225.415 317.871Z" fill="url(#paint54_linear_435_12324)"/>
<path d="M264.912 346.025C266.127 349.795 265.229 353.457 262.907 354.204C260.586 354.951 257.718 352.499 256.503 348.729C255.288 344.958 256.184 341.294 258.508 340.547C260.831 339.801 263.706 342.253 264.912 346.025Z" fill="#7D97F4"/>
<path d="M430.156 490.668C430.636 493.506 430.965 496.368 431.141 499.241C431.199 500.195 430.884 501.134 430.263 501.861C429.642 502.588 428.763 503.046 427.811 503.138C420.921 503.806 405.236 505.038 395.227 503.594C394.912 503.551 394.616 503.42 394.373 503.216C394.13 503.011 393.95 502.742 393.854 502.44C393.757 502.138 393.749 501.814 393.829 501.507C393.909 501.2 394.075 500.922 394.306 500.705C398.436 496.861 408.41 489.384 424.823 487.749L430.156 490.668Z" fill="url(#paint55_linear_435_12324)"/>
<path d="M433.582 481.832L430.097 490.363C429.867 490.933 429.458 491.414 428.931 491.732C428.404 492.05 427.788 492.19 427.176 492.129C426.212 492.033 425.259 491.848 424.33 491.577C423.385 491.288 422.594 490.637 422.128 489.767C421.662 488.897 421.56 487.878 421.844 486.933L424.473 478.145L433.582 481.832Z" fill="url(#paint56_linear_435_12324)"/>
<path d="M493.143 497.462C493.143 497.462 486.168 503.295 483.449 510.775C482.701 512.833 484.281 515.006 486.473 515.006H500.832C501.326 515.007 501.815 514.9 502.263 514.693C502.711 514.485 503.109 514.183 503.428 513.806C503.747 513.429 503.979 512.987 504.109 512.511C504.239 512.034 504.263 511.536 504.179 511.049C503.261 505.879 500.632 497.484 493.143 497.462Z" fill="url(#paint57_linear_435_12324)"/>
<path d="M501.786 489.873C501.786 489.873 500.376 496.105 499.294 500.223C499.247 500.399 499.163 500.564 499.049 500.706C498.935 500.849 498.792 500.966 498.63 501.05C498.468 501.135 498.29 501.185 498.108 501.197C497.925 501.209 497.743 501.183 497.571 501.121C495.398 500.344 493.629 500 492.344 500.173C492.203 500.188 492.059 500.172 491.924 500.128C491.789 500.084 491.664 500.011 491.558 499.916C491.453 499.82 491.368 499.704 491.31 499.573C491.253 499.443 491.223 499.302 491.223 499.16L491.089 488.81L501.786 489.873Z" fill="url(#paint58_linear_435_12324)"/>
<path d="M464.682 349.648L422.249 478.987C422.249 478.987 430.388 484.312 434.267 484.091L484.667 380.146C484.667 380.146 493.487 444.188 489.218 490.17L503.654 491.273C503.654 491.273 527.128 373.767 509.348 333.521L464.682 349.648Z" fill="url(#paint59_linear_435_12324)"/>
<path d="M484.396 379.031H484.447C484.555 379.017 484.653 378.961 484.719 378.875C484.786 378.789 484.816 378.68 484.802 378.573L483.157 365.514C483.15 365.46 483.133 365.409 483.106 365.362C483.08 365.315 483.044 365.274 483.001 365.241C482.959 365.207 482.91 365.183 482.858 365.169C482.806 365.154 482.752 365.15 482.698 365.157C482.645 365.164 482.593 365.181 482.546 365.207C482.499 365.234 482.458 365.27 482.425 365.312C482.391 365.355 482.367 365.403 482.353 365.455C482.338 365.507 482.334 365.561 482.341 365.615L483.998 378.674C484.011 378.771 484.058 378.86 484.131 378.926C484.204 378.991 484.298 379.028 484.396 379.031Z" fill="url(#paint60_linear_435_12324)"/>
<path d="M456.728 235.839C456.728 235.839 491.107 238.888 486.244 263.362C486.244 263.362 505.247 299.093 514.132 341.186C514.2 341.511 514.201 341.847 514.136 342.173C514.072 342.499 513.941 342.809 513.754 343.084C513.566 343.359 513.325 343.593 513.045 343.772C512.765 343.952 512.451 344.073 512.123 344.128L454.871 353.923C454.11 354.051 453.328 353.89 452.681 353.471C452.033 353.052 451.566 352.405 451.373 351.658L437.693 298.838L432.354 323.396L415.418 318.982L429.676 246.815C429.676 246.815 431.666 236.291 456.728 235.839Z" fill="url(#paint61_linear_435_12324)"/>
<path d="M437.395 296.473C437.426 296.476 437.456 296.476 437.487 296.473C437.597 296.448 437.693 296.381 437.754 296.286C437.815 296.191 437.836 296.075 437.813 295.965L433.039 274.077C433.027 274.023 433.005 273.971 432.972 273.925C432.94 273.88 432.9 273.84 432.852 273.81C432.805 273.78 432.753 273.76 432.698 273.75C432.642 273.74 432.586 273.742 432.531 273.754C432.477 273.766 432.425 273.788 432.379 273.821C432.333 273.853 432.294 273.893 432.264 273.94C432.234 273.988 432.214 274.04 432.204 274.095C432.194 274.15 432.195 274.207 432.207 274.261L436.979 296.149C437.002 296.242 437.056 296.324 437.131 296.383C437.206 296.441 437.299 296.473 437.395 296.473Z" fill="#91B3FA"/>
<path d="M440.85 361.624C442.654 360.633 444.766 360.358 446.763 360.855L450.745 361.846C450.945 361.896 451.153 361.902 451.355 361.865C451.557 361.828 451.749 361.748 451.918 361.63C452.087 361.513 452.229 361.361 452.334 361.184C452.44 361.008 452.506 360.811 452.529 360.607L456.651 323.95C461.806 326.396 469.241 326.104 471.693 325.923L462.207 369.146H429.006L440.85 361.624Z" fill="url(#paint62_linear_435_12324)"/>
<path d="M352.637 282.108L353.64 278.777C353.925 277.83 354.419 276.96 355.087 276.23C355.754 275.5 356.577 274.93 357.495 274.561L375.646 267.268C375.646 267.268 375.919 264.942 371.81 263.362C367.701 261.782 368.662 257.184 368.662 257.184C368.662 257.184 374.277 259.742 382.493 263.805C387.193 266.126 389.831 270.224 391.228 273.307L432.356 323.4L427.527 326.71C426.03 327.74 424.331 328.441 422.543 328.767C420.755 329.094 418.919 329.039 417.153 328.607C415.388 328.174 413.735 327.373 412.301 326.257C410.868 325.14 409.687 323.733 408.836 322.129L386.561 279.443C375.37 282.799 364.052 283.434 352.637 282.108Z" fill="url(#paint63_linear_435_12324)"/>
<path d="M445.588 212.471L456.162 242.037C456.162 242.037 446.798 249.352 439.962 246.878L434.633 229.929C434.633 229.929 438.709 209.215 445.588 212.471Z" fill="url(#paint64_linear_435_12324)"/>
<path d="M414.031 201.851C414.031 202.307 424.217 230.659 424.217 230.659L440.297 224.505L434.638 196.198C434.638 196.198 414.031 194.229 414.031 201.851Z" fill="url(#paint65_linear_435_12324)"/>
<path d="M431.819 203.096L435.965 217.762C436.018 217.949 436.045 218.142 436.046 218.336C436.046 219.531 435.751 223.648 431.554 223.089C427.747 222.581 424.264 222.169 422.049 223.216C421.568 223.439 421.188 223.835 420.984 224.324C420.779 224.813 420.765 225.361 420.945 225.86C421.865 228.435 424.074 234.202 426.736 238.919C427 239.38 427.427 239.726 427.933 239.887C428.439 240.049 428.987 240.015 429.47 239.793C432.491 238.421 438.778 235.348 443.258 231.7C443.556 231.459 443.784 231.142 443.916 230.782C444.049 230.422 444.082 230.034 444.011 229.657C443.306 225.903 441.208 214.492 441.115 211.222C441.027 208.152 444.475 205.809 445.994 204.928C446.239 204.785 446.453 204.594 446.623 204.366C446.793 204.139 446.914 203.879 446.981 203.603C447.456 201.628 447.861 197.166 442.152 196.171C441.869 196.123 441.599 196.018 441.358 195.863C441.116 195.709 440.908 195.507 440.747 195.27C440.585 195.033 440.473 194.767 440.417 194.485C440.36 194.204 440.361 193.915 440.42 193.634C440.904 191.271 440.749 187.795 436.257 186.513C431.692 185.212 428.82 187.956 427.358 190.062C427.071 190.471 426.648 190.765 426.166 190.894C425.683 191.023 425.17 190.978 424.717 190.767C424.177 190.526 423.527 190.517 422.828 191.105C422.601 191.29 422.338 191.424 422.056 191.501C421.773 191.578 421.478 191.594 421.189 191.55C420.9 191.506 420.623 191.403 420.377 191.245C420.13 191.088 419.919 190.882 419.757 190.638C418.426 188.681 416.007 186.728 411.913 188.05C404.649 190.399 404.995 198.768 407.659 203.316C410.322 207.865 418.052 204.872 421.712 201.858C424.496 199.566 428.734 200.938 430.604 201.725C430.896 201.848 431.157 202.035 431.368 202.272C431.578 202.509 431.732 202.791 431.819 203.096Z" fill="url(#paint66_linear_435_12324)"/>
<path d="M442.577 216.57C442.577 216.57 438.277 208.443 441.121 205.892C443.965 203.341 448.781 203.758 448.65 210.113C448.49 218.016 442.577 216.57 442.577 216.57Z" fill="url(#paint67_linear_435_12324)"/>
<path d="M468.357 326.473C469.76 326.479 471.163 326.413 472.559 326.276L472.865 326.241L485.383 267.936C485.405 267.827 485.383 267.713 485.322 267.619C485.261 267.526 485.166 267.46 485.057 267.436C484.947 267.412 484.833 267.431 484.738 267.491C484.643 267.55 484.576 267.644 484.549 267.752L472.16 325.462C470.297 325.625 460.349 326.286 455.096 322.568L465.941 271.903L463.679 267.642C463.624 267.544 463.534 267.472 463.427 267.441C463.32 267.409 463.205 267.42 463.106 267.473C463.007 267.525 462.933 267.614 462.899 267.72C462.865 267.826 462.874 267.941 462.924 268.041L465.043 272.03L454.148 322.923L454.367 323.085C458.162 325.934 464.273 326.473 468.357 326.473Z" fill="#91B3FA"/>
<path d="M93.0661 504.266C92.7689 504.268 92.4749 504.205 92.2045 504.082C91.1 503.561 90.5882 502.164 91.0631 500.955L136.808 384.988C137.283 383.782 138.566 383.224 139.674 383.743C140.783 384.262 141.291 385.661 140.816 386.87L95.0782 502.828C94.9276 503.242 94.6547 503.602 94.2955 503.859C93.9363 504.115 93.5076 504.257 93.0661 504.266Z" fill="url(#paint68_linear_435_12324)"/>
<path d="M144.599 504.266C144.159 504.256 143.732 504.113 143.374 503.857C143.016 503.6 142.744 503.241 142.594 502.828L96.8492 386.861C96.3743 385.654 96.8861 384.256 97.9925 383.734C99.0988 383.212 100.386 383.772 100.857 384.979L146.602 500.946C147.079 502.153 146.567 503.55 145.461 504.073C145.191 504.199 144.897 504.265 144.599 504.266Z" fill="url(#paint69_linear_435_12324)"/>
<path d="M403.522 504.266C403.225 504.268 402.932 504.205 402.662 504.082C401.558 503.561 401.044 502.164 401.521 500.955L447.264 384.988C447.741 383.782 449.022 383.224 450.13 383.743C451.239 384.262 451.749 385.661 451.272 386.87L405.527 502.837C405.376 503.249 405.103 503.606 404.746 503.861C404.388 504.116 403.961 504.257 403.522 504.266Z" fill="url(#paint70_linear_435_12324)"/>
<path d="M455.054 504.266C454.614 504.256 454.187 504.113 453.829 503.857C453.471 503.6 453.2 503.241 453.049 502.828L407.306 386.861C406.83 385.654 407.341 384.256 408.448 383.734C409.554 383.212 410.841 383.772 411.314 384.979L457.057 500.946C457.534 502.153 457.022 503.55 455.916 504.073C455.646 504.2 455.352 504.266 455.054 504.266Z" fill="url(#paint71_linear_435_12324)"/>
<path d="M396.885 376.791H463.139V369.959H396.885C398.302 369.959 398.302 376.791 396.885 376.791Z" fill="#91B3FA"/>
<path d="M462.525 376.791C462.69 376.79 462.848 376.725 462.965 376.608C463.081 376.492 463.147 376.334 463.148 376.169V370.581C463.147 370.417 463.081 370.259 462.965 370.142C462.848 370.026 462.69 369.96 462.525 369.96H395.487C395.322 369.959 395.164 369.893 395.048 369.776C394.931 369.66 394.865 369.502 394.864 369.338V369.036C394.865 368.872 394.931 368.714 395.048 368.598C395.164 368.481 395.322 368.416 395.487 368.415H466.944C467.702 368.415 468.43 368.716 468.966 369.252C469.503 369.788 469.804 370.515 469.804 371.273V375.639C469.804 376.354 469.52 377.04 469.014 377.546C468.508 378.052 467.821 378.336 467.106 378.336H395.494C395.329 378.335 395.171 378.269 395.055 378.152C394.938 378.036 394.873 377.879 394.872 377.714V377.422C394.873 377.257 394.938 377.099 395.055 376.983C395.171 376.867 395.329 376.801 395.494 376.8L462.525 376.791Z" fill="url(#paint72_linear_435_12324)"/>
<path d="M472.744 381.396C472.967 380.633 472.663 379.844 471.918 379.246C471.172 378.648 470.06 378.299 468.89 378.299H71.8975C70.3567 378.299 68.9226 378.819 68.0923 379.68C67.2621 380.541 67.1498 381.622 67.7959 382.549L72.0982 388.72C73.0831 390.133 75.2277 391.038 77.5675 391.038H466.165C468.35 391.038 470.228 390.011 470.642 388.59L472.744 381.396Z" fill="url(#paint73_linear_435_12324)"/>
</g>
<defs>
<linearGradient id="paint0_linear_435_12324" x1="310.047" y1="185.047" x2="303.755" y2="226.616" gradientUnits="userSpaceOnUse">
<stop stop-color="#09005D"/>
<stop offset="1" stop-color="#1A0F91"/>
</linearGradient>
<linearGradient id="paint1_linear_435_12324" x1="311.441" y1="167.813" x2="300.573" y2="287.764" gradientUnits="userSpaceOnUse">
<stop stop-color="#53D8FF"/>
<stop offset="1" stop-color="#3840F7"/>
</linearGradient>
<linearGradient id="paint2_linear_435_12324" x1="311.758" y1="167.84" x2="300.892" y2="287.793" gradientUnits="userSpaceOnUse">
<stop stop-color="#53D8FF"/>
<stop offset="1" stop-color="#3840F7"/>
</linearGradient>
<linearGradient id="paint3_linear_435_12324" x1="311.156" y1="167.787" x2="300.29" y2="287.738" gradientUnits="userSpaceOnUse">
<stop stop-color="#53D8FF"/>
<stop offset="1" stop-color="#3840F7"/>
</linearGradient>
<linearGradient id="paint4_linear_435_12324" x1="311.48" y1="167.816" x2="300.614" y2="287.767" gradientUnits="userSpaceOnUse">
<stop stop-color="#53D8FF"/>
<stop offset="1" stop-color="#3840F7"/>
</linearGradient>
<linearGradient id="paint5_linear_435_12324" x1="314.786" y1="82.5141" x2="298.02" y2="196.249" gradientUnits="userSpaceOnUse">
<stop stop-color="#FF928E"/>
<stop offset="1" stop-color="#FE7062"/>
</linearGradient>
<linearGradient id="paint6_linear_435_12324" x1="469.582" y1="-54.2129" x2="394.093" y2="51.1904" gradientUnits="userSpaceOnUse">
<stop stop-color="#E1473D"/>
<stop offset="1" stop-color="#E9605A"/>
</linearGradient>
<linearGradient id="paint7_linear_435_12324" x1="459.086" y1="-61.7284" x2="383.6" y2="43.6745" gradientUnits="userSpaceOnUse">
<stop stop-color="#E1473D"/>
<stop offset="1" stop-color="#E9605A"/>
</linearGradient>
<linearGradient id="paint8_linear_435_12324" x1="220.278" y1="472.346" x2="108.175" y2="592.106" gradientUnits="userSpaceOnUse">
<stop stop-color="#09005D"/>
<stop offset="1" stop-color="#1A0F91"/>
</linearGradient>
<linearGradient id="paint9_linear_435_12324" x1="184.14" y1="480.969" x2="194.007" y2="481.062" gradientUnits="userSpaceOnUse">
<stop stop-color="#FEBBBA"/>
<stop offset="1" stop-color="#FF928E"/>
</linearGradient>
<linearGradient id="paint10_linear_435_12324" x1="230.317" y1="335.912" x2="134.702" y2="463.095" gradientUnits="userSpaceOnUse">
<stop stop-color="#09005D"/>
<stop offset="1" stop-color="#1A0F91"/>
</linearGradient>
<linearGradient id="paint11_linear_435_12324" x1="195.576" y1="449.219" x2="83.4686" y2="568.985" gradientUnits="userSpaceOnUse">
<stop stop-color="#09005D"/>
<stop offset="1" stop-color="#1A0F91"/>
</linearGradient>
<linearGradient id="paint12_linear_435_12324" x1="148.587" y1="480.129" x2="157.107" y2="480.209" gradientUnits="userSpaceOnUse">
<stop stop-color="#FEBBBA"/>
<stop offset="1" stop-color="#FF928E"/>
</linearGradient>
<linearGradient id="paint13_linear_435_12324" x1="213.588" y1="323.335" x2="117.973" y2="450.518" gradientUnits="userSpaceOnUse">
<stop stop-color="#09005D"/>
<stop offset="1" stop-color="#1A0F91"/>
</linearGradient>
<linearGradient id="paint14_linear_435_12324" x1="-199.955" y1="-382.393" x2="-112.982" y2="-231.509" gradientUnits="userSpaceOnUse">
<stop stop-color="#FF928E"/>
<stop offset="1" stop-color="#FE7062"/>
</linearGradient>
<linearGradient id="paint15_linear_435_12324" x1="227.177" y1="224.185" x2="277.583" y2="224.66" gradientUnits="userSpaceOnUse">
<stop stop-color="#FEBBBA"/>
<stop offset="1" stop-color="#FF928E"/>
</linearGradient>
<linearGradient id="paint16_linear_435_12324" x1="266.319" y1="215.893" x2="231.775" y2="292.469" gradientUnits="userSpaceOnUse">
<stop stop-color="#FEBBBA"/>
<stop offset="1" stop-color="#FF928E"/>
</linearGradient>
<linearGradient id="paint17_linear_435_12324" x1="277.663" y1="190.61" x2="291.963" y2="169.052" gradientUnits="userSpaceOnUse">
<stop stop-color="#FEBBBA"/>
<stop offset="1" stop-color="#FF928E"/>
</linearGradient>
<linearGradient id="paint18_linear_435_12324" x1="-229.612" y1="-365.301" x2="-142.639" y2="-214.416" gradientUnits="userSpaceOnUse">
<stop stop-color="#FF928E"/>
<stop offset="1" stop-color="#FE7062"/>
</linearGradient>
<linearGradient id="paint19_linear_435_12324" x1="116.205" y1="294.474" x2="179.991" y2="295.076" gradientUnits="userSpaceOnUse">
<stop stop-color="#FEBBBA"/>
<stop offset="1" stop-color="#FF928E"/>
</linearGradient>
<linearGradient id="paint20_linear_435_12324" x1="165.83" y1="226.806" x2="191.05" y2="227.044" gradientUnits="userSpaceOnUse">
<stop stop-color="#FEBBBA"/>
<stop offset="1" stop-color="#FF928E"/>
</linearGradient>
<linearGradient id="paint21_linear_435_12324" x1="198.072" y1="210.145" x2="170.5" y2="193.045" gradientUnits="userSpaceOnUse">
<stop stop-color="#FEBBBA"/>
<stop offset="1" stop-color="#FF928E"/>
</linearGradient>
<linearGradient id="paint22_linear_435_12324" x1="155.949" y1="175.167" x2="191.516" y2="203.693" gradientUnits="userSpaceOnUse">
<stop stop-color="#09005D"/>
<stop offset="1" stop-color="#1A0F91"/>
</linearGradient>
<linearGradient id="paint23_linear_435_12324" x1="190.75" y1="216.39" x2="165.945" y2="201.005" gradientUnits="userSpaceOnUse">
<stop stop-color="#FEBBBA"/>
<stop offset="1" stop-color="#FF928E"/>
</linearGradient>
<linearGradient id="paint24_linear_435_12324" x1="197.122" y1="254.079" x2="232.263" y2="400.627" gradientUnits="userSpaceOnUse">
<stop stop-color="#09005D"/>
<stop offset="1" stop-color="#1A0F91"/>
</linearGradient>
<linearGradient id="paint25_linear_435_12324" x1="173.002" y1="292.846" x2="192.945" y2="292.846" gradientUnits="userSpaceOnUse">
<stop stop-color="#FEBBBA"/>
<stop offset="1" stop-color="#FF928E"/>
</linearGradient>
<linearGradient id="paint26_linear_435_12324" x1="113.091" y1="389.863" x2="117.231" y2="491.375" gradientUnits="userSpaceOnUse">
<stop stop-color="#4F52FF"/>
<stop offset="1" stop-color="#4042E2"/>
</linearGradient>
<linearGradient id="paint27_linear_435_12324" x1="99.9932" y1="485.367" x2="110.514" y2="485.367" gradientUnits="userSpaceOnUse">
<stop stop-color="#FEBBBA"/>
<stop offset="1" stop-color="#FF928E"/>
</linearGradient>
<linearGradient id="paint28_linear_435_12324" x1="168.63" y1="387.598" x2="172.77" y2="489.111" gradientUnits="userSpaceOnUse">
<stop stop-color="#4F52FF"/>
<stop offset="1" stop-color="#4042E2"/>
</linearGradient>
<linearGradient id="paint29_linear_435_12324" x1="41.8252" y1="437.943" x2="125.099" y2="437.943" gradientUnits="userSpaceOnUse">
<stop stop-color="#09005D"/>
<stop offset="1" stop-color="#1A0F91"/>
</linearGradient>
<linearGradient id="paint30_linear_435_12324" x1="149.819" y1="486.252" x2="162.378" y2="486.252" gradientUnits="userSpaceOnUse">
<stop stop-color="#FEBBBA"/>
<stop offset="1" stop-color="#FF928E"/>
</linearGradient>
<linearGradient id="paint31_linear_435_12324" x1="117.467" y1="403.278" x2="26.1383" y2="506.919" gradientUnits="userSpaceOnUse">
<stop stop-color="#09005D"/>
<stop offset="1" stop-color="#1A0F91"/>
</linearGradient>
<linearGradient id="paint32_linear_435_12324" x1="80.0592" y1="309.434" x2="86.2407" y2="293.831" gradientUnits="userSpaceOnUse">
<stop stop-color="#FEBBBA"/>
<stop offset="1" stop-color="#FF928E"/>
</linearGradient>
<linearGradient id="paint33_linear_435_12324" x1="247.305" y1="111.915" x2="57.5758" y2="401.282" gradientUnits="userSpaceOnUse">
<stop stop-color="#4F52FF"/>
<stop offset="1" stop-color="#4042E2"/>
</linearGradient>
<linearGradient id="paint34_linear_435_12324" x1="84.0766" y1="335.081" x2="204.281" y2="134.564" gradientUnits="userSpaceOnUse">
<stop stop-color="#09005D"/>
<stop offset="1" stop-color="#1A0F91"/>
</linearGradient>
<linearGradient id="paint35_linear_435_12324" x1="132.957" y1="370.105" x2="161.966" y2="370.105" gradientUnits="userSpaceOnUse">
<stop stop-color="#FEBBBA"/>
<stop offset="1" stop-color="#FF928E"/>
</linearGradient>
<linearGradient id="paint36_linear_435_12324" x1="98.9536" y1="277.769" x2="71.2613" y2="305.41" gradientUnits="userSpaceOnUse">
<stop stop-color="#FEBBBA"/>
<stop offset="1" stop-color="#FF928E"/>
</linearGradient>
<linearGradient id="paint37_linear_435_12324" x1="74.8488" y1="262.017" x2="107.461" y2="294.277" gradientUnits="userSpaceOnUse">
<stop stop-color="#09005D"/>
<stop offset="1" stop-color="#1A0F91"/>
</linearGradient>
<linearGradient id="paint38_linear_435_12324" x1="94.4718" y1="273.279" x2="66.7796" y2="300.922" gradientUnits="userSpaceOnUse">
<stop stop-color="#FEBBBA"/>
<stop offset="1" stop-color="#FF928E"/>
</linearGradient>
<linearGradient id="paint39_linear_435_12324" x1="-6085.19" y1="-6284.69" x2="-5982.7" y2="-6175.01" gradientUnits="userSpaceOnUse">
<stop stop-color="#09005D"/>
<stop offset="1" stop-color="#1A0F91"/>
</linearGradient>
<linearGradient id="paint40_linear_435_12324" x1="8862.26" y1="-2485.79" x2="8719.6" y2="-2439.09" gradientUnits="userSpaceOnUse">
<stop stop-color="#09005D"/>
<stop offset="1" stop-color="#1A0F91"/>
</linearGradient>
<linearGradient id="paint41_linear_435_12324" x1="239.242" y1="694.238" x2="316.649" y2="384.334" gradientUnits="userSpaceOnUse">
<stop stop-color="#FEBBBA"/>
<stop offset="1" stop-color="#FF928E"/>
</linearGradient>
<linearGradient id="paint42_linear_435_12324" x1="414.685" y1="314.613" x2="341.073" y2="438.653" gradientUnits="userSpaceOnUse">
<stop stop-color="#09005D"/>
<stop offset="1" stop-color="#1A0F91"/>
</linearGradient>
<linearGradient id="paint43_linear_435_12324" x1="276.918" y1="498.252" x2="292.397" y2="267.138" gradientUnits="userSpaceOnUse">
<stop stop-color="#FEBBBA"/>
<stop offset="1" stop-color="#FF928E"/>
</linearGradient>
<linearGradient id="paint44_linear_435_12324" x1="290.425" y1="396.975" x2="393.181" y2="396.975" gradientUnits="userSpaceOnUse">
<stop stop-color="#09005D"/>
<stop offset="1" stop-color="#1A0F91"/>
</linearGradient>
<linearGradient id="paint45_linear_435_12324" x1="372.583" y1="289.627" x2="298.979" y2="413.652" gradientUnits="userSpaceOnUse">
<stop stop-color="#09005D"/>
<stop offset="1" stop-color="#1A0F91"/>
</linearGradient>
<linearGradient id="paint46_linear_435_12324" x1="362.806" y1="225.5" x2="347.699" y2="304.925" gradientUnits="userSpaceOnUse">
<stop stop-color="#09005D"/>
<stop offset="1" stop-color="#1A0F91"/>
</linearGradient>
<linearGradient id="paint47_linear_435_12324" x1="290.976" y1="482.629" x2="348.739" y2="353.013" gradientUnits="userSpaceOnUse">
<stop stop-color="#4F52FF"/>
<stop offset="1" stop-color="#4042E2"/>
</linearGradient>
<linearGradient id="paint48_linear_435_12324" x1="337.766" y1="324.864" x2="331.586" y2="285.169" gradientUnits="userSpaceOnUse">
<stop stop-color="#FEBBBA"/>
<stop offset="1" stop-color="#FF928E"/>
</linearGradient>
<linearGradient id="paint49_linear_435_12324" x1="304.154" y1="282.77" x2="350.566" y2="267.096" gradientUnits="userSpaceOnUse">
<stop stop-color="#FEBBBA"/>
<stop offset="1" stop-color="#FF928E"/>
</linearGradient>
<linearGradient id="paint50_linear_435_12324" x1="294.251" y1="241.372" x2="348.397" y2="301.449" gradientUnits="userSpaceOnUse">
<stop stop-color="#09005D"/>
<stop offset="1" stop-color="#1A0F91"/>
</linearGradient>
<linearGradient id="paint51_linear_435_12324" x1="302.771" y1="278.676" x2="349.183" y2="263.003" gradientUnits="userSpaceOnUse">
<stop stop-color="#FEBBBA"/>
<stop offset="1" stop-color="#FF928E"/>
</linearGradient>
<linearGradient id="paint52_linear_435_12324" x1="363.191" y1="369.934" x2="449.353" y2="369.934" gradientUnits="userSpaceOnUse">
<stop stop-color="#FEBBBA"/>
<stop offset="1" stop-color="#FF928E"/>
</linearGradient>
<linearGradient id="paint53_linear_435_12324" x1="364.807" y1="361.07" x2="311.375" y2="378.609" gradientUnits="userSpaceOnUse">
<stop stop-color="#09005D"/>
<stop offset="1" stop-color="#1A0F91"/>
</linearGradient>
<linearGradient id="paint54_linear_435_12324" x1="291.416" y1="326.059" x2="252.967" y2="366.734" gradientUnits="userSpaceOnUse">
<stop stop-color="#09005D"/>
<stop offset="1" stop-color="#1A0F91"/>
</linearGradient>
<linearGradient id="paint55_linear_435_12324" x1="411.88" y1="561.648" x2="411.312" y2="621.833" gradientUnits="userSpaceOnUse">
<stop stop-color="#09005D"/>
<stop offset="1" stop-color="#1A0F91"/>
</linearGradient>
<linearGradient id="paint56_linear_435_12324" x1="426.401" y1="494.437" x2="429.519" y2="470.022" gradientUnits="userSpaceOnUse">
<stop stop-color="#FEBBBA"/>
<stop offset="1" stop-color="#FF928E"/>
</linearGradient>
<linearGradient id="paint57_linear_435_12324" x1="493.266" y1="562.415" x2="492.698" y2="622.6" gradientUnits="userSpaceOnUse">
<stop stop-color="#09005D"/>
<stop offset="1" stop-color="#1A0F91"/>
</linearGradient>
<linearGradient id="paint58_linear_435_12324" x1="494.714" y1="502.804" x2="497.755" y2="479.012" gradientUnits="userSpaceOnUse">
<stop stop-color="#FEBBBA"/>
<stop offset="1" stop-color="#FF928E"/>
</linearGradient>
<linearGradient id="paint59_linear_435_12324" x1="446.781" y1="310.725" x2="474.932" y2="447.882" gradientUnits="userSpaceOnUse">
<stop stop-color="#09005D"/>
<stop offset="1" stop-color="#1A0F91"/>
</linearGradient>
<linearGradient id="paint60_linear_435_12324" x1="496.553" y1="398.03" x2="493.148" y2="391.213" gradientUnits="userSpaceOnUse">
<stop stop-color="#4F52FF"/>
<stop offset="1" stop-color="#4042E2"/>
</linearGradient>
<linearGradient id="paint61_linear_435_12324" x1="440.443" y1="254.914" x2="498.884" y2="428.686" gradientUnits="userSpaceOnUse">
<stop stop-color="#4F52FF"/>
<stop offset="1" stop-color="#4042E2"/>
</linearGradient>
<linearGradient id="paint62_linear_435_12324" x1="471.693" y1="346.545" x2="429.006" y2="346.545" gradientUnits="userSpaceOnUse">
<stop stop-color="#FEBBBA"/>
<stop offset="1" stop-color="#FF928E"/>
</linearGradient>
<linearGradient id="paint63_linear_435_12324" x1="432.356" y1="293.081" x2="352.637" y2="293.081" gradientUnits="userSpaceOnUse">
<stop stop-color="#FEBBBA"/>
<stop offset="1" stop-color="#FF928E"/>
</linearGradient>
<linearGradient id="paint64_linear_435_12324" x1="461.055" y1="248.408" x2="433.336" y2="219.945" gradientUnits="userSpaceOnUse">
<stop stop-color="#FEBBBA"/>
<stop offset="1" stop-color="#FF928E"/>
</linearGradient>
<linearGradient id="paint65_linear_435_12324" x1="420.819" y1="202.051" x2="455.371" y2="247.8" gradientUnits="userSpaceOnUse">
<stop stop-color="#FEBBBA"/>
<stop offset="1" stop-color="#FF928E"/>
</linearGradient>
<linearGradient id="paint66_linear_435_12324" x1="473.549" y1="72.0263" x2="437.112" y2="177.702" gradientUnits="userSpaceOnUse">
<stop stop-color="#E1473D"/>
<stop offset="1" stop-color="#E9605A"/>
</linearGradient>
<linearGradient id="paint67_linear_435_12324" x1="471.479" y1="238.256" x2="443.762" y2="209.792" gradientUnits="userSpaceOnUse">
<stop stop-color="#FEBBBA"/>
<stop offset="1" stop-color="#FF928E"/>
</linearGradient>
<linearGradient id="paint68_linear_435_12324" x1="26.3236" y1="763.193" x2="128.902" y2="397.075" gradientUnits="userSpaceOnUse">
<stop stop-color="#4F52FF"/>
<stop offset="1" stop-color="#4042E2"/>
</linearGradient>
<linearGradient id="paint69_linear_435_12324" x1="31.6881" y1="764.696" x2="134.266" y2="398.577" gradientUnits="userSpaceOnUse">
<stop stop-color="#4F52FF"/>
<stop offset="1" stop-color="#4042E2"/>
</linearGradient>
<linearGradient id="paint70_linear_435_12324" x1="314.147" y1="843.835" x2="416.724" y2="477.716" gradientUnits="userSpaceOnUse">
<stop stop-color="#4F52FF"/>
<stop offset="1" stop-color="#4042E2"/>
</linearGradient>
<linearGradient id="paint71_linear_435_12324" x1="319.511" y1="845.337" x2="422.088" y2="479.217" gradientUnits="userSpaceOnUse">
<stop stop-color="#4F52FF"/>
<stop offset="1" stop-color="#4042E2"/>
</linearGradient>
<linearGradient id="paint72_linear_435_12324" x1="459.098" y1="260.136" x2="442.618" y2="329.417" gradientUnits="userSpaceOnUse">
<stop stop-color="#09005D"/>
<stop offset="1" stop-color="#1A0F91"/>
</linearGradient>
<linearGradient id="paint73_linear_435_12324" x1="152.896" y1="798.655" x2="255.473" y2="432.536" gradientUnits="userSpaceOnUse">
<stop stop-color="#4F52FF"/>
<stop offset="1" stop-color="#4042E2"/>
</linearGradient>
<clipPath id="clip0_435_12324">
<rect width="516" height="515" fill="white"/>
</clipPath>
</defs>
</svg>
