<svg width="708" height="397" viewBox="0 0 708 397" fill="none" xmlns="http://www.w3.org/2000/svg">
<g clip-path="url(#clip0_22_5689)">
<path d="M589.585 16.8787H536.013V117.99H589.585V16.8787Z" fill="#E6E6E6"/>
<path d="M586.951 16.8787H524.023V117.99H586.951V16.8787Z" fill="#F0F0F0"/>
<path d="M577.36 25.8662H533.587V109.012H577.36V25.8662Z" fill="white"/>
<path d="M564.531 50.6646H547.511V82.9855H564.531V50.6646Z" fill="#EBEBEB"/>
<path d="M170.401 16.8787H116.829V117.99H170.401V16.8787Z" fill="#E6E6E6"/>
<path d="M167.768 16.8787H104.841V117.99H167.768V16.8787Z" fill="#F0F0F0"/>
<path d="M158.186 25.8662H114.413V109.012H158.186V25.8662Z" fill="white"/>
<path d="M145.347 50.6646H128.327V82.9855H145.347V50.6646Z" fill="#EBEBEB"/>
<path d="M636.001 259.891H465.392C463.926 259.888 462.52 259.304 461.483 258.266C460.446 257.228 459.863 255.821 459.86 254.353V5.53804C459.863 4.07003 460.446 2.66286 461.483 1.62482C462.52 0.586773 463.926 0.00249875 465.392 0H636.001C637.469 -2.13259e-06 638.877 0.583168 639.916 1.62148C640.955 2.65979 641.54 4.06839 641.543 5.53804V254.353C641.54 255.823 640.955 257.231 639.916 258.269C638.877 259.308 637.469 259.891 636.001 259.891ZM465.392 0.236265C463.988 0.236265 462.641 0.794843 461.647 1.78912C460.654 2.78339 460.096 4.13192 460.096 5.53804V254.353C460.096 255.049 460.233 255.739 460.499 256.382C460.766 257.025 461.156 257.61 461.647 258.102C462.139 258.594 462.723 258.985 463.366 259.251C464.008 259.518 464.697 259.655 465.392 259.655H636.001C637.407 259.655 638.755 259.096 639.749 258.102C640.744 257.108 641.304 255.76 641.307 254.353V5.53804C641.304 4.13105 640.744 2.78255 639.749 1.78854C638.755 0.794537 637.407 0.236262 636.001 0.236265H465.392Z" fill="#E0E0E0"/>
<path d="M439.253 259.891H268.625C267.158 259.888 265.753 259.304 264.716 258.266C263.679 257.228 263.095 255.821 263.093 254.353V5.53804C263.095 4.07003 263.679 2.66286 264.716 1.62482C265.753 0.586773 267.158 0.00249875 268.625 0H439.253C440.719 0.00249875 442.125 0.586773 443.161 1.62482C444.198 2.66286 444.782 4.07003 444.784 5.53804V254.353C444.782 255.821 444.198 257.228 443.161 258.266C442.125 259.304 440.719 259.888 439.253 259.891ZM268.625 0.236265C267.229 0.251179 265.896 0.816035 264.913 1.80843C263.931 2.80083 263.378 4.14082 263.376 5.53804V254.353C263.378 255.758 263.937 257.105 264.93 258.099C265.922 259.093 267.268 259.652 268.672 259.655H439.253C440.656 259.652 442.002 259.093 442.995 258.099C443.987 257.105 444.546 255.758 444.548 254.353V5.53804C444.546 4.13269 443.987 2.78561 442.995 1.79188C442.002 0.798142 440.656 0.238763 439.253 0.236265H268.625Z" fill="#E0E0E0"/>
<path d="M242.608 259.891H71.9993C70.5313 259.891 69.1233 259.308 68.0843 258.269C67.0454 257.231 66.4605 255.823 66.458 254.353V5.53804C66.4605 4.06839 67.0454 2.65979 68.0843 1.62148C69.1233 0.583168 70.5313 -2.13259e-06 71.9993 0H242.608C244.075 0.00249875 245.48 0.586773 246.517 1.62482C247.554 2.66286 248.138 4.07003 248.14 5.53804V254.353C248.138 255.821 247.554 257.228 246.517 258.266C245.48 259.304 244.075 259.888 242.608 259.891ZM71.9993 0.236265C70.5939 0.236262 69.2459 0.794537 68.2512 1.78854C67.2566 2.78255 66.6965 4.13105 66.694 5.53804V254.353C66.6965 255.76 67.2566 257.108 68.2512 258.102C69.2459 259.096 70.5939 259.655 71.9993 259.655H242.608C243.304 259.655 243.993 259.518 244.635 259.251C245.278 258.985 245.861 258.594 246.353 258.102C246.845 257.61 247.235 257.025 247.501 256.382C247.767 255.739 247.904 255.049 247.904 254.353V5.53804C247.904 4.13192 247.346 2.78339 246.353 1.78912C245.36 0.794843 244.013 0.236265 242.608 0.236265H71.9993Z" fill="#E0E0E0"/>
<path d="M708 317.606H0V317.719H708V317.606Z" fill="#E0E0E0"/>
<path d="M669.635 345.362H617.026V345.759H669.635V345.362Z" fill="#EBEBEB"/>
<path d="M481.128 349.681H467.317V350.078H481.128V349.681Z" fill="#EBEBEB"/>
<path d="M106.965 333.275H38.3643V333.672H106.965V333.275Z" fill="#EBEBEB"/>
<path d="M131.178 333.275H121.115V333.672H131.178V333.275Z" fill="#EBEBEB"/>
<path d="M312.653 339.985H163.869V340.382H312.653V339.985Z" fill="#EBEBEB"/>
<path d="M225.126 60.3893C222.804 63.9353 221.174 67.889 220.321 72.0418L213.816 72.6561V85.2632L220.321 85.8775C221.174 90.0304 222.804 93.9841 225.126 97.5301L220.972 102.558L229.874 111.47L234.896 107.311C238.437 109.641 242.386 111.279 246.535 112.141L247.149 118.652H259.742L260.356 112.141C264.506 111.285 268.458 109.653 272.005 107.33L277.017 111.489L285.919 102.577L281.766 97.549C284.091 94.005 285.722 90.0505 286.57 85.8964L293.075 85.2821V72.6561L286.57 72.0418C285.722 67.8877 284.091 63.9332 281.766 60.3893L285.919 55.3616L277.017 46.4497L272.005 50.6079C268.46 48.2813 264.508 46.649 260.356 45.7976L259.742 39.2861H247.149L246.535 45.7976C242.388 46.6534 238.439 48.2854 234.896 50.6079L229.874 46.4497L220.972 55.3616L225.126 60.3893ZM265.5 66.8913C267.885 69.2782 269.509 72.3194 270.167 75.6302C270.824 78.9411 270.487 82.3729 269.196 85.4917C267.906 88.6104 265.721 91.2761 262.917 93.1516C260.114 95.027 256.817 96.0281 253.446 96.0281C250.074 96.0281 246.777 95.027 243.974 93.1516C241.17 91.2761 238.985 88.6104 237.695 85.4917C236.404 82.3729 236.067 78.9411 236.725 75.6302C237.382 72.3194 239.006 69.2782 241.391 66.8913C244.588 63.6907 248.924 61.8926 253.446 61.8926C257.967 61.8926 262.303 63.6907 265.5 66.8913Z" fill="#EBEBEB"/>
<path d="M249.698 212.458C248.537 214.233 247.723 216.211 247.3 218.289L244.043 218.592V224.895L247.3 225.198C247.722 227.276 248.535 229.255 249.698 231.029L247.621 233.533L252.076 237.994L254.578 235.915C256.35 237.077 258.327 237.891 260.403 238.315L260.705 241.576H267.001L267.303 238.315C269.379 237.891 271.355 237.077 273.128 235.915L275.629 237.994L280.085 233.533L278.008 231.029C279.166 229.253 279.98 227.275 280.406 225.198L283.663 224.895V218.592L280.406 218.289C279.978 216.213 279.165 214.235 278.008 212.458L280.085 209.954L275.648 205.493L273.147 207.573C271.372 206.415 269.396 205.6 267.322 205.172L267.02 201.912H260.723L260.421 205.172C258.347 205.6 256.371 206.415 254.597 207.573L252.095 205.493L247.64 209.954L249.698 212.458ZM269.88 215.709C271.063 216.901 271.866 218.417 272.19 220.065C272.513 221.714 272.341 223.421 271.697 224.972C271.052 226.523 269.963 227.848 268.567 228.78C267.171 229.712 265.531 230.209 263.853 230.209C262.175 230.209 260.534 229.712 259.139 228.78C257.743 227.848 256.654 226.523 256.009 224.972C255.364 223.421 255.193 221.714 255.516 220.065C255.839 218.417 256.643 216.901 257.825 215.709C258.615 214.914 259.554 214.282 260.589 213.851C261.623 213.42 262.732 213.198 263.853 213.198C264.973 213.198 266.083 213.42 267.117 213.851C268.152 214.282 269.091 214.914 269.88 215.709Z" fill="#EBEBEB"/>
<path d="M70.2903 146.692C68.4645 149.495 67.1834 152.618 66.5143 155.897L61.3789 156.379V166.33L66.5143 166.812C67.1817 170.091 68.4629 173.215 70.2903 176.017L67.024 179.986L74.0474 187.017L78.0122 183.738C80.8089 185.566 83.9252 186.848 87.1973 187.518L87.6882 192.659H97.6285L98.1099 187.518C101.384 186.847 104.504 185.564 107.305 183.738L111.26 187.017L118.293 179.986L115.017 176.017C116.846 173.215 118.127 170.092 118.793 166.812L123.928 166.33V156.379L118.793 155.897C118.123 152.618 116.842 149.496 115.017 146.692L118.293 142.732L111.26 135.691L107.305 138.971C104.504 137.145 101.384 135.862 98.1099 135.19L97.6285 130.059H87.6787L87.1879 135.19C83.9158 135.86 80.7994 137.143 78.0027 138.971L74.0379 135.691L67.024 142.732L70.2903 146.692ZM102.16 151.833C104.043 153.717 105.326 156.119 105.846 158.733C106.366 161.347 106.1 164.058 105.082 166.521C104.063 168.984 102.338 171.089 100.124 172.57C97.91 174.051 95.307 174.842 92.6442 174.842C89.9814 174.842 87.3784 174.051 85.1645 172.57C82.9506 171.089 81.2252 168.984 80.2066 166.521C79.188 164.058 78.9219 161.347 79.4421 158.733C79.9622 156.119 81.2452 153.717 83.1287 151.833C84.3779 150.581 85.8613 149.589 87.494 148.911C89.1268 148.234 90.8768 147.885 92.6442 147.885C94.4116 147.885 96.1616 148.234 97.7943 148.911C99.4271 149.589 100.91 150.581 102.16 151.833Z" fill="#EBEBEB"/>
<path d="M610.664 126.316C609.795 127.637 609.19 129.113 608.88 130.664L606.473 130.891V135.55L608.88 135.767C609.191 137.304 609.794 138.767 610.655 140.076L609.116 141.967L612.41 145.265L614.298 143.724C615.607 144.586 617.068 145.189 618.603 145.501L618.83 147.911H623.483L623.71 145.501C625.244 145.186 626.705 144.584 628.015 143.724L629.903 145.265L633.188 141.967L631.659 140.076C632.515 138.764 633.117 137.302 633.433 135.767L635.831 135.54V130.881L633.433 130.654C633.117 129.119 632.515 127.657 631.659 126.345L633.188 124.455L629.903 121.166L628.015 122.697C626.705 121.838 625.244 121.235 623.71 120.92L623.483 118.51H618.83L618.603 120.92C617.068 121.232 615.607 121.835 614.298 122.697L612.41 121.156L609.116 124.455L610.664 126.316ZM625.579 128.726C626.46 129.608 627.06 130.731 627.303 131.954C627.547 133.177 627.422 134.444 626.946 135.596C626.469 136.748 625.662 137.733 624.627 138.426C623.591 139.119 622.374 139.488 621.128 139.488C619.883 139.488 618.665 139.119 617.63 138.426C616.594 137.733 615.787 136.748 615.311 135.596C614.834 134.444 614.71 133.177 614.953 131.954C615.196 130.731 615.796 129.608 616.677 128.726C617.264 128.143 617.959 127.681 618.725 127.367C619.49 127.053 620.309 126.893 621.136 126.896C621.963 126.9 622.781 127.067 623.543 127.387C624.306 127.708 624.998 128.176 625.579 128.764V128.726Z" fill="#EBEBEB"/>
<path d="M433.24 68.1008C432.379 69.4107 431.776 70.8736 431.465 72.4103L429.058 72.6371V77.2962L431.465 77.523C431.779 79.0559 432.381 80.5151 433.24 81.823L431.701 83.7132L434.995 87.002L436.883 85.471C438.194 86.3279 439.655 86.9306 441.188 87.2477L441.415 89.6481H446.068L446.295 87.2477C447.828 86.9306 449.289 86.3279 450.6 85.471L452.488 87.002L455.773 83.7132L454.244 81.823C455.102 80.5151 455.704 79.0559 456.018 77.523L458.416 77.2962V72.6371L455.952 72.4481C455.635 70.913 455.033 69.4511 454.177 68.1386L455.707 66.2485L452.412 62.9975L450.524 64.5379C449.216 63.6761 447.755 63.073 446.22 62.7612L445.993 60.3513H441.339L441.112 62.7612C439.578 63.073 438.116 63.6761 436.808 64.5379L434.92 62.9975L431.625 66.2957L433.24 68.1008ZM448.155 70.5012C449.036 71.3827 449.636 72.5058 449.879 73.7287C450.122 74.9516 449.998 76.2192 449.521 77.3712C449.045 78.5233 448.238 79.508 447.202 80.2008C446.167 80.8936 444.949 81.2634 443.704 81.2634C442.458 81.2634 441.241 80.8936 440.205 80.2008C439.17 79.508 438.363 78.5233 437.886 77.3712C437.41 76.2192 437.285 74.9516 437.529 73.7287C437.772 72.5058 438.372 71.3827 439.253 70.5012C440.434 69.3199 442.034 68.6563 443.704 68.6563C445.373 68.6563 446.974 69.3199 448.155 70.5012Z" fill="#F5F5F5"/>
<path d="M121.852 201.789C120.991 203.099 120.389 204.562 120.077 206.098L117.67 206.325V210.984L120.077 211.211C120.389 212.748 120.991 214.211 121.852 215.521L120.313 217.411L123.608 220.709L125.496 219.168C126.804 220.03 128.265 220.633 129.8 220.945L130.027 223.355H134.671L134.898 220.945C136.433 220.633 137.894 220.03 139.203 219.168L141.091 220.709L144.376 217.411L142.846 215.521C143.698 214.206 144.3 212.745 144.621 211.211L147.019 210.984V206.325L144.621 206.098C144.301 204.563 143.696 203.101 142.837 201.789L144.376 199.899L141.091 196.6L139.203 198.141C137.894 197.279 136.433 196.676 134.898 196.364L134.671 193.954H129.989L129.763 196.364C128.228 196.676 126.766 197.279 125.458 198.141L123.57 196.6L120.275 199.899L121.852 201.789ZM136.767 204.199C137.647 205.081 138.245 206.204 138.488 207.426C138.73 208.649 138.604 209.916 138.128 211.067C137.651 212.218 136.844 213.202 135.808 213.895C134.773 214.587 133.556 214.956 132.311 214.956C131.066 214.956 129.849 214.587 128.814 213.895C127.779 213.202 126.972 212.218 126.495 211.067C126.018 209.916 125.893 208.649 126.135 207.426C126.377 206.204 126.976 205.081 127.856 204.199C129.038 203.017 130.641 202.353 132.311 202.353C133.982 202.353 135.585 203.017 136.767 204.199Z" fill="#F5F5F5"/>
<path d="M542.8 145.142C541.328 147.398 540.294 149.912 539.751 152.551L535.626 152.939V160.943L539.751 161.331C540.292 163.968 541.327 166.479 542.8 168.731L540.167 171.925L545.831 177.595L549.021 174.949C551.268 176.431 553.777 177.47 556.413 178.011L556.8 182.141H564.796L565.183 178.011C567.819 177.47 570.327 176.431 572.574 174.949L575.765 177.595L581.429 171.925L578.795 168.731C580.269 166.479 581.303 163.968 581.844 161.331L585.969 160.943V152.939L581.844 152.551C581.302 149.91 580.265 147.396 578.786 145.142L581.429 141.957L575.765 136.287L572.574 138.924C570.325 137.448 567.817 136.413 565.183 135.871L564.796 131.741H556.8L556.413 135.871C553.779 136.413 551.271 137.448 549.021 138.924L545.831 136.287L540.167 141.957L542.8 145.142ZM568.439 149.272C569.955 150.787 570.988 152.719 571.407 154.822C571.826 156.925 571.612 159.105 570.793 161.087C569.974 163.069 568.586 164.762 566.805 165.954C565.024 167.146 562.93 167.782 560.788 167.782C558.646 167.782 556.552 167.146 554.771 165.954C552.99 164.762 551.602 163.069 550.783 161.087C549.964 159.105 549.751 156.925 550.17 154.822C550.589 152.719 551.621 150.787 553.137 149.272C555.167 147.245 557.917 146.107 560.784 146.107C563.65 146.107 566.4 147.245 568.43 149.272H568.439Z" fill="#EBEBEB"/>
<path d="M383.868 190.032C382.385 192.303 381.341 194.832 380.79 197.489L376.637 197.886V205.947L380.79 206.344C381.342 209 382.386 211.529 383.868 213.8L381.215 217.014L386.879 222.684L390.089 220.019C392.357 221.51 394.888 222.556 397.546 223.1L397.933 227.268H405.995L406.382 223.1C409.041 222.556 411.571 221.51 413.84 220.019L417.049 222.684L422.713 217.014L420.051 213.8C421.534 211.53 422.578 209 423.129 206.344L427.282 205.947V197.886L423.119 197.489C422.569 194.832 421.525 192.303 420.042 190.032L422.694 186.819L417.03 181.149L413.821 183.814C411.553 182.323 409.022 181.277 406.363 180.733L405.976 176.565H397.914L397.527 180.733C394.871 181.278 392.341 182.32 390.07 183.804L386.86 181.149L381.196 186.819L383.868 190.032ZM409.705 194.191C411.232 195.718 412.273 197.665 412.695 199.784C413.117 201.904 412.901 204.101 412.076 206.098C411.25 208.095 409.851 209.801 408.056 211.002C406.262 212.203 404.151 212.844 401.993 212.844C399.834 212.844 397.723 212.203 395.929 211.002C394.134 209.801 392.735 208.095 391.91 206.098C391.084 204.101 390.868 201.904 391.29 199.784C391.712 197.665 392.753 195.718 394.28 194.191C396.326 192.147 399.098 190.999 401.988 190.999C404.878 190.999 407.65 192.147 409.696 194.191H409.705Z" fill="#EBEBEB"/>
<path d="M407.488 266.072C404.996 269.884 403.244 274.132 402.324 278.594L395.348 279.255V292.788L402.324 293.45C403.246 297.911 404.998 302.159 407.488 305.972L403.032 311.359L412.595 320.932L417.975 316.472C421.777 318.963 426.014 320.713 430.464 321.632L431.125 328.625H444.624L445.285 321.641C449.758 320.723 454.017 318.97 457.84 316.472L463.221 320.932L472.784 311.359L468.328 305.972C470.818 302.159 472.57 297.911 473.492 293.45L480.468 292.788V279.255L473.492 278.594C472.57 274.133 470.818 269.885 468.328 266.072L472.784 260.685L463.221 251.111L457.84 255.572C454.031 253.08 449.788 251.326 445.332 250.403L444.672 243.409H431.144L430.483 250.393C426.027 251.317 421.784 253.07 417.975 255.563L412.595 251.093L403.032 260.666L407.488 266.072ZM450.845 273.065C453.406 275.628 455.149 278.893 455.855 282.448C456.562 286.002 456.2 289.687 454.814 293.035C453.429 296.384 451.083 299.246 448.073 301.26C445.063 303.273 441.524 304.348 437.903 304.348C434.283 304.348 430.744 303.273 427.734 301.26C424.724 299.246 422.377 296.384 420.992 293.035C419.607 289.687 419.244 286.002 419.951 282.448C420.657 278.893 422.401 275.628 424.961 273.065C426.659 271.361 428.677 270.01 430.897 269.088C433.118 268.166 435.499 267.691 437.903 267.691C440.307 267.691 442.688 268.166 444.909 269.088C447.13 270.01 449.147 271.361 450.845 273.065Z" fill="#EBEBEB"/>
<path d="M661.282 379.016C661.282 382.219 527.932 384.818 363.44 384.818C198.948 384.818 65.5986 382.219 65.5986 379.016C65.5986 375.812 198.948 373.222 363.44 373.222C527.932 373.222 661.282 375.812 661.282 379.016Z" fill="#F5F5F5"/>
<path d="M110.524 214.358C93.3051 234.516 88.2831 264.352 97.9402 289.018C108.664 279.435 116.225 264.824 116.697 252.038C117.169 239.251 113.837 226.71 110.524 214.358Z" fill="#407BFF"/>
<path d="M107.521 291.38C101.65 300.44 98.9017 311.174 99.6956 321.943C109.003 318.702 117.207 308.183 122.125 299.631C127.043 291.078 129.79 281.486 132.292 271.94C122.14 275.546 113.443 282.372 107.521 291.38Z" fill="#407BFF"/>
<path d="M105.369 249.561C98.4558 274.488 94.9625 300.241 94.9855 326.111C94.9855 333.464 95.2781 340.804 95.8634 348.131C95.8634 348.585 96.5997 348.585 96.5714 348.131C94.5332 322.327 96.0259 296.366 101.008 270.967C102.412 263.835 104.092 256.763 106.049 249.75C106.065 249.662 106.047 249.571 105.999 249.496C105.952 249.42 105.877 249.365 105.791 249.341C105.704 249.317 105.612 249.327 105.533 249.368C105.453 249.408 105.391 249.478 105.36 249.561H105.369Z" fill="#263238"/>
<path d="M96.0237 330.345C103.195 313.567 112.287 297.678 123.116 282.998C123.381 282.62 122.767 282.27 122.503 282.639C114.039 294.144 106.61 306.377 100.3 319.193C98.5442 322.804 96.8922 326.458 95.344 330.156C95.1646 330.581 95.8538 330.761 96.0237 330.345Z" fill="#263238"/>
<path d="M86.0079 305.339C90.8917 312.892 93.1757 321.836 92.5121 330.808C84.7524 328.105 77.9084 319.326 73.8114 312.2C69.7145 305.074 67.4205 297.079 65.3154 289.112C73.7964 292.117 81.0632 297.815 86.0079 305.339Z" fill="#407BFF"/>
<path d="M95.8162 336.705C89.9254 322.99 82.4584 310.009 73.5662 298.024C73.2924 297.656 72.6788 298.024 72.9526 298.374C81.8136 310.31 89.2582 323.237 95.1366 336.894C95.3065 337.301 95.9956 337.121 95.8162 336.705Z" fill="#263238"/>
<path d="M96.0894 341.289C107.04 330.005 118.217 318.957 129.129 307.673C129.179 307.604 129.202 307.52 129.195 307.435C129.188 307.35 129.151 307.271 129.091 307.211C129.031 307.151 128.952 307.114 128.867 307.107C128.782 307.1 128.698 307.123 128.629 307.172C117.679 318.456 106.502 329.504 95.5891 340.788C95.5398 340.857 95.5167 340.942 95.5237 341.026C95.5307 341.111 95.5675 341.19 95.6275 341.25C95.6875 341.311 95.7669 341.347 95.8514 341.354C95.936 341.361 96.0203 341.338 96.0894 341.289Z" fill="#263238"/>
<path d="M129.583 302.494C120.074 311.673 111.428 321.708 103.755 332.472H105.501C109.13 332.301 112.682 331.361 115.92 329.714C119.159 328.066 122.011 325.749 124.288 322.914C126.565 320.08 128.214 316.794 129.127 313.274C130.04 309.754 130.195 306.079 129.583 302.494Z" fill="#407BFF"/>
<path d="M84.6103 280.616C88.6884 287.301 92.5305 294.118 96.1366 301.067C96.3442 301.474 96.9484 301.067 96.7407 300.708C93.1409 293.778 89.302 286.964 85.2239 280.266C84.9785 279.87 84.3743 280.266 84.6103 280.616Z" fill="#263238"/>
<path d="M74.7744 246.896C73.2168 253.909 71.6686 263.019 71.6592 270.315C71.6498 277.611 73.8682 284.727 78.0029 289.613C82.1376 294.499 90.5014 296.644 93.8715 293.847L74.7744 246.896Z" fill="#407BFF"/>
<path d="M116.056 344.54H74.5576V352.242H116.056V344.54Z" fill="#263238"/>
<path d="M109.344 379.677H83.5725L78.8809 350.475H113.035L109.344 379.677Z" fill="#263238"/>
<path opacity="0.2" d="M79.1924 352.384H112.799L112.383 355.691H79.721L79.1924 352.384Z" fill="black"/>
<path d="M599.61 178.134C603.068 176.149 607.003 175.149 610.988 175.241C614.974 175.334 618.858 176.515 622.221 178.658C625.584 180.801 628.298 183.823 630.069 187.398C631.84 190.974 632.601 194.966 632.27 198.943C631.939 202.92 630.527 206.73 628.189 209.962C625.851 213.195 622.674 215.725 619.003 217.28C615.331 218.836 611.305 219.356 607.36 218.786C603.414 218.216 599.7 216.577 596.617 214.046L590.132 215.067L591.671 208.291C591.614 208.187 591.539 208.092 591.473 207.988C588.601 202.948 587.845 196.973 589.371 191.376C590.897 185.778 594.579 181.016 599.61 178.134Z" fill="#407BFF"/>
<path d="M603.489 173.276C599.995 173.991 596.73 175.557 593.984 177.835C591.238 180.113 589.094 183.033 587.743 186.337" stroke="#407BFF" stroke-width="0.5" stroke-linecap="round" stroke-linejoin="round"/>
<path d="M586.648 189.408C586.17 190.388 585.9 191.457 585.855 192.546" stroke="#407BFF" stroke-width="0.5" stroke-linecap="round" stroke-linejoin="round"/>
<path d="M607.898 205.408L598.666 196.978L601.602 193.756L607.794 199.407L618.084 189.352L621.124 192.48L607.898 205.408Z" fill="white"/>
<path d="M374.371 38.341C378.004 36.2191 382.148 35.1323 386.354 35.1981C390.559 35.264 394.667 36.4801 398.232 38.7148C401.797 40.9495 404.683 44.1176 406.579 47.8765C408.475 51.6353 409.308 55.8416 408.988 60.0402C408.668 64.2388 407.207 68.2699 404.763 71.6971C402.319 75.1243 398.986 77.8172 395.123 79.4843C391.261 81.1514 387.017 81.7293 382.85 81.1554C378.683 80.5815 374.752 78.8777 371.483 76.2284L364.648 77.353L366.225 70.1989C366.15 70.0954 366.081 69.9881 366.017 69.8776C362.952 64.5854 362.111 58.2918 363.677 52.3789C365.243 46.466 369.09 41.4171 374.371 38.341Z" fill="#407BFF"/>
<path d="M405.919 41.3841C403.643 38.3861 400.662 35.9978 397.242 34.4314C393.821 32.8651 390.067 32.1693 386.312 32.406" stroke="#407BFF" stroke-width="0.5" stroke-linecap="round" stroke-linejoin="round"/>
<path d="M382.906 32.7556C381.759 32.747 380.623 32.9822 379.573 33.4455" stroke="#407BFF" stroke-width="0.5" stroke-linecap="round" stroke-linejoin="round"/>
<path d="M395.961 54.9834H374.409V60.3797H395.961V54.9834Z" fill="white"/>
<path d="M393.969 63.3189V52.4224L399.274 57.8659L393.969 63.3189Z" fill="white"/>
<path d="M515.499 175.507C515.499 175.507 514.924 185.402 510.1 202.743C507.068 213.462 503.393 223.987 499.093 234.261C496.676 240.064 493.92 246.226 490.748 252.709C489.313 255.657 487.784 258.653 486.179 261.724C484.338 314.222 454.904 367.571 454.904 367.571C453.271 368.412 447.579 367.495 447.616 365.832C451.978 358.914 460.549 291.645 466.081 259.73C466.421 255.393 466.921 250.8 467.535 245.942C469.168 233.108 471.547 219.074 473.888 206.75C477.551 187.339 481.025 172.124 481.025 172.124L490.719 173.069L515.499 175.507Z" fill="#EEC1BB"/>
<path d="M454.583 378.912H452.931L452.459 376.823L446.852 379.375H432.645C432.645 379.375 430.389 377.107 437.148 375.301C437.474 375.21 437.79 375.087 438.092 374.933C441.698 373.241 446.814 367.524 446.814 367.524H454.602C454.84 367.886 455.052 368.265 455.235 368.658C456.103 370.34 457.566 373.988 454.583 378.912Z" fill="#263238"/>
<path d="M455.244 368.639C454.234 367.486 449.58 372.523 446.125 374.243C443.066 375.764 439.63 376.445 438.101 374.895C441.707 373.203 448.126 365.265 448.126 365.265L453.629 365.813C453.629 365.813 454.894 367.892 455.244 368.639Z" fill="#EEC1BB"/>
<path d="M527.064 248.229C526.29 253.899 525.283 259.941 524.043 266.355C534.559 301.464 512.941 370 512.941 370C509.279 370.727 506.041 370.255 504.445 369.055C508.524 348.405 505.597 294.716 502.425 262.641C502.142 259.73 501.783 256.527 501.406 253.115C500.754 247.322 499.98 240.943 499.15 234.346C497.743 223.317 496.176 211.665 494.769 201.42C493.033 188.983 491.532 178.455 490.748 173.163C490.437 170.848 490.238 169.534 490.238 169.534L520.588 172.823C520.588 172.823 528.31 181.479 529.509 208.536C529.887 221.814 529.069 235.099 527.064 248.229Z" fill="#EEC1BB"/>
<path d="M513.687 378.912H511.997L511.525 376.823L505.927 379.375H491.767C491.767 379.375 489.511 377.107 496.28 375.301C496.605 375.209 496.921 375.085 497.224 374.933C500.811 373.241 505.946 367.524 505.946 367.524H513.734C513.967 367.889 514.178 368.268 514.367 368.658C515.207 370.34 516.632 373.988 513.687 378.912Z" fill="#263238"/>
<path d="M514.348 368.639C513.319 367.486 508.684 372.523 505.22 374.243C502.161 375.765 498.715 376.445 497.205 374.895C500.792 373.204 506.466 365.813 506.466 365.813H512.724C512.724 365.813 513.98 367.892 514.348 368.639Z" fill="#EEC1BB"/>
<path d="M535.031 99.2122C533.473 97.8702 530.962 98.3805 528.819 98.1348C527.263 97.8809 525.79 97.2577 524.524 96.3172C523.258 95.3767 522.235 94.1464 521.541 92.7291C520.144 90.0545 519.738 87.0587 519.237 84.1479C518.737 81.2371 518.095 78.2413 516.302 75.7653C514.508 73.2892 510.213 70.2272 507.088 72.0984L502.906 78.591C505.412 86.1777 507.455 93.9099 509.023 101.745C509.722 105.232 510.411 108.927 512.941 111.64C515.471 114.352 519.341 115.599 523.193 115.855C525.139 116.044 527.104 115.795 528.942 115.127C529.816 114.82 530.606 114.312 531.249 113.644C531.891 112.976 532.369 112.167 532.642 111.281C532.831 110.388 532.697 109.458 532.262 108.656C531.828 107.854 531.123 107.233 530.273 106.905C532.049 106.307 533.664 105.308 534.993 103.985C536.192 102.595 536.428 100.422 535.031 99.2122Z" fill="#263238"/>
<path d="M475.078 66.9008C473.19 68.6374 471.775 70.8265 470.966 73.2619C470.156 75.6973 469.98 78.2988 470.452 80.8215C472.057 85.8208 474.492 89.1191 476.777 93.8349L484.876 61.4194C481.827 62.6291 480.279 62.2322 475.078 66.9008Z" fill="#263238"/>
<path d="M489.511 61.2302C498.847 61.4192 508.23 69.2443 508.967 76.8237C509.703 84.4031 502.245 94.2033 500.848 94.7798L496.421 96.4147C496.421 96.4147 501.301 85.1213 499.253 82.0971C497.204 79.0729 495.76 79.0446 495.76 79.0446L489.511 61.2302Z" fill="#263238"/>
<path d="M481.581 62.9976C486.443 59.5576 492.182 61.5328 495.58 62.9976C497.488 64.1009 499.138 65.5989 500.421 67.3916C501.704 69.1843 502.589 71.2304 503.019 73.3932C503.765 77.4664 504.662 82.4091 502.585 84.9891C502.017 85.7173 501.304 86.3199 500.491 86.759C499.679 87.1982 498.785 87.4643 497.865 87.5408L474.331 72.6088C475.89 68.8391 478.386 65.5307 481.581 62.9976Z" fill="#263238"/>
<path d="M491.069 118.265C492.91 119.588 494.231 118.794 496.148 117.565C507.636 110.893 502.916 105.61 502.916 105.61C500.084 103.295 499.386 100.034 499.329 94.8839C499.321 94.7341 499.299 94.5854 499.263 94.4397C499.136 93.7762 498.806 93.1685 498.319 92.7008C497.691 92.0775 496.843 91.7278 495.959 91.7278C495.075 91.7278 494.227 92.0775 493.599 92.7008L488.378 95.2808V95.5265C488.86 98.2672 489.323 100.375 489.606 102.047C489.627 102.251 489.658 102.452 489.7 102.652C489.712 102.863 489.744 103.071 489.794 103.276C490.078 105.591 486.821 109.655 485.386 110.732C484.508 111.432 484.839 113.832 491.069 118.265Z" fill="#EEC1BB"/>
<path opacity="0.2" d="M488.359 95.1768C488.369 95.2616 488.369 95.3472 488.359 95.432C488.841 98.1632 489.303 100.28 489.587 101.953C489.633 102.152 489.664 102.354 489.681 102.558C489.695 102.775 489.695 102.993 489.681 103.21C493.652 101.303 496.946 98.2263 499.121 94.3924C498.985 93.7292 498.657 93.1208 498.177 92.6441C497.558 92.0129 496.716 91.6511 495.832 91.6369C494.949 91.6228 494.096 91.9574 493.457 92.5685L488.359 95.1768Z" fill="black"/>
<path d="M500.036 75.066C501.537 84.5166 502.387 88.4953 498.837 94.4303C493.504 103.352 481.845 103.361 477.569 94.5815C473.793 86.6619 471.905 72.5427 480.005 66.5983C488.104 60.6539 498.526 65.5966 500.036 75.066Z" fill="#EEC1BB"/>
<path d="M505.672 82.3808C505.155 84.3668 503.871 86.0662 502.104 87.1061C499.81 88.3914 497.469 84.7718 497.639 82.0689C497.728 80.8454 498.254 79.6949 499.121 78.8274C499.987 77.96 501.136 77.4333 502.359 77.3436C504.832 77.1735 506.342 79.8575 505.672 82.3808Z" fill="#EEC1BB"/>
<path opacity="0.2" d="M500.32 83.2975C500.143 82.3887 500.326 81.4467 500.829 80.6702C501.345 79.9006 502.141 79.3644 503.048 79.177" stroke="black" stroke-width="0.5" stroke-linecap="round" stroke-linejoin="round"/>
<path d="M488.501 81.3696C488.728 82.3619 488.416 83.3164 487.802 83.496C487.189 83.6755 486.519 83.014 486.302 82.0122C486.084 81.0105 486.396 80.0654 487 79.8858C487.604 79.7063 488.284 80.3678 488.501 81.3696Z" fill="#263238"/>
<path d="M479.316 83.7888C479.533 84.7338 479.212 85.6789 478.608 85.8679C478.004 86.0569 477.333 85.4048 477.126 84.4314C476.918 83.458 477.23 82.5413 477.834 82.3617C478.438 82.1822 479.108 82.8437 479.316 83.7888Z" fill="#263238"/>
<path d="M489.52 77.4097C489.405 77.4569 489.276 77.4569 489.161 77.4097C488.654 77.1359 488.086 76.9925 487.509 76.9925C486.933 76.9925 486.365 77.1359 485.857 77.4097C485.801 77.4426 485.738 77.4627 485.673 77.4684C485.608 77.4741 485.542 77.4654 485.481 77.4428C485.419 77.4202 485.364 77.3844 485.318 77.3378C485.272 77.2912 485.237 77.2351 485.215 77.1734C485.16 77.0576 485.149 76.9258 485.184 76.8024C485.219 76.679 485.297 76.5724 485.404 76.5024C486.044 76.1533 486.762 75.9705 487.49 75.9705C488.219 75.9705 488.937 76.1533 489.577 76.5024C489.684 76.5674 489.763 76.6713 489.796 76.7926C489.83 76.914 489.815 77.0435 489.756 77.1545C489.708 77.2633 489.625 77.3531 489.52 77.4097Z" fill="#263238"/>
<path d="M474.964 80.0088C474.912 80.005 474.862 79.9905 474.816 79.9661C474.771 79.9416 474.731 79.9079 474.699 79.867C474.631 79.7664 474.601 79.6451 474.613 79.5243C474.625 79.4034 474.679 79.2906 474.765 79.2055C475.222 78.6919 475.804 78.3048 476.454 78.0814C477.103 77.8579 477.8 77.8057 478.475 77.9296C478.53 77.9496 478.579 77.9802 478.622 78.0196C478.664 78.0591 478.698 78.1066 478.722 78.1594C478.746 78.2123 478.759 78.2693 478.76 78.3272C478.762 78.3851 478.751 78.4427 478.73 78.4967C478.705 78.6101 478.637 78.7092 478.54 78.7728C478.443 78.8364 478.325 78.8594 478.211 78.8369C477.674 78.7475 477.124 78.7969 476.612 78.9805C476.099 79.1641 475.643 79.4758 475.285 79.8859C475.242 79.9272 475.192 79.9593 475.137 79.9805C475.082 80.0016 475.023 80.0112 474.964 80.0088Z" fill="#263238"/>
<path d="M481.695 82.6926C481.397 84.9081 480.872 87.087 480.128 89.1946C480.086 89.3027 480.07 89.4188 480.082 89.534C480.093 89.6492 480.13 89.7602 480.192 89.8582C480.253 89.9563 480.336 90.0387 480.435 90.0991C480.534 90.1594 480.645 90.1959 480.76 90.2058C481.636 90.2315 482.503 90.0122 483.262 89.5726L481.695 82.6926Z" fill="#D4827D"/>
<path d="M487.368 79.8291L485.093 79.9047C485.093 79.9047 486.688 81.1805 487.368 79.8291Z" fill="#263238"/>
<path d="M478.06 82.3618L475.785 82.4374C475.785 82.4374 477.39 83.7132 478.06 82.3618Z" fill="#263238"/>
<path d="M497.196 77.9672C497.196 77.9672 490.691 72.7883 489.568 67.5716C489.568 67.5716 469.536 66.8061 474.341 83.1178C474.341 83.1178 467.563 69.49 482.837 64.2733C498.111 59.0566 505.153 79.0635 499.376 87.4839C499.282 87.4083 501.264 81.2088 497.196 77.9672Z" fill="#263238"/>
<path d="M476.087 67.6189C474.377 69.9854 473.465 72.8354 473.482 75.7559C473.859 77.8067 476.918 78.7801 476.918 78.7801L479.514 73.6862L480.222 77.6177C482.539 77.0299 484.641 75.7961 486.285 74.0597C487.93 72.3232 489.048 70.1554 489.511 67.8079L485.385 62.8086C485.385 62.8086 477.664 65.6816 476.087 67.6189Z" fill="#263238"/>
<path d="M487.17 91.2643C487.485 91.3162 487.809 91.2932 488.113 91.1971C488.418 91.101 488.696 90.9345 488.925 90.711C489.154 90.4875 489.327 90.2132 489.43 89.9104C489.534 89.6076 489.565 89.2847 489.52 88.9678" stroke="#263238" stroke-width="0.5" stroke-linecap="round" stroke-linejoin="round"/>
<path opacity="0.2" d="M505.833 88.1929C505.833 88.1929 512.894 79.4322 507.362 71.9568C507.362 71.9568 511.44 74.792 510.666 79.6023C510.053 83.4109 508.401 86.4918 505.833 88.1929Z" fill="black"/>
<path opacity="0.2" d="M527.063 248.229C518.761 251.033 510.11 252.665 501.358 253.077C500.707 247.284 499.933 240.905 499.102 234.308C496.695 240.111 493.929 246.273 490.757 252.756C482.659 252.02 474.779 249.732 467.544 246.018C469.168 233.108 471.556 219.083 473.888 206.769C477.124 204.872 480.623 203.464 484.272 202.592C487.719 201.762 491.251 201.333 494.797 201.316C499.96 201.296 505.112 201.771 510.184 202.734C516.774 203.97 523.218 205.886 529.414 208.451C529.829 221.754 529.042 235.068 527.063 248.229Z" fill="black"/>
<path d="M480.496 169.449H520.795L521.89 174.647C521.89 174.647 536.692 195.155 529.187 246.301C529.187 246.301 496.761 250.081 466.223 243.466C466.223 243.466 473.086 190.921 480.241 173.768L480.496 169.449Z" fill="#263238"/>
<path d="M518.709 153.581L521.541 175.034L477.362 173.258C477.249 168.646 481.355 156.417 480.874 153.071C479.533 148.941 472.746 142.675 470.943 137.714C469.055 130.777 472.991 111.725 474.294 111.12C475.861 110.383 477.825 110.449 479.014 109.92C483.734 108.814 494.373 104.996 499.15 104.401C500.094 104.316 500.99 104.155 501.906 104.042C501.906 104.042 519.984 103.172 520.786 110.534C518.18 124.726 517.482 139.204 518.709 153.581Z" fill="#407BFF"/>
<path opacity="0.2" d="M518.359 149.036L518.001 143.157L511.308 124.899L516.556 146.399L499.933 152.221L518.359 149.036Z" fill="black"/>
<path opacity="0.2" d="M499.121 168.183C499.715 168.107 504.955 162.399 504.955 162.399L519.964 162.966L519.2 157.503C519.643 157.154 501.67 157.976 501.67 157.976L499.083 163.58L499.121 168.183Z" fill="black"/>
<path d="M514.018 105.752C514.792 105.856 517.926 104.07 523.599 111.366C529.273 118.662 535.635 146.456 535.994 150.519C536.447 155.67 533.02 158.203 529.594 158.77C519.342 160.471 500.405 160.811 500.405 160.811V152.079L519.285 147.798C519.285 147.798 508.561 121.96 510.261 115.297C511.96 108.634 514.018 105.752 514.018 105.752Z" fill="#407BFF"/>
<path d="M505.521 104.022C504.844 107.64 503.145 110.988 500.625 113.668C498.105 116.348 494.871 118.248 491.305 119.143C488.746 119.758 485.877 118.34 483.856 116.658C481.807 114.943 480.44 112.549 480.005 109.91C488.897 106.413 496.95 103.399 505.521 104.022Z" fill="#EEC1BB"/>
<path opacity="0.2" d="M519.294 147.798C519.294 147.798 522.362 147.618 523.665 149.3C523.665 149.3 522.881 146.087 518.869 146.758L519.294 147.798Z" fill="black"/>
<path d="M494.297 203.811V106.47H397.169V145.378C398.934 146.049 404.721 146.493 406.43 145.832C409.498 144.688 407.496 141.154 410.46 139.765C414.822 137.704 420.269 140.606 422.553 144.858C424.328 148.157 424.658 149.886 424.498 152.74C424.658 155.575 424.328 157.314 422.553 160.622C420.269 164.875 414.822 167.776 410.46 165.716C407.496 164.317 409.903 160.868 406.835 159.724C405.089 159.072 398.934 159.431 397.169 160.102V203.811H440.593C440.664 204.773 440.532 205.739 440.206 206.646C439.064 209.718 435.807 211.542 434.41 214.509C432.352 218.875 435.25 224.328 439.498 226.615C442.792 228.392 444.52 228.732 447.371 228.562C450.203 228.732 451.949 228.392 455.244 226.615C459.492 224.328 462.39 218.875 460.332 214.509C458.944 211.542 455.678 209.718 454.536 206.646C454.21 205.739 454.078 204.773 454.149 203.811H494.297Z" fill="#407BFF"/>
<path d="M499.121 203.811V106.47H401.993V145.378C403.724 146.096 405.656 146.16 407.431 145.558C410.499 144.414 412.321 141.154 415.275 139.765C419.646 137.704 425.083 140.606 427.377 144.858C429.152 148.157 429.482 149.886 429.322 152.74C429.482 155.575 429.152 157.314 427.377 160.622C425.083 164.875 419.646 167.776 415.275 165.716C412.321 164.317 410.499 161.057 407.431 159.913C405.655 159.314 403.723 159.381 401.993 160.102V203.811H445.417C445.488 204.773 445.356 205.739 445.03 206.646C443.888 209.718 440.622 211.542 439.234 214.509C437.176 218.875 440.074 224.328 444.322 226.615C447.617 228.392 449.344 228.732 452.195 228.562C455.027 228.732 456.764 228.392 460.068 226.615C464.316 224.328 467.214 218.875 465.156 214.509C463.759 211.542 460.502 209.718 459.36 206.646C459.034 205.739 458.902 204.773 458.973 203.811H499.121Z" fill="#407BFF"/>
<g opacity="0.3">
<path d="M499.121 203.811V106.47H401.993V145.378C403.724 146.096 405.656 146.16 407.431 145.558C410.499 144.414 412.321 141.154 415.275 139.765C419.646 137.704 425.083 140.606 427.377 144.858C429.152 148.157 429.482 149.886 429.322 152.74C429.482 155.575 429.152 157.314 427.377 160.622C425.083 164.875 419.646 167.776 415.275 165.716C412.321 164.317 410.499 161.057 407.431 159.913C405.655 159.314 403.723 159.381 401.993 160.102V203.811H445.417C445.488 204.773 445.356 205.739 445.03 206.646C443.888 209.718 440.622 211.542 439.234 214.509C437.176 218.875 440.074 224.328 444.322 226.615C447.617 228.392 449.344 228.732 452.195 228.562C455.027 228.732 456.764 228.392 460.068 226.615C464.316 224.328 467.214 218.875 465.156 214.509C463.759 211.542 460.502 209.718 459.36 206.646C459.034 205.739 458.902 204.773 458.973 203.811H499.121Z" fill="white"/>
</g>
<path d="M499.121 153.789C499.121 153.789 492.607 155.415 491.89 156.955C491.173 158.496 493.589 158.373 493.589 158.373C493.589 158.373 490.937 158.666 490.908 159.8C490.908 161.17 493.41 161.038 493.41 161.038C493.41 161.038 491.257 161.369 491.295 162.38C491.333 163.391 494.203 163.486 494.203 163.486C494.203 163.486 492.74 164.005 493.164 164.695C493.589 165.385 499.669 165.64 501.453 164.478C503.237 163.315 503.256 155.528 502.906 153.818C502.557 152.107 501.264 151.2 499.13 148.61V153.789H499.121Z" fill="#EEC1BB"/>
<path opacity="0.2" d="M493.589 158.496L498.177 157.768C498.209 157.759 498.236 157.739 498.253 157.711C498.271 157.683 498.277 157.649 498.271 157.617C498.267 157.586 498.251 157.558 498.226 157.539C498.201 157.519 498.17 157.51 498.139 157.513L493.551 158.241C493.535 158.244 493.52 158.251 493.506 158.26C493.492 158.27 493.481 158.282 493.472 158.296C493.463 158.31 493.457 158.326 493.455 158.342C493.452 158.359 493.453 158.376 493.457 158.392C493.485 158.449 493.533 158.505 493.589 158.496Z" fill="black"/>
<path opacity="0.2" d="M493.542 161.161L497.997 160.811C498.014 160.809 498.029 160.803 498.043 160.795C498.057 160.787 498.07 160.775 498.079 160.762C498.089 160.749 498.096 160.734 498.1 160.718C498.103 160.702 498.104 160.686 498.101 160.669C498.101 160.654 498.098 160.638 498.092 160.624C498.086 160.609 498.076 160.596 498.065 160.586C498.053 160.575 498.04 160.567 498.025 160.562C498.01 160.557 497.994 160.555 497.979 160.556L493.523 160.906C493.495 160.913 493.47 160.93 493.453 160.953C493.435 160.976 493.426 161.004 493.426 161.033C493.426 161.062 493.435 161.09 493.453 161.114C493.47 161.137 493.495 161.153 493.523 161.161H493.542Z" fill="black"/>
<path opacity="0.2" d="M494.363 163.609L497.686 163.448C497.718 163.443 497.746 163.427 497.767 163.403C497.788 163.379 497.799 163.348 497.799 163.316C497.799 163.24 497.742 163.183 497.676 163.193L494.354 163.353C494.338 163.354 494.322 163.359 494.308 163.366C494.294 163.374 494.282 163.384 494.272 163.396C494.262 163.409 494.255 163.423 494.252 163.439C494.248 163.454 494.247 163.47 494.25 163.486C494.25 163.561 494.306 163.618 494.363 163.609Z" fill="black"/>
<path d="M424.564 151.209C424.564 151.209 431.55 153.166 432.267 154.697C432.984 156.228 430.568 156.114 430.568 156.114C430.568 156.114 433.211 156.407 433.239 157.551C433.239 158.921 430.747 158.789 430.747 158.789C430.747 158.789 432.899 159.11 432.852 160.131C432.805 161.151 429.945 161.236 429.945 161.236C429.945 161.236 431.417 161.756 430.993 162.446C430.568 163.136 424.488 163.391 422.695 162.219C420.901 161.047 420.901 153.27 421.25 151.568C421.6 149.867 421.741 150.141 423.884 147.552L424.271 148.998C424.378 149.394 424.447 149.799 424.479 150.208L424.564 151.209Z" fill="#EEC1BB"/>
<path opacity="0.2" d="M430.558 156.246L425.97 155.519C425.94 155.51 425.914 155.491 425.897 155.465C425.88 155.439 425.872 155.408 425.876 155.377C425.877 155.361 425.881 155.345 425.889 155.331C425.896 155.316 425.906 155.303 425.918 155.293C425.931 155.282 425.945 155.274 425.96 155.269C425.976 155.264 425.992 155.262 426.008 155.264L430.596 156.001C430.626 156.009 430.652 156.028 430.669 156.054C430.686 156.08 430.694 156.111 430.69 156.142C430.684 156.172 430.667 156.199 430.643 156.218C430.619 156.237 430.589 156.247 430.558 156.246Z" fill="black"/>
<path opacity="0.2" d="M430.605 158.902L426.14 158.553C426.083 158.553 426.036 158.486 426.036 158.42C426.038 158.388 426.052 158.358 426.075 158.336C426.097 158.313 426.127 158.3 426.159 158.297L430.624 158.647C430.64 158.649 430.656 158.655 430.67 158.663C430.684 158.672 430.696 158.683 430.706 158.696C430.715 158.709 430.722 158.724 430.726 158.74C430.73 158.756 430.73 158.773 430.728 158.789C430.728 158.805 430.725 158.82 430.718 158.834C430.712 158.849 430.703 158.862 430.691 158.873C430.68 158.883 430.666 158.891 430.651 158.896C430.637 158.902 430.621 158.904 430.605 158.902Z" fill="black"/>
<path opacity="0.2" d="M429.784 161.359L426.461 161.189C426.405 161.189 426.357 161.123 426.357 161.057C426.357 161.024 426.37 160.993 426.393 160.97C426.416 160.947 426.448 160.934 426.48 160.934L429.803 161.104C429.834 161.109 429.862 161.125 429.881 161.15C429.9 161.174 429.91 161.205 429.907 161.236C429.907 161.269 429.894 161.3 429.871 161.323C429.848 161.346 429.817 161.359 429.784 161.359Z" fill="black"/>
<path d="M281.482 368.025L291.121 368.97L298.248 344.531L283.578 342.933L281.482 368.025Z" fill="#EEC1BB"/>
<path d="M292.518 364.708H289.081C288.697 364.713 288.32 364.808 287.979 364.985C287.638 365.162 287.343 365.417 287.118 365.728C285.135 368.44 283.644 367.42 281.454 364.868C280.085 364.708 279.717 366.286 279.566 366.711L276.989 376.077C276.935 376.263 276.919 376.458 276.941 376.65C276.963 376.842 277.023 377.029 277.116 377.198C277.21 377.367 277.336 377.517 277.488 377.637C277.639 377.758 277.813 377.847 277.999 377.901C278.137 377.938 278.28 377.957 278.424 377.957H305.762C310.095 377.957 311.001 373.582 309.207 373.175C301.174 371.399 295.491 369.026 293.008 366.692C292.546 366.276 293.018 365.974 292.518 364.708Z" fill="#263238"/>
<path d="M299.984 367.372C300.164 367.245 300.311 367.076 300.412 366.881C300.514 366.685 300.568 366.468 300.569 366.248C300.585 366.129 300.567 366.008 300.517 365.9C300.467 365.791 300.387 365.699 300.286 365.634C299.21 364.868 294.905 366.89 294.424 367.127C294.397 367.135 294.373 367.149 294.353 367.169C294.333 367.189 294.319 367.213 294.311 367.24C294.295 367.288 294.298 367.34 294.319 367.385C294.34 367.431 294.378 367.467 294.424 367.486C295.483 367.733 296.565 367.872 297.652 367.902C298.466 367.975 299.282 367.79 299.984 367.372ZM299.984 365.964C300.026 365.991 300.059 366.03 300.079 366.075C300.099 366.12 300.105 366.171 300.097 366.219C300.087 366.378 300.044 366.534 299.971 366.675C299.898 366.817 299.796 366.941 299.673 367.042C298.729 367.779 296.331 367.457 295.066 367.221C296.888 366.437 299.427 365.548 300.022 365.964H299.984Z" fill="#407BFF"/>
<path d="M294.576 367.524C295.869 366.985 298.569 364.859 298.427 363.744C298.427 363.507 298.239 363.233 297.653 363.148C295.293 362.884 294.283 367.117 294.283 367.297C294.27 367.333 294.269 367.373 294.279 367.41C294.289 367.447 294.31 367.48 294.34 367.505H294.472L294.576 367.524ZM297.568 363.488C298.012 363.536 298.012 363.696 298.012 363.744C298.135 364.433 296.171 366.201 294.765 366.938C295.057 365.993 295.916 363.479 297.417 363.479L297.568 363.488Z" fill="#407BFF"/>
<path d="M294.906 367.363C294.312 367.448 293.744 367.661 293.24 367.987C292.737 368.314 292.31 368.746 291.989 369.253" stroke="#407BFF" stroke-width="0.5" stroke-linecap="round" stroke-linejoin="round"/>
<path d="M297.048 368.979C296.454 369.065 295.884 369.278 295.379 369.605C294.874 369.931 294.446 370.362 294.122 370.869" stroke="#407BFF" stroke-width="0.5" stroke-linecap="round" stroke-linejoin="round"/>
<path d="M299.711 370.331C299.115 370.415 298.546 370.628 298.04 370.955C297.535 371.281 297.107 371.713 296.784 372.221" stroke="#407BFF" stroke-width="0.5" stroke-linecap="round" stroke-linejoin="round"/>
<path opacity="0.3" d="M294.481 357.449L293.603 360.445L282.266 358.697L282.473 356.24L294.481 357.449Z" fill="black"/>
<path d="M337.603 368.025L347.241 368.97L354.359 344.531L339.698 342.933L337.603 368.025Z" fill="#EEC1BB"/>
<path d="M348.639 364.708H345.193C344.809 364.713 344.432 364.809 344.091 364.986C343.75 365.163 343.455 365.417 343.23 365.728C341.247 368.44 339.756 367.42 337.566 364.868C336.187 364.708 335.819 366.286 335.678 366.711L333.11 376.077C333.057 376.263 333.04 376.458 333.062 376.65C333.084 376.842 333.144 377.029 333.237 377.198C333.331 377.367 333.457 377.517 333.609 377.637C333.76 377.758 333.934 377.847 334.12 377.901C334.258 377.939 334.401 377.958 334.545 377.957H361.817C366.15 377.957 367.047 373.582 365.263 373.175C357.229 371.399 351.537 369.026 349.054 366.692C348.667 366.276 349.139 365.974 348.639 364.708Z" fill="#263238"/>
<path d="M356.106 367.372C356.283 367.242 356.428 367.073 356.529 366.878C356.631 366.683 356.686 366.468 356.691 366.248C356.705 366.129 356.685 366.009 356.635 365.901C356.585 365.793 356.507 365.7 356.408 365.634C355.332 364.868 351.027 366.89 350.546 367.127C350.518 367.135 350.492 367.149 350.471 367.169C350.45 367.189 350.433 367.213 350.423 367.24C350.408 367.289 350.412 367.342 350.435 367.388C350.458 367.433 350.498 367.469 350.546 367.486C351.602 367.733 352.68 367.872 353.765 367.902C354.581 367.975 355.4 367.79 356.106 367.372ZM356.106 365.964C356.149 365.989 356.184 366.027 356.204 366.073C356.225 366.119 356.23 366.17 356.219 366.219C356.211 366.379 356.168 366.535 356.095 366.676C356.022 366.818 355.919 366.943 355.794 367.042C354.85 367.779 352.462 367.457 351.188 367.221C353 366.437 355.539 365.548 356.134 365.964H356.106Z" fill="#407BFF"/>
<path d="M350.686 367.524C351.98 366.985 354.689 364.859 354.538 363.744C354.538 363.507 354.349 363.233 353.764 363.148C351.404 362.884 350.394 367.117 350.394 367.297C350.383 367.333 350.383 367.372 350.393 367.409C350.403 367.445 350.423 367.479 350.45 367.505H350.583L350.686 367.524ZM353.688 363.488C354.123 363.536 354.123 363.696 354.123 363.744C354.245 364.433 352.282 366.201 350.875 366.938C351.168 365.993 352.036 363.479 353.528 363.479L353.688 363.488Z" fill="#407BFF"/>
<path d="M351.027 367.363C350.432 367.448 349.862 367.661 349.357 367.987C348.852 368.313 348.423 368.745 348.101 369.253" stroke="#407BFF" stroke-width="0.5" stroke-linecap="round" stroke-linejoin="round"/>
<path d="M353.16 368.979C352.567 369.065 351.999 369.279 351.495 369.605C350.992 369.931 350.565 370.362 350.243 370.869" stroke="#407BFF" stroke-width="0.5" stroke-linecap="round" stroke-linejoin="round"/>
<path d="M355.822 370.331C355.228 370.415 354.66 370.628 354.156 370.955C353.653 371.281 353.226 371.713 352.905 372.221" stroke="#407BFF" stroke-width="0.5" stroke-linecap="round" stroke-linejoin="round"/>
<path opacity="0.3" d="M350.592 357.449L349.724 360.445L338.377 358.697L338.585 356.24L350.592 357.449Z" fill="black"/>
<path d="M358.201 183.889C358.201 183.889 366.197 219.216 370.001 249.987C371.162 259.362 371.379 271.903 369.331 281.174L353.934 357.818L334.554 355.871C337.603 322.794 341.842 282.053 343.05 264.701C338.783 244.373 329.702 219.773 320.771 195.296L358.201 183.889Z" fill="#407BFF"/>
<g opacity="0.2">
<path d="M358.201 183.889C358.201 183.889 366.197 219.216 370.001 249.987C371.162 259.362 371.379 271.903 369.331 281.174L353.934 357.818L334.554 355.871C337.603 322.794 341.842 282.053 343.05 264.701C338.783 244.373 329.702 219.773 320.771 195.296L358.201 183.889Z" fill="black"/>
</g>
<path d="M294.528 270.835C294.962 268.945 295.661 265.042 296.52 259.919H296.444C297.067 253.153 298.238 221.739 300.381 201.694C302.023 188.936 305.28 180.298 308.565 176.064C308.726 175.847 308.886 175.658 309.028 175.479C309.575 174.798 309.906 174.42 309.906 174.42C310.529 174.581 311.142 174.723 311.794 174.855L312.483 175.006C326.909 177.855 341.79 177.429 356.029 173.759C358.163 179.032 359.749 190.278 361.306 201.931C358.89 204.596 348.251 208.045 336.054 210.332L332.571 226.086C330.74 235.849 328.399 245.432 326.397 254.051L324.311 263.501C324.188 264.116 324.056 264.73 323.943 265.335C322.886 270.769 297.7 358.262 297.7 358.262L281.293 357.317C281.293 357.317 288.59 296.72 294.528 270.835Z" fill="#407BFF"/>
<path opacity="0.2" d="M294.528 270.835C294.962 268.945 295.661 265.042 296.52 259.919H296.444C297.067 253.153 298.238 221.739 300.381 201.694C302.023 188.936 305.28 180.298 308.565 176.064C308.726 175.847 308.886 175.658 309.028 175.479C309.575 174.798 309.906 174.42 309.906 174.42C310.529 174.581 311.142 174.723 311.794 174.855L312.483 175.006C326.909 177.855 341.79 177.429 356.029 173.759C358.163 179.032 359.749 190.278 361.306 201.931C358.89 204.596 348.251 208.045 336.054 210.332L332.571 226.086C330.74 235.849 328.399 245.432 326.397 254.051L324.311 263.501C324.188 264.116 324.056 264.73 323.943 265.335C322.886 270.769 297.7 358.262 297.7 358.262L281.293 357.317C281.293 357.317 288.59 296.72 294.528 270.835Z" fill="black"/>
<path opacity="0.2" d="M332.289 227.523C332.222 227.844 339.841 200.267 339.841 200.267C339.841 200.267 346.222 224.886 336.508 240.291L332.289 227.523Z" fill="black"/>
<path d="M316.014 103.097C316.014 103.097 319.865 106.064 324.831 110.345C325.868 111.235 327.001 112.005 328.21 112.642C331.457 114.371 334.422 115.363 335.224 113.795C335.406 113.44 335.549 113.066 335.649 112.679C336.329 110.052 336.045 106.357 333.921 104.675C331.533 102.785 330.381 101.131 330.806 98.5508C331.084 97.0198 331.547 95.5283 332.184 94.109L330.296 91.907L320.45 81.9556C320.696 88.5993 321.206 99.4864 316.014 103.097Z" fill="#EEC1BB"/>
<path opacity="0.2" d="M330.731 99.1177C328.022 97.5111 325.067 94.7138 325.407 91.5573C325.527 90.3877 325.783 89.2363 326.171 88.1267L331.675 95.4131C331.233 96.612 330.917 97.8535 330.731 99.1177Z" fill="black"/>
<path d="M317.665 71.2857C318.609 81.4167 318.77 85.7073 323.99 91.0185C331.844 99.0137 343.927 96.3203 346.004 86.2932C347.892 77.2585 346.051 62.2132 336.121 57.9415C326.19 53.6698 316.74 61.1547 317.665 71.2857Z" fill="#EEC1BB"/>
<path d="M330.268 74.4801C330.325 75.4251 330.9 76.2095 331.571 76.219C332.241 76.2284 332.732 75.4818 332.675 74.5273C332.619 73.5728 332.043 72.7979 331.382 72.7884C330.721 72.779 330.211 73.535 330.268 74.4801Z" fill="#263238"/>
<path d="M340.784 74.3384C340.784 75.2834 341.417 76.0111 342.078 76.03C342.738 76.0489 343.239 75.3023 343.182 74.3856C343.126 73.4689 342.55 72.7129 341.889 72.694C341.228 72.6751 340.699 73.3933 340.784 74.3384Z" fill="#263238"/>
<path d="M328.663 70.8511C328.727 70.8578 328.792 70.8512 328.854 70.8317C328.916 70.8122 328.973 70.7802 329.022 70.7377C329.457 70.3179 329.988 70.012 330.569 69.8471C331.151 69.6823 331.764 69.6636 332.354 69.7926C332.415 69.8111 332.479 69.8168 332.542 69.8095C332.605 69.8021 332.666 69.7819 332.72 69.7499C332.775 69.718 332.823 69.6751 332.861 69.6239C332.898 69.5728 332.925 69.5144 332.939 69.4524C332.964 69.3202 332.939 69.1835 332.869 69.0685C332.799 68.9535 332.69 68.8681 332.562 68.8286C331.818 68.6499 331.042 68.66 330.303 68.8581C329.565 69.0561 328.887 69.4358 328.332 69.9627C328.268 70.0348 328.224 70.1233 328.206 70.2185C328.188 70.3137 328.197 70.4119 328.231 70.5026C328.265 70.5932 328.324 70.6728 328.4 70.7326C328.476 70.7923 328.567 70.8301 328.663 70.8416V70.8511Z" fill="#263238"/>
<path d="M343.994 70.3503C344.114 70.3784 344.239 70.3581 344.343 70.2936C344.398 70.2574 344.445 70.2108 344.481 70.1563C344.517 70.1018 344.542 70.0407 344.554 69.9764C344.567 69.9122 344.566 69.8461 344.553 69.7821C344.539 69.7181 344.513 69.6574 344.476 69.6037C344.07 68.9117 343.511 68.3224 342.841 67.8816C342.172 67.4407 341.41 67.1601 340.615 67.0615C340.551 67.0574 340.488 67.0668 340.428 67.089C340.368 67.1112 340.314 67.1457 340.269 67.1903C340.223 67.2348 340.188 67.2885 340.164 67.3477C340.141 67.4069 340.13 67.4704 340.133 67.534C340.137 67.6683 340.191 67.7963 340.283 67.8939C340.375 67.9914 340.5 68.0517 340.634 68.0632C341.262 68.1495 341.862 68.3793 342.388 68.7349C342.913 69.0905 343.35 69.5624 343.664 70.114C343.742 70.2297 343.859 70.3135 343.994 70.3503Z" fill="#263238"/>
<path d="M321.98 77.6366C321.98 77.6366 325.095 72.9113 323.811 63.7159C323.694 62.9774 323.866 62.2221 324.292 61.6075C324.718 60.993 325.364 60.5667 326.096 60.4177C330.467 59.5671 336.3 54.0574 343.418 65.0012C343.418 65.0012 340.02 51.8933 320.139 57.1761C302.449 61.9014 314.56 76.89 316.363 78.4305C318.166 79.9709 321.98 77.6366 321.98 77.6366Z" fill="#263238"/>
<path d="M314.607 79.5457C315.677 81.4221 317.445 82.7982 319.525 83.3732C322.197 84.0442 323.584 79.7348 322.669 77.0413C322.237 75.834 321.39 74.8199 320.28 74.1809C319.169 73.5419 317.867 73.3197 316.608 73.5541C314.04 74.0739 313.238 77.1736 314.607 79.5457Z" fill="#EEC1BB"/>
<path d="M338.197 84.2331C337.505 85.4291 336.899 86.6735 336.385 87.9567C336.149 87.9567 335.913 87.8622 335.677 87.796C332.458 87.04 331.212 85.6318 330.806 84.2898C330.621 83.6309 330.599 82.937 330.74 82.2674C330.807 81.8868 330.928 81.5176 331.099 81.1711C332.562 82.5887 335.516 83.5243 337.112 84.0063C337.773 84.1481 338.197 84.2331 338.197 84.2331Z" fill="#263238"/>
<path d="M337.112 83.9591L336.546 85.0459C333.516 84.3276 331.477 83.4109 330.74 82.2674C330.807 81.8868 330.928 81.5176 331.099 81.1711C332.562 82.5887 335.517 83.5243 337.112 83.9591Z" fill="white"/>
<path d="M335.678 87.796C332.459 87.0399 331.213 85.6318 330.807 84.2898C332.025 84.6013 333.179 85.126 334.214 85.8397C334.896 86.3215 335.408 87.006 335.678 87.796Z" fill="#DC5753"/>
<path d="M338.037 74.0549C338.943 76.219 340.069 78.2839 341.398 80.2167C341.47 80.3138 341.518 80.4263 341.539 80.5453C341.559 80.6644 341.552 80.7866 341.517 80.9023C341.482 81.018 341.421 81.124 341.338 81.2117C341.255 81.2994 341.153 81.3664 341.039 81.4075C340.154 81.6732 339.214 81.6896 338.32 81.4547L338.037 74.0549Z" fill="#D4827D"/>
<path d="M331.175 72.7695L333.497 72.2119C333.497 72.2119 332.223 73.9508 331.175 72.7695Z" fill="#263238"/>
<path d="M341.615 72.7222L343.937 72.1741C343.937 72.1741 342.673 73.9035 341.615 72.7222Z" fill="#263238"/>
<path d="M345.193 69.2918C345.193 69.2918 351.319 62.0337 347.232 56.0609C345.693 53.8117 342.87 53.4809 340.378 52.3752C334.639 49.8425 329.994 49.3321 322.65 56.524C315.022 64.0089 313.644 66.5322 322.055 75.7465C322.055 75.7465 321.111 74.5463 324.255 71.8056C327.398 69.0649 330.797 66.6172 329.135 63.9616C329.135 63.9616 331.722 64.9067 331.901 67.4205L336.451 66.1731C336.251 64.9122 335.774 63.7115 335.054 62.6574C336.405 63.47 337.491 64.6587 338.179 66.0786L342.106 66.8251C342.106 66.8251 341.53 63.215 340.425 61.9108C340.425 61.9014 344.022 65.6155 345.193 69.2918Z" fill="#263238"/>
<path opacity="0.2" d="M320.62 79.2433C320.531 78.2769 320.095 77.3757 319.391 76.708C318.688 76.0402 317.766 75.6515 316.797 75.6143" stroke="black" stroke-width="0.5" stroke-linecap="round" stroke-linejoin="round"/>
<path d="M368.717 163.297C368.144 162.852 367.604 162.366 367.103 161.841C366.669 161.388 366.376 160.811 366.48 160.811C366.457 160.746 366.429 160.683 366.395 160.622L366.215 160.197L365.772 159.063C365.479 158.25 365.186 157.362 364.903 156.464C364.299 154.668 363.742 152.807 363.195 150.935C362.09 147.155 361.033 143.375 359.966 139.538L358.003 131.524C357.719 130.229 357.285 128.33 356.7 126.175C355.105 120.287 352.442 112.443 348.959 109.315C343.559 105.176 340.104 110.26 337.886 115.59C335.743 120.684 341.02 134.614 341.02 134.614L347.439 134.151C348.251 137.109 349.101 140.058 349.941 143.063C351.036 146.994 352.329 150.841 353.632 154.697C354.302 156.587 354.991 158.562 355.746 160.509C356.19 161.501 356.596 162.475 357.049 163.505C357.266 164.015 357.521 164.554 357.795 165.092L358.276 165.99C358.474 166.365 358.698 166.725 358.947 167.068C359.875 168.272 361.05 169.264 362.392 169.978C363.394 170.542 364.459 170.986 365.564 171.301C367.557 171.876 369.628 172.124 371.7 172.039L372.861 166.425C371.474 165.385 369.954 164.308 368.717 163.297Z" fill="#263238"/>
<path opacity="0.5" d="M368.717 163.297C368.144 162.852 367.604 162.366 367.103 161.841C366.669 161.388 366.376 160.811 366.48 160.811C366.457 160.746 366.429 160.683 366.395 160.622L366.215 160.197L365.772 159.063C365.479 158.25 365.186 157.362 364.903 156.464C364.299 154.668 363.742 152.807 363.195 150.935C362.09 147.155 361.033 143.375 359.966 139.538L358.003 131.524C357.719 130.229 357.285 128.33 356.7 126.175C355.105 120.287 352.442 112.443 348.959 109.315C343.559 105.176 340.104 110.26 337.886 115.59C335.743 120.684 341.02 134.614 341.02 134.614L347.439 134.151C348.251 137.109 349.101 140.058 349.941 143.063C351.036 146.994 352.329 150.841 353.632 154.697C354.302 156.587 354.991 158.562 355.746 160.509C356.19 161.501 356.596 162.475 357.049 163.505C357.266 164.015 357.521 164.554 357.795 165.092L358.276 165.99C358.474 166.365 358.698 166.725 358.947 167.068C359.875 168.272 361.05 169.264 362.392 169.978C363.394 170.542 364.459 170.986 365.564 171.301C367.557 171.876 369.628 172.124 371.7 172.039L372.861 166.425C371.474 165.385 369.954 164.308 368.717 163.297Z" fill="white"/>
<g opacity="0.3">
<path d="M350.148 118.35C351.079 119.93 351.797 121.627 352.282 123.396C352.962 125.532 353.736 137.081 349.837 140.483V132.488C349.979 127.583 350.007 123.254 350.148 118.35Z" fill="black"/>
</g>
<path d="M302.278 132.932L296.246 112.358C300.022 106.688 318.902 102.284 318.902 102.284L328.578 105.676L331.335 102.964C331.335 102.964 336.111 104.032 340.199 105.365C345.655 107.151 348.61 108.578 349.912 111.611C349.912 111.611 352.188 118.331 350.856 132.176C350.479 135.956 350.913 155.802 351.97 162.323L358.399 182.699C335.696 200.409 303.911 183.871 303.911 183.871C304.931 180.752 308.329 171.15 308.792 168.098C308.461 164.194 308.924 158.184 307.272 151.361C306.942 150.066 302.826 134.227 302.278 132.932Z" fill="#263238"/>
<path opacity="0.5" d="M302.278 132.932L296.246 112.358C300.022 106.688 318.902 102.284 318.902 102.284L328.578 105.676L331.335 102.964C331.335 102.964 336.111 104.032 340.199 105.365C345.655 107.151 348.61 108.578 349.912 111.611C349.912 111.611 352.188 118.331 350.856 132.176C350.479 135.956 350.913 155.802 351.97 162.323L358.399 182.699C335.696 200.409 303.911 183.871 303.911 183.871C304.931 180.752 308.329 171.15 308.792 168.098C308.461 164.194 308.924 158.184 307.272 151.361C306.942 150.066 302.826 134.227 302.278 132.932Z" fill="white"/>
<path d="M371.266 155.103C371.616 150.962 373.372 147.066 376.242 144.064C379.112 141.061 382.923 139.134 387.04 138.602L385.331 141.437L388.654 139.462L373.408 158.638L371.266 155.103Z" fill="#407BFF"/>
<path opacity="0.8" d="M371.266 155.103C371.616 150.962 373.372 147.066 376.242 144.064C379.112 141.061 382.923 139.134 387.04 138.602L385.331 141.437L388.654 139.462L373.408 158.638L371.266 155.103Z" fill="white"/>
<path d="M347.392 139.387L352.641 139.226L377.723 147.732L354.859 182.699L332.354 177.028C332.048 176.945 331.762 176.802 331.512 176.608C331.261 176.414 331.052 176.171 330.896 175.895C330.74 175.619 330.64 175.315 330.601 175C330.563 174.686 330.588 174.366 330.674 174.061C330.721 173.868 330.798 173.683 330.9 173.513L339.991 157.059C340.079 156.899 340.126 156.718 340.126 156.535C340.126 156.351 340.079 156.171 339.991 156.01L338.754 153.818C338.63 153.596 338.564 153.345 338.564 153.09C338.564 152.835 338.63 152.585 338.754 152.362L344.853 140.918C345.116 140.471 345.485 140.098 345.929 139.83C346.372 139.563 346.875 139.411 347.392 139.387Z" fill="#407BFF"/>
<path d="M377.714 147.751L391.997 138.555L368.5 173.503L354.841 182.718L377.714 147.751Z" fill="#407BFF"/>
<path opacity="0.2" d="M377.714 147.751L391.997 138.555L368.5 173.503L354.841 182.718L377.714 147.751Z" fill="black"/>
<path d="M374.9 163.996C374.9 163.996 369.349 162.541 368.132 163.495C366.914 164.45 368.575 165.385 368.575 165.385C368.575 165.385 366.687 164.525 366.102 165.442C365.413 166.538 367.169 167.483 367.169 167.483C367.169 167.483 365.573 166.85 365.111 167.701C364.648 168.551 366.517 169.808 366.517 169.808C366.517 169.808 365.281 169.619 365.233 170.356C365.186 171.093 369.142 173.806 370.897 173.617C372.653 173.428 376.429 167.077 377.024 165.546C377.619 164.015 377.553 162.824 376.429 161.766L374.909 164.034L374.9 163.996Z" fill="#EEC1BB"/>
<path opacity="0.2" d="M368.519 165.461L371.946 166.774C371.993 166.774 372.05 166.774 372.078 166.699C372.106 166.623 372.078 166.566 372.078 166.557L368.661 165.243C368.614 165.243 368.557 165.243 368.529 165.319C368.5 165.395 368.481 165.442 368.519 165.461Z" fill="black"/>
<path opacity="0.2" d="M367.216 167.606L370.369 169.175C370.417 169.175 370.473 169.175 370.501 169.109C370.52 169.088 370.53 169.061 370.53 169.033C370.53 169.005 370.52 168.978 370.501 168.958L367.339 167.398C367.339 167.398 367.235 167.398 367.207 167.464C367.179 167.53 367.16 167.587 367.216 167.606Z" fill="black"/>
<path opacity="0.2" d="M366.565 169.94L368.868 171.188C368.916 171.188 368.972 171.188 369.01 171.122C369.029 171.101 369.039 171.074 369.039 171.046C369.039 171.018 369.029 170.991 369.01 170.97L366.707 169.732C366.707 169.732 366.603 169.732 366.575 169.799C366.546 169.865 366.527 169.921 366.565 169.94Z" fill="black"/>
<path d="M334.912 103.853L330.721 99.7889L328.587 105.695L319.28 98.2673L314.56 103.456L326.256 111.612L328.587 106.433L334.912 111.177V103.853Z" fill="#263238"/>
<path opacity="0.3" d="M334.913 103.853C335.215 104.306 334.913 111.177 334.913 111.177L328.597 106.451L326.256 111.63L315.022 103.871L326.52 113.899L328.597 107.812L335.649 113.899L334.913 103.853Z" fill="black"/>
<path opacity="0.3" d="M340.898 135.71L308.688 166.784V160.641C308.688 160.641 337.679 134.057 338.037 134.019C339.042 134.49 340 135.057 340.898 135.71Z" fill="black"/>
<path opacity="0.3" d="M310.652 138.177L307.159 123.765L306.47 140.492L310.652 138.177Z" fill="black"/>
<path d="M316.429 83.1085C316.429 83.4917 316.542 83.8663 316.755 84.1849C316.967 84.5035 317.27 84.7518 317.623 84.8984C317.977 85.045 318.366 85.0834 318.741 85.0087C319.117 84.9339 319.462 84.7494 319.732 84.4784C320.003 84.2075 320.187 83.8623 320.262 83.4865C320.337 83.1107 320.298 82.7211 320.152 82.3671C320.005 82.0131 319.757 81.7105 319.439 81.4977C319.121 81.2848 318.747 81.1711 318.364 81.1711C317.851 81.1711 317.358 81.3753 316.996 81.7386C316.633 82.1019 316.429 82.5947 316.429 83.1085Z" fill="#407BFF"/>
<path d="M296.246 112.377C296.246 112.377 291.894 116.62 290.431 131.099C289.374 141.494 286.721 163.902 294.783 166.784C302.845 169.666 338.037 135.985 338.037 135.985L332.373 126.165L306.47 140.492C306.47 140.492 309.103 116.762 304.582 114.588C301.977 113.306 299.143 112.555 296.246 112.377Z" fill="#263238"/>
<path opacity="0.5" d="M296.246 112.377C296.246 112.377 291.894 116.62 290.431 131.099C289.374 141.494 286.721 163.902 294.783 166.784C302.845 169.666 338.037 135.985 338.037 135.985L332.373 126.165L306.47 140.492C306.47 140.492 309.103 116.762 304.582 114.588C301.977 113.306 299.143 112.555 296.246 112.377Z" fill="white"/>
<path d="M334.535 125.438C334.535 125.438 337.924 118.633 339.538 118.34C340.511 118.163 341.514 118.245 342.446 118.576C342.446 118.576 353.415 112.103 354.142 113.804C354.538 114.749 352.103 116.762 346.873 119.748C346.873 119.748 349.885 120.854 348.667 122.583C348.962 122.709 349.227 122.897 349.443 123.134C349.66 123.371 349.823 123.652 349.921 123.957C350.02 124.263 350.051 124.586 350.014 124.905C349.977 125.224 349.872 125.532 349.705 125.806C349.705 125.806 350.725 127.753 349.441 129C348.157 130.248 342.134 133.726 338.651 134.189C335.168 134.652 333.119 127.914 333.119 127.914L334.535 125.438Z" fill="#EEC1BB"/>
<path d="M371.587 319.855C374.541 321.253 376.363 324.514 379.431 325.657C381.179 326.251 383.082 326.197 384.793 325.506V281.722H342.936C342.865 280.76 342.997 279.794 343.323 278.887C344.466 275.815 347.722 273.991 349.119 271.024C351.177 266.657 348.279 261.204 344.031 258.917C340.727 257.141 339.009 256.801 336.158 256.971C333.326 256.801 331.58 257.141 328.285 258.917C324.037 261.204 321.139 266.657 323.197 271.024C324.585 273.991 327.851 275.815 328.993 278.887C329.319 279.794 329.451 280.76 329.38 281.722H287.523V379.063H384.755V340.126C383.045 339.431 381.141 339.377 379.394 339.975C376.326 341.119 374.494 344.351 371.549 345.768C367.612 347.658 361.76 344.918 359.447 340.674C357.663 337.386 357.342 335.647 357.502 332.793C357.342 329.957 357.672 328.219 359.447 324.911C361.778 320.696 367.216 317.795 371.587 319.855Z" fill="#407BFF"/>
<path opacity="0.4" d="M371.587 319.855C374.541 321.253 376.363 324.514 379.431 325.657C381.179 326.251 383.082 326.197 384.793 325.506V281.722H342.936C342.865 280.76 342.997 279.794 343.323 278.887C344.466 275.815 347.722 273.991 349.119 271.024C351.177 266.657 348.279 261.204 344.031 258.917C340.727 257.141 339.009 256.801 336.158 256.971C333.326 256.801 331.58 257.141 328.285 258.917C324.037 261.204 321.139 266.657 323.197 271.024C324.585 273.991 327.851 275.815 328.993 278.887C329.319 279.794 329.451 280.76 329.38 281.722H287.523V379.063H384.755V340.126C383.045 339.431 381.141 339.377 379.394 339.975C376.326 341.119 374.494 344.351 371.549 345.768C367.612 347.658 361.76 344.918 359.447 340.674C357.663 337.386 357.342 335.647 357.502 332.793C357.342 329.957 357.672 328.219 359.447 324.911C361.778 320.696 367.216 317.795 371.587 319.855Z" fill="black"/>
<path d="M376.354 319.855C379.309 321.253 381.14 324.514 384.199 325.657C385.947 326.251 387.849 326.197 389.561 325.506V281.722H347.704C347.633 280.76 347.765 279.794 348.091 278.887C349.233 275.815 352.499 273.991 353.887 271.024C355.945 266.657 353.047 261.204 348.799 258.917C345.504 257.141 343.777 256.801 340.926 256.971C338.094 256.801 336.347 257.141 333.053 258.917C328.805 261.204 325.907 266.657 327.965 271.024C329.362 273.991 332.619 275.815 333.761 278.887C334.087 279.794 334.219 280.76 334.148 281.722H292.291V379.063H389.523V340.126C387.812 339.431 385.908 339.377 384.161 339.975C381.103 341.119 379.262 344.351 376.316 345.768C372.389 347.658 366.527 344.918 364.214 340.674C362.43 337.386 362.109 335.647 362.27 332.793C362.109 329.957 362.44 328.219 364.214 324.911C366.546 320.696 371.983 317.795 376.354 319.855Z" fill="#407BFF"/>
<path opacity="0.4" d="M373.408 346.515C373.408 346.515 376.778 352.554 382.565 352.053C388.352 351.552 389.56 349.029 389.56 349.029L389.475 340.722L376.571 345.664C376.132 346.019 375.624 346.277 375.079 346.424C374.535 346.57 373.965 346.601 373.408 346.515Z" fill="black"/>
<path d="M493.183 295.085L526.43 282.298L545.631 263.671C546.169 263.047 551.73 253.446 551.73 253.446L561.17 273.641C561.17 273.641 537.749 297.202 529.168 299.952C522.239 302.163 497.686 308.183 497.686 308.183L493.183 295.085Z" fill="#407BFF"/>
<path opacity="0.4" d="M513.536 304.195C513.536 304.195 517.548 288.46 526.507 285.19C535.465 281.92 547.048 287.08 546.718 287.269C546.387 287.458 536.683 296.54 536.334 296.644C535.984 296.748 523.75 301.086 517.369 303.193L513.536 304.195Z" fill="black"/>
<path d="M453.205 282.251C453.133 283.213 453.265 284.179 453.592 285.086C454.734 288.158 458 289.982 459.388 292.949C461.446 297.325 458.548 302.768 454.3 305.055C451.005 306.832 449.278 307.172 446.427 307.002C443.595 307.172 441.858 306.832 438.554 305.055C434.306 302.768 431.408 297.325 433.466 292.949C434.863 289.982 438.12 288.158 439.262 285.086C439.588 284.179 439.72 283.213 439.649 282.251H396.3V325.998C394.571 326.719 392.638 326.786 390.863 326.187C387.795 325.043 385.973 321.783 383.009 320.384C378.648 318.324 373.201 321.225 370.916 325.478C369.141 328.786 368.811 330.515 368.971 333.36C368.811 336.195 369.141 337.943 370.916 341.242C373.201 345.494 378.648 348.396 383.009 346.335C385.973 344.946 387.795 341.686 390.863 340.542C392.637 339.94 394.57 340.003 396.3 340.722V379.592L493.23 380.027V282.686L453.205 282.251Z" fill="#263238"/>
<g opacity="0.4">
<path d="M453.205 282.251C453.133 283.213 453.265 284.179 453.592 285.086C454.734 288.158 458 289.982 459.388 292.949C461.446 297.325 458.548 302.768 454.3 305.055C451.005 306.832 449.278 307.172 446.427 307.002C443.595 307.172 441.858 306.832 438.554 305.055C434.306 302.768 431.408 297.325 433.466 292.949C434.863 289.982 438.12 288.158 439.262 285.086C439.588 284.179 439.72 283.213 439.649 282.251H396.3V325.998C394.571 326.719 392.638 326.786 390.863 326.187C387.795 325.043 385.973 321.783 383.009 320.384C378.648 318.324 373.201 321.225 370.916 325.478C369.141 328.786 368.811 330.515 368.971 333.36C368.811 336.195 369.141 337.943 370.916 341.242C373.201 345.494 378.648 348.396 383.009 346.335C385.973 344.946 387.795 341.686 390.863 340.542C392.637 339.94 394.57 340.003 396.3 340.722V379.592L493.23 380.027V282.686L453.205 282.251Z" fill="black"/>
</g>
<path d="M457.491 282.251C457.423 283.213 457.558 284.179 457.887 285.086C459.029 288.158 462.286 289.982 463.683 292.949C465.741 297.325 462.843 302.768 458.586 305.055C455.291 306.832 453.564 307.172 450.722 307.002C447.89 307.172 446.144 306.832 442.849 305.055C438.601 302.768 435.703 297.325 437.761 292.949C439.149 289.982 442.406 288.158 443.548 285.086C443.877 284.179 444.013 283.213 443.944 282.251H400.586V325.998C398.857 326.719 396.924 326.786 395.149 326.187C392.09 325.043 390.259 321.783 387.304 320.384C382.934 318.324 377.496 321.225 375.202 325.478C373.428 328.786 373.097 330.515 373.258 333.36C373.097 336.195 373.428 337.943 375.202 341.242C377.496 345.494 382.934 348.396 387.304 346.335C390.259 344.946 392.09 341.686 395.149 340.542C396.923 339.939 398.856 340.003 400.586 340.722V379.592L497.516 380.027V282.686L457.491 282.251Z" fill="#263238"/>
<path d="M525.808 347.866L541.054 346.921C538.618 360.37 536.107 369.092 537.174 375.991L531.028 380.112L525.364 374.508C524.742 365.631 524.89 356.717 525.808 347.866Z" fill="#E9B376"/>
<path d="M524.383 365.085L529.924 365.151C532.605 369.801 534.464 368.705 537.306 365.425C538.911 365.255 539.326 367.108 539.449 367.609L542.281 378.609C542.341 378.827 542.357 379.056 542.329 379.28C542.301 379.505 542.228 379.722 542.116 379.919C542.004 380.116 541.854 380.288 541.675 380.427C541.496 380.565 541.291 380.667 541.072 380.726C540.91 380.772 540.741 380.794 540.572 380.792L527.281 380.631L508.655 380.414C503.577 380.357 502.586 375.226 504.681 374.744C514.121 372.778 520.805 370.085 523.741 367.382C524.335 366.928 523.778 366.569 524.383 365.085Z" fill="#407BFF"/>
<path d="M521.55 368.166C522.244 368.275 522.908 368.532 523.494 368.92C524.081 369.308 524.577 369.818 524.948 370.416" stroke="#263238" stroke-width="0.5" stroke-linecap="round" stroke-linejoin="round"/>
<path d="M519.029 370.028C519.721 370.136 520.382 370.392 520.967 370.779C521.552 371.165 522.047 371.673 522.418 372.268" stroke="#263238" stroke-width="0.5" stroke-linecap="round" stroke-linejoin="round"/>
<path d="M515.896 371.578C516.589 371.686 517.251 371.943 517.836 372.332C518.421 372.72 518.915 373.23 519.284 373.827" stroke="#263238" stroke-width="0.5" stroke-linecap="round" stroke-linejoin="round"/>
<path opacity="0.7" d="M541.119 380.726C540.957 380.772 540.788 380.794 540.619 380.792L527.328 380.632L508.702 380.414C507.688 380.482 506.678 380.228 505.815 379.688C504.953 379.149 504.282 378.351 503.897 377.409C504.672 377.409 541.657 378.146 542.167 377.985L542.365 378.808C542.431 379.225 542.34 379.652 542.11 380.006C541.88 380.36 541.527 380.617 541.119 380.726Z" fill="white"/>
<path d="M584.156 307.38C584.156 307.38 542.517 285.861 534.408 285.247C526.299 284.633 518.558 289.027 517.01 305.83C515.461 322.633 518.558 365.86 518.558 365.86L541.016 366.248L543.8 316.16C543.8 316.16 578.587 341.601 579.616 341.345C580.645 341.09 594.229 340.467 594.229 340.467L584.156 307.38Z" fill="#263238"/>
<path opacity="0.3" d="M584.156 307.38C584.156 307.38 542.517 285.861 534.408 285.247C526.299 284.633 518.558 289.027 517.01 305.83C515.461 322.633 518.558 365.86 518.558 365.86L541.016 366.248L543.8 316.16C543.8 316.16 578.587 341.601 579.616 341.345C580.645 341.09 594.229 340.467 594.229 340.467L584.156 307.38Z" fill="white"/>
<path opacity="0.4" d="M542.526 339.588C542.526 339.588 524.175 346.023 523.976 361.173C523.778 376.322 539.968 373.459 539.968 373.459L542.526 339.588Z" fill="black"/>
<path d="M600.091 379.063L595.966 364.036C610.4 362.477 620.038 366.03 626.74 362.865L632.782 367.892L628.798 375.387C628.798 375.387 618.159 379.006 600.091 379.063Z" fill="#E9B376"/>
<path d="M619.462 379.167L617.857 373.496C621.784 369.357 620.113 367.826 615.913 365.888C615.261 364.291 617.017 363.318 617.489 363.053L627.873 356.797C628.286 356.541 628.784 356.461 629.257 356.572C629.729 356.684 630.138 356.979 630.394 357.392C630.49 357.544 630.56 357.71 630.601 357.884L634.368 371.483L639.758 390.555C641.231 395.762 636.303 398.323 635.208 396.31C630.365 387.285 625.608 381.265 621.992 379.082C621.36 378.647 621.152 379.337 619.462 379.167Z" fill="#407BFF"/>
<path d="M623.455 381.133C623.355 380.392 623.416 379.639 623.635 378.924C623.853 378.21 624.223 377.551 624.72 376.993" stroke="#263238" stroke-width="0.5" stroke-linecap="round" stroke-linejoin="round"/>
<path d="M626.107 383.155C626.007 382.413 626.068 381.658 626.287 380.942C626.505 380.226 626.875 379.566 627.372 379.006" stroke="#263238" stroke-width="0.5" stroke-linecap="round" stroke-linejoin="round"/>
<path d="M628.628 385.886C628.529 385.144 628.59 384.39 628.809 383.674C629.027 382.958 629.397 382.297 629.893 381.737" stroke="#263238" stroke-width="0.5" stroke-linecap="round" stroke-linejoin="round"/>
<path opacity="0.7" d="M630.347 357.374C630.443 357.525 630.513 357.691 630.554 357.865L634.368 371.483L639.758 390.555C640.551 393.39 639.475 395.403 638.144 396.367C637.927 395.573 627.505 357.619 627.203 357.137L627.977 356.684C628.387 356.48 628.857 356.438 629.296 356.566C629.735 356.694 630.11 356.982 630.347 357.374Z" fill="white"/>
<path d="M629.79 315.593L631.602 324.675C631.602 324.675 636.228 342.697 629.714 351.75C626.005 356.906 620.544 360.529 614.355 361.938L616.243 379.318L614.355 380.49C614.355 380.49 602.376 380.49 577.86 379.374C554.572 378.307 534.55 377.191 530.415 369.924C526.28 362.656 525.336 359.169 532.086 350.531C538.193 342.735 584.695 331.233 586.309 330.77L585.667 326.801L584.912 323.966L629.79 315.593Z" fill="#263238"/>
<path opacity="0.3" d="M629.79 315.593L631.602 324.675C631.602 324.675 636.228 342.697 629.714 351.75C626.005 356.906 620.544 360.529 614.355 361.938L616.243 379.318L614.355 380.49C614.355 380.49 602.376 380.49 577.86 379.374C554.572 378.307 534.55 377.191 530.415 369.924C526.28 362.656 525.336 359.169 532.086 350.531C538.193 342.735 584.695 331.233 586.309 330.77L585.667 326.801L584.912 323.966L629.79 315.593Z" fill="white"/>
<path opacity="0.4" d="M614.374 361.938C612.949 362.316 562.454 360.681 562.454 360.681C562.454 360.681 577.388 363.243 588.424 364.178C599.459 365.114 614.374 361.938 614.374 361.938Z" fill="black"/>
<path opacity="0.4" d="M586.327 330.799L615.412 325.724C615.412 325.724 594.455 325.374 586.327 330.799Z" fill="black"/>
<path d="M512.186 310.177C512.186 310.177 509.76 306.397 506.144 305.717C502.529 305.036 499.848 303.449 497.12 303.099C494.391 302.749 496.874 305.509 498.479 306.719C500.084 307.928 501.906 309.299 500.811 310.366C499.716 311.434 486.953 314.666 485.603 316.32C484.253 317.974 486.471 318.088 486.471 318.088C486.471 318.088 483.394 318.957 483.403 320.28C483.403 320.62 483.97 321.405 485.433 321.225C488.727 320.828 495.59 319.637 495.59 319.637C495.194 319.704 486.821 321.773 485.612 322.255C484.026 322.87 483.592 323.975 483.979 324.883C484.536 326.177 495.005 323.938 495.515 324.174C495.515 324.174 489.445 325.251 488.907 327.009C488.369 328.767 492.192 328.256 495.515 327.198C498.554 326.253 504.785 325.119 507.787 323.834C511.487 322.246 513.611 320.346 513.696 316.576C513.753 314.348 513.232 312.144 512.186 310.177Z" fill="#E9B376"/>
<path d="M508.192 310.102L517.51 306.369L520.729 316.453L509.797 320.356L508.192 310.102Z" fill="#E9B376"/>
<path d="M575.755 240.338C575.755 240.338 573.225 234.667 573.763 223.327L573.14 223.194C573.206 221.607 573.329 220.132 573.47 218.847V218.8L561.142 231.218C562.293 234.526 562.643 241.358 562.576 244.297C562.576 244.297 561.944 249.732 568.646 248.361C573.546 247.284 575.755 240.338 575.755 240.338Z" fill="#E9B376"/>
<path opacity="0.2" d="M562.029 236L569.912 232.135C569.77 234.904 568.212 238.523 562.482 240.168C562.444 238.768 562.292 237.375 562.029 236Z" fill="black"/>
<path d="M571.903 211.712C573.121 221.162 573.999 226.408 570.204 232.05C564.54 240.555 552.476 238.533 548.492 229.649C544.876 221.654 543.489 207.601 551.909 202.242C553.774 201.059 555.907 200.367 558.11 200.23C560.314 200.094 562.516 200.519 564.511 201.464C566.507 202.409 568.231 203.844 569.524 205.636C570.816 207.428 571.635 209.518 571.903 211.712Z" fill="#E9B376"/>
<path d="M568.287 198.462C563.935 193.359 555.826 197.829 552.749 201.137C552.286 201.637 560.622 203.972 560.131 203.915L562.765 206.098C563.105 205.956 563.803 209.188 564.398 211.995C564.944 214.567 566.177 216.942 567.966 218.866C569.707 220.766 571.644 222.477 573.744 223.969C576.679 221.767 575.783 216.069 576.16 212.506C576.708 207.194 576.585 197.262 568.287 198.462Z" fill="#263238"/>
<path d="M577.057 218.752C576.92 219.923 576.551 221.055 575.97 222.081C575.39 223.107 574.61 224.006 573.678 224.725C571.166 226.615 569.552 223.78 569.25 220.822C568.976 218.138 569.127 214.774 572.129 214.037C575.131 213.299 577.387 215.851 577.057 218.752Z" fill="#E9B376"/>
<path d="M559.112 216.957C559.291 217.902 558.942 218.771 558.319 218.847C557.696 218.923 557.035 218.289 556.856 217.335C556.676 216.38 557.025 215.52 557.648 215.445C558.272 215.369 558.932 216.002 559.112 216.957Z" fill="#263238"/>
<path d="M549.823 218.932C550.002 219.877 549.644 220.747 549.021 220.822C548.398 220.898 547.746 220.255 547.557 219.31C547.369 218.365 547.737 217.496 548.36 217.373C548.983 217.25 549.634 217.987 549.823 218.932Z" fill="#263238"/>
<path d="M552.749 217.826C552.749 217.826 550.653 223.138 550.059 225.255C551.616 226.2 553.787 225.207 553.787 225.207L552.749 217.826Z" fill="#D58745"/>
<path d="M560.575 212.024C560.505 212.065 560.425 212.087 560.344 212.087C560.263 212.087 560.183 212.065 560.113 212.024C559.61 211.754 559.053 211.604 558.483 211.584C557.914 211.564 557.347 211.676 556.828 211.91C556.776 211.941 556.719 211.961 556.66 211.97C556.601 211.978 556.541 211.975 556.483 211.96C556.425 211.945 556.37 211.919 556.323 211.883C556.275 211.846 556.235 211.801 556.205 211.75C556.146 211.644 556.131 211.52 556.163 211.403C556.195 211.287 556.27 211.187 556.374 211.126C557.025 210.813 557.741 210.658 558.463 210.674C559.184 210.691 559.892 210.878 560.528 211.22C560.582 211.247 560.629 211.285 560.668 211.33C560.707 211.376 560.737 211.429 560.755 211.486C560.774 211.543 560.781 211.603 560.776 211.663C560.771 211.723 560.754 211.781 560.726 211.835C560.695 211.911 560.642 211.976 560.575 212.024Z" fill="#263238"/>
<path d="M557.488 227.636C558.232 227.456 558.932 227.127 559.545 226.669C560.158 226.211 560.672 225.633 561.057 224.971" stroke="#263238" stroke-width="0.75" stroke-linecap="round" stroke-linejoin="round"/>
<path opacity="0.2" d="M574.442 216.598C574.189 216.371 573.874 216.226 573.537 216.18C573.201 216.135 572.858 216.191 572.554 216.343C571.946 216.659 571.466 217.177 571.195 217.807C570.846 218.554 570.694 219.377 570.751 220.198" stroke="black" stroke-width="0.5" stroke-linecap="round" stroke-linejoin="round"/>
<path d="M544.933 215.719C544.841 215.717 544.752 215.687 544.678 215.634C544.581 215.563 544.515 215.458 544.494 215.34C544.472 215.222 544.498 215.1 544.565 215.001C544.959 214.401 545.492 213.905 546.118 213.555C546.744 213.205 547.445 213.01 548.161 212.988C548.282 212.995 548.394 213.048 548.477 213.136C548.559 213.223 548.605 213.34 548.605 213.46C548.6 213.579 548.549 213.691 548.462 213.772C548.376 213.853 548.261 213.897 548.142 213.895C547.574 213.917 547.02 214.076 546.527 214.359C546.034 214.642 545.616 215.041 545.31 215.52C545.269 215.582 545.212 215.632 545.146 215.667C545.081 215.701 545.007 215.719 544.933 215.719Z" fill="#263238"/>
<path d="M568.288 198.462C566.336 196.303 563.834 194.716 561.051 193.871C558.268 193.025 555.307 192.953 552.486 193.661C544.433 195.551 540.214 201.467 540.072 207.109C539.981 209.006 540.36 210.896 541.176 212.61C541.283 212.82 541.451 212.993 541.658 213.107C541.865 213.22 542.102 213.268 542.336 213.244C542.571 213.221 542.793 213.127 542.974 212.975C543.154 212.823 543.284 212.62 543.348 212.392C543.433 212.099 543.537 211.812 543.659 211.532C543.688 211.598 543.723 211.661 543.763 211.721C543.891 211.935 544.084 212.102 544.313 212.199C544.543 212.295 544.797 212.316 545.039 212.258C545.281 212.2 545.498 212.066 545.659 211.876C545.82 211.686 545.916 211.45 545.934 211.201C545.942 210.836 545.983 210.472 546.057 210.115C546.184 210.303 546.363 210.45 546.572 210.537C546.782 210.625 547.012 210.649 547.235 210.607C547.458 210.564 547.664 210.458 547.827 210.3C547.99 210.142 548.103 209.939 548.153 209.718C548.459 208.582 549.001 207.524 549.741 206.611C550.481 205.697 551.405 204.949 552.452 204.415C553.498 203.881 554.645 203.572 555.819 203.509C556.992 203.446 558.165 203.629 559.263 204.047L562.747 206.117C566.74 203.811 568.288 198.462 568.288 198.462Z" fill="#263238"/>
<path opacity="0.4" d="M583.306 324.287L582.759 327.973L566.513 332.868L570.26 335.269L586.327 330.799L586.998 323.635L583.306 324.287Z" fill="black"/>
<path d="M595.437 241.5C588.15 236.822 575.292 239.043 575.292 239.043L551.692 253.446L567.816 291.371C567.816 291.371 574.537 307.503 578.2 318.248C579.144 320.913 580.815 324.627 583.6 324.259L628.374 316.16C628.89 316.067 629.382 315.867 629.817 315.574C630.253 315.28 630.622 314.898 630.902 314.454C631.181 314.009 631.366 313.511 631.442 312.991C631.519 312.471 631.487 311.941 631.347 311.434C627.024 295.803 601.97 245.687 595.437 241.5Z" fill="#407BFF"/>
<path opacity="0.4" d="M599.647 262.594C594.326 271.968 587.645 280.5 579.823 287.912C576.393 291.339 573.489 295.257 571.205 299.536L568.052 291.456L599.647 262.594Z" fill="black"/>
<path d="M577.454 252.179L546.935 290.275L511.062 306.567L514.631 321.414C514.631 321.414 543.687 313.561 555.364 306.293C567.042 299.026 586.29 278.632 586.29 278.632C586.29 278.632 603.084 265.146 602.281 254.23C601.479 243.315 585.535 240.754 577.454 252.179Z" fill="#407BFF"/>
<path d="M560.887 247.851C560.887 247.851 562.02 242.029 562.567 242.256C563.115 242.483 568.571 245.772 568.571 245.772L574.679 236.624L578.341 239.052L569.911 256.545L560.887 247.851Z" fill="#407BFF"/>
<path opacity="0.4" d="M558.205 272.271L551.163 262.594L556.846 277.743L559.621 274.794L579.058 250.195L558.205 272.271Z" fill="black"/>
<path opacity="0.4" d="M560.887 247.851C561.189 247.955 566.249 251.366 565.965 251.423C565.682 251.48 568.099 247.341 568.099 247.341L573.451 249.382L577.85 238.778L573.527 251.064L568.448 248.607L565.965 253.105L560.887 247.851Z" fill="black"/>
<path d="M213.08 175.459C213.152 174.498 213.02 173.532 212.693 172.624C211.551 169.553 208.294 167.729 206.897 164.761C204.839 160.386 207.737 154.942 211.985 152.655C215.28 150.878 217.007 150.538 219.858 150.699C222.69 150.538 224.437 150.878 227.731 152.655C231.979 154.942 234.877 160.386 232.819 164.761C231.432 167.729 228.165 169.553 227.023 172.624C226.697 173.532 226.565 174.498 226.636 175.459H269.985V131.703C271.716 130.989 273.647 130.925 275.422 131.524C278.49 132.667 280.312 135.928 283.276 137.326C287.637 139.387 293.084 136.485 295.369 132.223C297.143 128.925 297.483 127.195 297.313 124.351C297.483 121.515 297.143 119.767 295.369 116.469C293.084 112.216 287.637 109.315 283.276 111.375C280.312 112.764 278.49 116.025 275.422 117.168C273.648 117.771 271.715 117.707 269.985 116.989V78.0334L173.055 77.5986V174.94L213.08 175.459Z" fill="#263238"/>
<g opacity="0.4">
<path d="M213.08 175.459C213.152 174.498 213.02 173.532 212.693 172.624C211.551 169.553 208.294 167.729 206.897 164.761C204.839 160.386 207.737 154.942 211.985 152.655C215.28 150.878 217.007 150.538 219.858 150.699C222.69 150.538 224.437 150.878 227.731 152.655C231.979 154.942 234.877 160.386 232.819 164.761C231.432 167.729 228.165 169.553 227.023 172.624C226.697 173.532 226.565 174.498 226.636 175.459H269.985V131.703C271.716 130.989 273.647 130.925 275.422 131.524C278.49 132.667 280.312 135.928 283.276 137.326C287.637 139.387 293.084 136.485 295.369 132.223C297.143 128.925 297.483 127.195 297.313 124.351C297.483 121.515 297.143 119.767 295.369 116.469C293.084 112.216 287.637 109.315 283.276 111.375C280.312 112.764 278.49 116.025 275.422 117.168C273.648 117.771 271.715 117.707 269.985 116.989V78.0334L173.055 77.5986V174.94L213.08 175.459Z" fill="black"/>
</g>
<path d="M216.026 175.459C216.094 174.497 215.959 173.531 215.629 172.624C214.487 169.553 211.23 167.729 209.833 164.761C207.775 160.386 210.673 154.942 214.931 152.655C218.225 150.878 219.953 150.538 222.794 150.699C225.626 150.538 227.372 150.878 230.667 152.655C234.915 154.942 237.813 160.386 235.755 164.761C234.368 167.729 231.111 169.553 229.968 172.624C229.639 173.531 229.504 174.497 229.572 175.459H272.93V131.703C274.662 130.989 276.593 130.925 278.367 131.524C281.426 132.667 283.257 135.928 286.212 137.326C290.583 139.387 296.02 136.485 298.314 132.223C300.089 128.925 300.419 127.195 300.259 124.351C300.419 121.515 300.089 119.767 298.314 116.469C296.02 112.216 290.583 109.315 286.212 111.375C283.257 112.764 281.426 116.025 278.367 117.168C276.593 117.772 274.66 117.708 272.93 116.989V78.0334L176 77.5986V174.94L216.026 175.459Z" fill="#263238"/>
<path d="M151.569 123.292C151.569 123.292 144.499 148.393 149.02 152.759C153.542 157.125 169.392 154.224 168.59 153.893C167.787 153.562 172.63 123.377 172.951 124.474C173.272 125.57 151.569 123.292 151.569 123.292Z" fill="#B97964"/>
<path d="M160.376 349.964V371.701L170.477 372.485L174.026 352.034C169.391 348.726 164.841 347.933 160.376 349.964Z" fill="#B97964"/>
<path d="M160.263 369.47C159.272 372.306 159.206 384.1 159.206 384.1H180.616C181.89 379.847 179.927 376.946 177.425 376.539C176.349 376.379 175.094 375.179 174.168 374.139C174.168 374.007 172.856 367.467 172.044 367.155C172.044 367.155 171.488 366.475 171.016 367.155C170.592 368.072 170.293 369.041 170.128 370.037C166.786 365.586 163.511 366.191 160.263 369.47Z" fill="#263238"/>
<path d="M160.008 372.882C161.18 372.406 162.456 372.249 163.708 372.426C164.96 372.604 166.142 373.11 167.135 373.893C167.503 374.167 167.853 373.515 167.485 373.232C166.413 372.396 165.141 371.857 163.796 371.668C162.451 371.479 161.079 371.646 159.819 372.154C159.404 372.315 159.583 373.052 160.008 372.882Z" fill="white"/>
<path d="M180.559 382.427H159.461C159.36 382.427 159.264 382.387 159.194 382.316C159.123 382.246 159.083 382.149 159.083 382.049C159.083 381.949 159.123 381.853 159.194 381.782C159.264 381.711 159.36 381.671 159.461 381.671H180.559C180.659 381.671 180.755 381.711 180.826 381.782C180.897 381.853 180.937 381.949 180.937 382.049C180.937 382.149 180.897 382.246 180.826 382.316C180.755 382.387 180.659 382.427 180.559 382.427Z" fill="white"/>
<path d="M203.961 347.12V371.691L213.675 372.495L218.461 349.492C214.534 346.354 210.003 344.814 203.961 347.12Z" fill="#B97964"/>
<path d="M203.489 369.518C202.498 372.353 202.432 384.157 202.432 384.157H227.032C228.307 379.904 225.645 377.381 223.143 376.993C222.076 376.832 218.319 375.254 217.394 374.205C217.394 374.073 216.082 367.543 215.27 367.231C215.27 367.231 214.713 366.55 214.241 367.231C213.813 368.156 213.511 369.135 213.344 370.141C210.012 365.643 206.736 366.238 203.489 369.518Z" fill="#263238"/>
<path d="M203.234 372.977C204.405 372.501 205.682 372.344 206.933 372.521C208.185 372.699 209.368 373.205 210.361 373.988C210.729 374.271 211.078 373.61 210.71 373.336C209.639 372.499 208.368 371.958 207.023 371.767C205.677 371.576 204.306 371.742 203.045 372.249C202.63 372.419 202.809 373.147 203.234 372.977Z" fill="white"/>
<path d="M227.032 382.427H202.686C202.595 382.413 202.512 382.366 202.452 382.296C202.392 382.226 202.359 382.137 202.359 382.044C202.359 381.952 202.392 381.863 202.452 381.793C202.512 381.722 202.595 381.676 202.686 381.662H227.032C227.08 381.663 227.127 381.674 227.171 381.693C227.214 381.713 227.254 381.742 227.286 381.777C227.319 381.812 227.344 381.853 227.36 381.899C227.377 381.944 227.384 381.992 227.381 382.04C227.384 382.088 227.377 382.137 227.361 382.182C227.344 382.228 227.319 382.27 227.287 382.306C227.254 382.342 227.215 382.371 227.171 382.392C227.128 382.413 227.08 382.425 227.032 382.427Z" fill="white"/>
<path d="M156.195 360.691L177.718 361.844C182.542 346.175 187.319 290.019 187.81 273.131C188.404 252.973 195.607 202.394 189.235 191.856C182.863 181.319 154.033 189.72 154.033 189.72C154.033 189.72 157.63 251.3 156.195 270.995C154.949 287.978 153.023 338.009 156.195 360.691Z" fill="#263238"/>
<path d="M180.039 356.164L178.642 363.365L155.316 362.609L154.457 355.691L180.039 356.164Z" fill="#407BFF"/>
<path d="M199.185 360.691L220.519 361.844C223.115 344.502 233.556 281.334 232.697 269.228C231.649 254.447 219.292 190.476 214.695 185.543C210.097 180.61 176.453 193.415 176.453 193.415C176.453 193.415 190.283 248.427 201.186 272.224C203.452 277.148 197.429 339.597 199.185 360.691Z" fill="#263238"/>
<path d="M222.964 356.703L221.869 363.365L198.156 361.844L197.684 354.869L222.964 356.703Z" fill="#407BFF"/>
<path opacity="0.3" d="M189.914 241.897L183.646 220.936L172.525 217.297L181.22 224.045L188.215 262.263L189.914 241.897Z" fill="black"/>
<path d="M201.903 56.193C201.903 57.1381 202.3 57.7807 202.847 57.8752C203.395 57.9697 203.942 57.2137 203.99 56.297C204.037 55.3803 203.612 54.7093 203.046 54.6148C202.479 54.5203 202.017 55.3236 201.903 56.193Z" fill="#263238"/>
<path d="M202.271 56.0703C202.58 58.9918 203.298 61.8551 204.405 64.5758C203.699 64.8385 202.945 64.9433 202.195 64.8829C201.445 64.8225 200.717 64.5983 200.062 64.2262L202.271 56.0703Z" fill="#A24E3F"/>
<path d="M200.269 53.2917C200.154 53.3008 200.039 53.2744 199.939 53.2161C199.84 53.1169 199.785 52.9827 199.785 52.8428C199.785 52.7029 199.84 52.5686 199.939 52.4695C200.464 51.8282 201.135 51.3221 201.895 50.9933C202.656 50.6645 203.483 50.5226 204.31 50.5793C204.443 50.5914 204.567 50.6557 204.654 50.7583C204.74 50.8609 204.783 50.9936 204.772 51.1275C204.751 51.2637 204.679 51.3867 204.57 51.4711C204.461 51.5554 204.324 51.5948 204.187 51.5811C203.528 51.5536 202.872 51.6832 202.273 51.9593C201.674 52.2353 201.149 52.6499 200.741 53.1688C200.68 53.2287 200.605 53.2715 200.522 53.2931C200.439 53.3146 200.352 53.3141 200.269 53.2917Z" fill="#263238"/>
<path d="M202.281 68.2142C202.165 68.6951 202.02 69.1685 201.847 69.6318C200.86 72.2946 199.097 74.5993 196.787 76.2472C196.185 76.6668 195.554 77.0427 194.899 77.3719C192.428 78.672 189.604 79.1406 186.846 78.7082C184.088 78.2759 181.543 76.9655 179.587 74.9714C174.461 69.887 174.593 63.9993 174.018 54.0478C173.861 51.9072 174.214 49.7599 175.047 47.7821C176.498 44.4241 179.21 41.7716 182.596 40.3962C185.983 39.0209 189.774 39.0328 193.152 40.4295C203.074 44.4366 204.443 59.2173 202.281 68.2142Z" fill="#B97964"/>
<path opacity="0.2" d="M196.749 76.2757C196.147 76.6953 195.516 77.0711 194.861 77.4003C193.16 78.289 191.284 78.7921 189.367 78.8737C187.45 78.9554 185.539 78.6137 183.769 77.8728C184.231 76.6775 184.84 75.5442 185.581 74.499C189.397 74.018 193.27 74.6343 196.749 76.2757Z" fill="black"/>
<path d="M176.387 89.185C181.38 93.6362 193.586 92.0202 193.586 92.0202C193.586 92.0202 201.204 89.9599 199.59 87.6256C195.116 86.8885 192.935 84.7905 192.038 82.1821C191.569 80.5566 191.431 78.8533 191.632 77.1733C191.705 76.2219 191.831 75.2754 192.01 74.3381L176.906 63.3376C178.841 70.5579 181.248 83.9305 176.387 89.185Z" fill="#B97964"/>
<path d="M196.749 59.1511L198.93 59.9544L197.844 55.5693C197.844 55.5693 201.035 50.7779 197.844 46.6291C197.844 46.6291 206.652 43.9924 201.677 39.4372C199.789 37.7361 197.523 39.4372 191.444 36.8383C188.14 35.4112 177.822 35.3073 177.284 39.4372C177.284 39.4372 169.845 39.4372 169.043 51.8931C168.813 55.5551 169.4 59.2223 170.762 62.6289C172.124 66.0355 174.226 69.0958 176.916 71.5881C176.916 71.5881 185.903 73.6766 190.302 70.1232C194.701 66.5698 196.749 59.1511 196.749 59.1511Z" fill="#263238"/>
<path d="M191 59.86C191.194 60.8017 191.597 61.6879 192.179 62.4532C192.76 63.2186 193.506 63.8438 194.361 64.2828C196.419 65.1428 197.778 62.2888 197.476 59.3024C197.193 56.6373 195.795 52.9043 193.596 53.4052C191.396 53.9061 190.283 57.176 191 59.86Z" fill="#B97964"/>
<path d="M161.047 86.7939C161.047 86.7939 157.535 87.8619 155.789 88.4951C152.154 89.8276 149.756 93.8819 148.444 97.8606C145.225 107.585 140.033 130.597 140.033 130.597L158.913 134.567L168.976 112.878L161.047 86.7939Z" fill="#407BFF"/>
<path opacity="0.5" d="M161.047 86.7939C161.047 86.7939 155.996 87.739 153.344 89.9315C151.323 91.5948 149.709 94.0236 148.444 97.8606C145.225 107.585 140.033 130.597 140.033 130.597L158.913 134.567L168.976 112.878L161.047 86.7939Z" fill="white"/>
<path d="M206.736 87.9093C201.176 87.3044 184.08 83.4391 161.075 86.7941L155.685 171.915C155.214 180.023 154.307 188.099 152.966 196.109C176.33 206.155 203.942 203.282 219.612 194.843C219.433 195.192 218.914 185.902 218.111 172.303C216.705 148.327 214.392 110.94 211.409 89.2985C211.296 88.7598 207.255 87.966 206.736 87.9093Z" fill="#407BFF"/>
<g opacity="0.5">
<path d="M206.736 87.9093C201.176 87.3044 184.08 83.4391 161.075 86.7941L155.685 171.915C155.214 180.023 154.307 188.099 152.966 196.109C176.33 206.155 203.942 203.282 219.612 194.843C219.433 195.192 218.914 185.902 218.111 172.303C216.705 148.327 214.392 110.94 211.409 89.2985C211.296 88.7598 207.255 87.966 206.736 87.9093Z" fill="white"/>
</g>
<path d="M176.132 85.9057C176.581 84.2493 177.555 82.7835 178.907 81.7285L191.717 82.7208L197.721 86.6806L176.132 85.9057Z" fill="#407BFF"/>
<path opacity="0.5" d="M176.132 85.9057C176.581 84.2493 177.555 82.7835 178.907 81.7285L191.717 82.7208L197.721 86.6806L176.132 85.9057Z" fill="white"/>
<path opacity="0.2" d="M206.113 114.399C208.162 123.992 211.107 142.751 216.677 149.366L215.346 130.352L206.113 114.399Z" fill="black"/>
<path opacity="0.2" d="M157.686 134.302L158.177 109.721L153.022 133.13L157.686 134.302Z" fill="black"/>
<path d="M215.931 121.979C215.204 122.262 229.071 153.496 234.726 153.77C240.38 154.044 266.879 141.976 266.879 141.976L260.931 134.869L240.89 136.022L230.676 114.239L215.931 121.979Z" fill="#B97964"/>
<path d="M208.955 88.9772C201.761 93.7025 198.193 104.505 217.451 137.742L238.275 125.012C234.055 117.234 229.6 111.574 224.634 100.308C214.666 85.9058 208.955 88.9772 208.955 88.9772Z" fill="#407BFF"/>
<path opacity="0.5" d="M208.955 88.9772C201.761 93.7025 198.193 104.505 217.451 137.742L238.275 125.012C234.055 117.234 229.6 111.574 224.634 100.308C214.666 85.9058 208.955 88.9772 208.955 88.9772Z" fill="white"/>
<path d="M276.215 134.661C276.215 132.837 275.658 130.881 274.676 130.796C273.694 130.711 268.455 130.796 268.455 130.796C268.455 129.331 271.211 127.715 270.343 126.713C269.172 125.4 262.385 131.004 261.96 132.147C261.648 133.138 261.224 134.089 260.695 134.983L264.283 143.223C264.283 143.223 270.891 147.599 272.458 146.059C272.9 145.652 273.253 145.159 273.495 144.609C273.737 144.059 273.863 143.465 273.864 142.864C273.864 142.864 275.403 140.729 275.261 139.32C275.12 137.912 276.215 136.485 276.215 134.661Z" fill="#B97964"/>
</g>
<defs>
<clipPath id="clip0_22_5689">
<rect width="708" height="397" fill="white"/>
</clipPath>
</defs>
</svg>
