<svg width="240" height="44" viewBox="0 0 240 44" fill="none" xmlns="http://www.w3.org/2000/svg">
<path d="M17.696 16.9241C18.571 15.4086 18.0517 13.4707 16.5362 12.5958C15.0207 11.7208 13.0828 12.24 12.2078 13.7555C11.3329 15.2711 11.8521 17.209 13.3676 18.0839C14.8831 18.9589 16.821 18.4397 17.696 16.9241Z" fill="#6F2931"/>
<path d="M13.3613 24.544C13.1087 24.9799 12.7458 25.3418 12.3091 25.5932C11.8724 25.8447 11.3773 25.9768 10.8734 25.9764C10.3695 25.976 9.87456 25.8431 9.43827 25.591C9.00198 25.3389 8.63968 24.9764 8.38773 24.54L6.00496 20.4147C5.10584 18.8582 4.63237 17.0924 4.63217 15.2949C4.63196 13.4974 5.10502 11.7315 6.00378 10.1748C6.90254 8.61812 8.19531 7.32549 9.75211 6.42691C11.3089 5.52833 13.0748 5.05547 14.8724 5.05589L19.6364 5.05678C20.3917 5.06666 21.1127 5.37363 21.6434 5.91123C22.174 6.44884 22.4716 7.17382 22.4716 7.9292C22.4717 8.68459 22.1742 9.40959 21.6436 9.94725C21.113 10.4849 20.392 10.792 19.6367 10.8019L14.8716 10.8029C14.0829 10.8023 13.308 11.0096 12.6249 11.4037C11.9417 11.7978 11.3745 12.3649 10.9801 13.0479C10.5858 13.7309 10.3783 14.5057 10.3786 15.2944C10.3788 16.0831 10.5868 16.8578 10.9816 17.5405L13.3633 21.6677C13.6158 22.105 13.7485 22.6011 13.7482 23.1061C13.7478 23.6111 13.6144 24.107 13.3613 24.544Z" fill="#6F2931"/>
<path d="M20.1309 29.8008C20.1309 29.1741 20.3167 28.5614 20.6649 28.0404C21.013 27.5193 21.5079 27.1131 22.0869 26.8733C22.6659 26.6335 23.303 26.5707 23.9176 26.693C24.5323 26.8153 25.0969 27.117 25.54 27.5602C25.9832 28.0033 26.2849 28.5679 26.4072 29.1825C26.5295 29.7972 26.4667 30.4343 26.2269 31.0133C25.9871 31.5923 25.5809 32.0871 25.0599 32.4353C24.5388 32.7835 23.9262 32.9693 23.2995 32.9693C22.8833 32.9696 22.4711 32.8878 22.0866 32.7287C21.702 32.5696 21.3526 32.3362 21.0583 32.0419C20.764 31.7476 20.5307 31.3982 20.3715 31.0136C20.2124 30.6291 20.1306 30.2169 20.1309 29.8008Z" fill="#0057B2"/>
<path d="M34.5437 30.8807L32.1614 35.0069C31.2625 36.5631 29.9699 37.8554 28.4135 38.7538C26.8571 39.6522 25.0916 40.1252 23.2945 40.1253C21.4974 40.1253 19.7319 39.6524 18.1754 38.7541C16.619 37.8557 15.3263 36.5636 14.4274 35.0074L12.0438 30.8792C11.6639 30.2177 11.5624 29.4323 11.7615 28.696C11.9606 27.9596 12.4441 27.3324 13.1056 26.9525C13.7671 26.5726 14.5525 26.4711 15.2889 26.6702C16.0253 26.8693 16.6524 27.3528 17.0323 28.0143L19.4169 32.1407C19.813 32.8199 20.3803 33.3833 21.0623 33.7746C21.7442 34.166 22.5169 34.3716 23.3031 34.3709C24.0893 34.3703 24.8617 34.1633 25.5429 33.7708C26.2242 33.3783 26.7906 32.814 27.1855 32.1341L29.5678 28.0079C29.9488 27.348 30.5762 26.8665 31.3122 26.6693C32.0482 26.4721 32.8323 26.5754 33.4921 26.9563C34.152 27.3373 34.6335 27.9648 34.8307 28.7007C35.0279 29.4367 34.9246 30.2208 34.5437 30.8807Z" fill="#0057B2"/>
<path d="M33.233 18.0839C32.6903 18.3973 32.0668 18.5427 31.4415 18.5017C30.8161 18.4607 30.217 18.2352 29.7198 17.8537C29.2226 17.4722 28.8497 16.9518 28.6483 16.3583C28.4468 15.7649 28.4259 15.1251 28.5881 14.5197C28.7503 13.9144 29.0883 13.3708 29.5595 12.9575C30.0307 12.5443 30.6138 12.2801 31.2351 12.1983C31.8565 12.1165 32.4881 12.2208 33.0502 12.498C33.6122 12.7752 34.0795 13.2128 34.3928 13.7556C34.8124 14.4835 34.9259 15.3482 34.7085 16.1597C34.491 16.9713 33.9604 17.6633 33.233 18.0839Z" fill="#007DFF"/>
<path d="M40.5888 20.4115L38.2065 24.5378C37.8256 25.1976 37.1981 25.6791 36.4621 25.8763C35.7262 26.0735 34.942 25.9703 34.2822 25.5893C33.6223 25.2084 33.1409 24.5809 32.9437 23.8449C32.7465 23.109 32.8497 22.3248 33.2307 21.665L35.613 17.5387C36.0067 16.8556 36.2137 16.081 36.2134 15.2925C36.213 14.5041 36.0053 13.7297 35.611 13.0469C35.2167 12.3642 34.6497 11.7971 33.967 11.4028C33.2843 11.0084 32.5099 10.8006 31.7215 10.8002L26.9685 10.8057C26.5881 10.8107 26.2105 10.7401 25.8576 10.598C25.5047 10.4559 25.1835 10.2451 24.9128 9.97786C24.642 9.71064 24.427 9.39229 24.2802 9.0413C24.1334 8.69031 24.0579 8.31367 24.0578 7.93324C24.0578 7.5528 24.1334 7.17615 24.2801 6.82514C24.4268 6.47414 24.6418 6.15577 24.9125 5.88852C25.1833 5.62127 25.5044 5.41045 25.8573 5.26832C26.2102 5.12618 26.5878 5.05555 26.9682 5.06052L31.7351 5.06064C33.5301 5.06408 35.2926 5.53927 36.846 6.43858C38.3994 7.33789 39.6891 8.62971 40.5859 10.1846C41.4827 11.7394 41.955 13.5027 41.9555 15.2976C41.956 17.0926 41.4847 18.8561 40.5888 20.4115Z" fill="#007DFF"/>
<path d="M57.0154 15.6289V13.4099H70.2377V15.6289H64.9071V30.4946H62.3377V15.6289H57.0154ZM73.1596 30.4946V13.4099H83.8709V15.6289H75.7373V20.8344H83.312V23.0451H75.7373V28.2756H83.971V30.4946H73.1596ZM88.7573 30.4946H86.0211L92.1693 13.4099H95.1474L101.296 30.4946H98.5594L93.7293 16.5132H93.5958L88.7573 30.4946ZM89.2162 23.8042H98.0922V25.9732H89.2162V23.8042ZM103.763 13.4099H106.891L112.33 26.6906H112.53L117.97 13.4099H121.098V30.4946H118.645V18.1315H118.487L113.448 30.4696H111.413L106.374 18.1232H106.215V30.4946H103.763V13.4099ZM138.618 18.7489H137.05C136.933 18.1649 136.722 17.6254 136.416 17.1305C136.116 16.6299 135.738 16.1934 135.282 15.8208C134.826 15.4481 134.308 15.1589 133.73 14.9532C133.152 14.7474 132.526 14.6445 131.853 14.6445C130.774 14.6445 129.79 14.9254 128.9 15.4871C128.016 16.0488 127.307 16.8746 126.773 17.9647C126.244 19.0492 125.98 20.3784 125.98 21.9522C125.98 23.5373 126.244 24.872 126.773 25.9565C127.307 27.041 128.016 27.8641 128.9 28.4258C129.79 28.9819 130.774 29.26 131.853 29.26C132.526 29.26 133.152 29.1571 133.73 28.9513C134.308 28.7456 134.826 28.4591 135.282 28.0921C135.738 27.7195 136.116 27.2829 136.416 26.7824C136.722 26.2818 136.933 25.7396 137.05 25.1556H138.618C138.479 25.9398 138.218 26.6711 137.834 27.3496C137.456 28.0226 136.972 28.6121 136.383 29.1182C135.799 29.6243 135.126 30.0191 134.364 30.3028C133.602 30.5864 132.765 30.7282 131.853 30.7282C130.418 30.7282 129.145 30.3695 128.032 29.6521C126.92 28.9291 126.047 27.9113 125.413 26.5988C124.784 25.2863 124.47 23.7375 124.47 21.9522C124.47 20.167 124.784 18.6182 125.413 17.3057C126.047 15.9932 126.92 14.9782 128.032 14.2608C129.145 13.5378 130.418 13.1763 131.853 13.1763C132.765 13.1763 133.602 13.3181 134.364 13.6017C135.126 13.8798 135.799 14.2747 136.383 14.7863C136.972 15.2924 137.456 15.8819 137.834 16.5549C138.218 17.2278 138.479 17.9591 138.618 18.7489ZM156.289 21.9522C156.289 23.7319 155.972 25.2808 155.338 26.5988C154.704 27.9113 153.831 28.9291 152.719 29.6521C151.612 30.3695 150.339 30.7282 148.898 30.7282C147.458 30.7282 146.181 30.3695 145.069 29.6521C143.962 28.9291 143.092 27.9113 142.458 26.5988C141.83 25.2808 141.515 23.7319 141.515 21.9522C141.515 20.1726 141.83 18.6265 142.458 17.314C143.092 15.9959 143.965 14.9782 145.077 14.2608C146.19 13.5378 147.463 13.1763 148.898 13.1763C150.339 13.1763 151.612 13.5378 152.719 14.2608C153.831 14.9782 154.704 15.9959 155.338 17.314C155.972 18.6265 156.289 20.1726 156.289 21.9522ZM154.771 21.9522C154.771 20.4228 154.515 19.1131 154.004 18.0231C153.492 16.9275 152.794 16.0905 151.91 15.5121C151.025 14.9337 150.022 14.6445 148.898 14.6445C147.78 14.6445 146.779 14.9337 145.895 15.5121C145.011 16.0905 144.31 16.9247 143.793 18.0147C143.281 19.1048 143.025 20.4173 143.025 21.9522C143.025 23.4816 143.281 24.7914 143.793 25.8814C144.304 26.9715 145.002 27.8085 145.887 28.3924C146.771 28.9708 147.775 29.26 148.898 29.26C150.022 29.26 151.025 28.9708 151.91 28.3924C152.799 27.814 153.5 26.9798 154.012 25.8898C154.524 24.7941 154.777 23.4816 154.771 21.9522ZM173.368 13.4099V30.4946H171.85L161.755 16.1878H161.622V30.4946H160.062V13.4099H161.572L171.699 27.7334H171.833V13.4099H173.368ZM191.216 13.4099V30.4946H189.698L179.604 16.1878H179.47V30.4946H177.91V13.4099H179.42L189.547 27.7334H189.681V13.4099H191.216ZM195.758 30.4946V13.4099H205.669V14.8113H197.318V21.2432H205.143V22.6446H197.318V29.0931H205.836V30.4946H195.758ZM223.087 18.7489H221.519C221.402 18.1649 221.191 17.6254 220.885 17.1305C220.584 16.6299 220.206 16.1934 219.75 15.8208C219.294 15.4481 218.777 15.1589 218.199 14.9532C217.62 14.7474 216.995 14.6445 216.322 14.6445C215.243 14.6445 214.258 14.9254 213.368 15.4871C212.484 16.0488 211.775 16.8746 211.241 17.9647C210.713 19.0492 210.449 20.3784 210.449 21.9522C210.449 23.5373 210.713 24.872 211.241 25.9565C211.775 27.041 212.484 27.8641 213.368 28.4258C214.258 28.9819 215.243 29.26 216.322 29.26C216.995 29.26 217.62 29.1571 218.199 28.9513C218.777 28.7456 219.294 28.4591 219.75 28.0921C220.206 27.7195 220.584 27.2829 220.885 26.7824C221.191 26.2818 221.402 25.7396 221.519 25.1556H223.087C222.948 25.9398 222.687 26.6711 222.303 27.3496C221.925 28.0226 221.441 28.6121 220.851 29.1182C220.267 29.6243 219.595 30.0191 218.833 30.3028C218.071 30.5864 217.234 30.7282 216.322 30.7282C214.887 30.7282 213.613 30.3695 212.501 29.6521C211.389 28.9291 210.515 27.9113 209.881 26.5988C209.253 25.2863 208.939 23.7375 208.939 21.9522C208.939 20.167 209.253 18.6182 209.881 17.3057C210.515 15.9932 211.389 14.9782 212.501 14.2608C213.613 13.5378 214.887 13.1763 216.322 13.1763C217.234 13.1763 218.071 13.3181 218.833 13.6017C219.595 13.8798 220.267 14.2747 220.851 14.7863C221.441 15.2924 221.925 15.8819 222.303 16.5549C222.687 17.2278 222.948 17.9591 223.087 18.7489ZM225.717 14.8113V13.4099H238.105V14.8113H232.691V30.4946H231.131V14.8113H225.717Z" fill="#EDEDED"/>
</svg>
